; NON-PLATED HOLES START AT T1
; THROUGH (PLATED) HOLES START AT T100
M48
INCH
T100C0.038000
T101C0.015748
%
T100
X007923Y012613
X003923Y013613
X006923Y012613
X004923Y013613
X008923Y012613
X005923Y013613
X006923Y013613
X009923Y013613
X005923Y012613
X004923Y012613
X007923Y013613
X003923Y012613
X009923Y012613
X008923Y013613
T101
X007265Y006353
X003744Y004452
X001399Y004779
X008604Y007574
X013289Y012298
X005848Y006353
T00
M30
