G04 MADE WITH FRITZING*
G04 WWW.FRITZING.ORG*
G04 DOUBLE SIDED*
G04 HOLES PLATED*
G04 CONTOUR ON CENTER OF CONTOUR VECTOR*
%ASAXBY*%
%FSLAX23Y23*%
%MOIN*%
%OFA0B0*%
%SFA1.0B1.0*%
%ADD10R,0.001000X0.001000*%
%LNSILK1*%
G90*
G70*
G54D10*
X2Y1469D02*
X1376Y1469D01*
X2Y1468D02*
X1376Y1468D01*
X2Y1467D02*
X384Y1467D01*
X1373Y1467D02*
X1376Y1467D01*
X2Y1466D02*
X5Y1466D01*
X1373Y1466D02*
X1376Y1466D01*
X2Y1465D02*
X5Y1465D01*
X1373Y1465D02*
X1376Y1465D01*
X2Y1464D02*
X5Y1464D01*
X1373Y1464D02*
X1376Y1464D01*
X2Y1463D02*
X5Y1463D01*
X1373Y1463D02*
X1376Y1463D01*
X2Y1462D02*
X5Y1462D01*
X1373Y1462D02*
X1376Y1462D01*
X2Y1461D02*
X5Y1461D01*
X1373Y1461D02*
X1376Y1461D01*
X2Y1460D02*
X5Y1460D01*
X1373Y1460D02*
X1376Y1460D01*
X2Y1459D02*
X5Y1459D01*
X1373Y1459D02*
X1376Y1459D01*
X2Y1458D02*
X5Y1458D01*
X1373Y1458D02*
X1376Y1458D01*
X2Y1457D02*
X5Y1457D01*
X1373Y1457D02*
X1376Y1457D01*
X2Y1456D02*
X5Y1456D01*
X1373Y1456D02*
X1376Y1456D01*
X2Y1455D02*
X5Y1455D01*
X1373Y1455D02*
X1376Y1455D01*
X2Y1454D02*
X5Y1454D01*
X1373Y1454D02*
X1376Y1454D01*
X2Y1453D02*
X5Y1453D01*
X1373Y1453D02*
X1376Y1453D01*
X2Y1452D02*
X5Y1452D01*
X1373Y1452D02*
X1376Y1452D01*
X2Y1451D02*
X5Y1451D01*
X1373Y1451D02*
X1376Y1451D01*
X2Y1450D02*
X5Y1450D01*
X1373Y1450D02*
X1376Y1450D01*
X2Y1449D02*
X5Y1449D01*
X1373Y1449D02*
X1376Y1449D01*
X2Y1448D02*
X5Y1448D01*
X1373Y1448D02*
X1376Y1448D01*
X2Y1447D02*
X5Y1447D01*
X1373Y1447D02*
X1376Y1447D01*
X2Y1446D02*
X5Y1446D01*
X1373Y1446D02*
X1376Y1446D01*
X2Y1445D02*
X5Y1445D01*
X1373Y1445D02*
X1376Y1445D01*
X2Y1444D02*
X5Y1444D01*
X1373Y1444D02*
X1376Y1444D01*
X2Y1443D02*
X5Y1443D01*
X1373Y1443D02*
X1376Y1443D01*
X2Y1442D02*
X5Y1442D01*
X1373Y1442D02*
X1376Y1442D01*
X2Y1441D02*
X5Y1441D01*
X1373Y1441D02*
X1376Y1441D01*
X2Y1440D02*
X5Y1440D01*
X1373Y1440D02*
X1376Y1440D01*
X2Y1439D02*
X5Y1439D01*
X1373Y1439D02*
X1376Y1439D01*
X2Y1438D02*
X5Y1438D01*
X1373Y1438D02*
X1376Y1438D01*
X2Y1437D02*
X5Y1437D01*
X1373Y1437D02*
X1376Y1437D01*
X2Y1436D02*
X5Y1436D01*
X1373Y1436D02*
X1376Y1436D01*
X2Y1435D02*
X5Y1435D01*
X1373Y1435D02*
X1376Y1435D01*
X2Y1434D02*
X5Y1434D01*
X1373Y1434D02*
X1376Y1434D01*
X2Y1433D02*
X5Y1433D01*
X1373Y1433D02*
X1376Y1433D01*
X2Y1432D02*
X5Y1432D01*
X1373Y1432D02*
X1376Y1432D01*
X2Y1431D02*
X5Y1431D01*
X1373Y1431D02*
X1376Y1431D01*
X2Y1430D02*
X5Y1430D01*
X1373Y1430D02*
X1376Y1430D01*
X2Y1429D02*
X5Y1429D01*
X1373Y1429D02*
X1376Y1429D01*
X2Y1428D02*
X5Y1428D01*
X1373Y1428D02*
X1376Y1428D01*
X2Y1427D02*
X5Y1427D01*
X1373Y1427D02*
X1376Y1427D01*
X2Y1426D02*
X5Y1426D01*
X1373Y1426D02*
X1376Y1426D01*
X2Y1425D02*
X5Y1425D01*
X1373Y1425D02*
X1376Y1425D01*
X2Y1424D02*
X5Y1424D01*
X1373Y1424D02*
X1376Y1424D01*
X2Y1423D02*
X5Y1423D01*
X1373Y1423D02*
X1376Y1423D01*
X2Y1422D02*
X5Y1422D01*
X1373Y1422D02*
X1376Y1422D01*
X2Y1421D02*
X5Y1421D01*
X1373Y1421D02*
X1376Y1421D01*
X2Y1420D02*
X5Y1420D01*
X1373Y1420D02*
X1376Y1420D01*
X2Y1419D02*
X5Y1419D01*
X1373Y1419D02*
X1376Y1419D01*
X2Y1418D02*
X5Y1418D01*
X1373Y1418D02*
X1376Y1418D01*
X2Y1417D02*
X5Y1417D01*
X1373Y1417D02*
X1376Y1417D01*
X2Y1416D02*
X5Y1416D01*
X1373Y1416D02*
X1376Y1416D01*
X2Y1415D02*
X5Y1415D01*
X1373Y1415D02*
X1376Y1415D01*
X2Y1414D02*
X5Y1414D01*
X1373Y1414D02*
X1376Y1414D01*
X2Y1413D02*
X5Y1413D01*
X1373Y1413D02*
X1376Y1413D01*
X2Y1412D02*
X5Y1412D01*
X1373Y1412D02*
X1376Y1412D01*
X2Y1411D02*
X5Y1411D01*
X1373Y1411D02*
X1376Y1411D01*
X2Y1410D02*
X5Y1410D01*
X1373Y1410D02*
X1376Y1410D01*
X2Y1409D02*
X5Y1409D01*
X1373Y1409D02*
X1376Y1409D01*
X2Y1408D02*
X5Y1408D01*
X1373Y1408D02*
X1376Y1408D01*
X2Y1407D02*
X5Y1407D01*
X1373Y1407D02*
X1376Y1407D01*
X2Y1406D02*
X5Y1406D01*
X1373Y1406D02*
X1376Y1406D01*
X2Y1405D02*
X5Y1405D01*
X1373Y1405D02*
X1376Y1405D01*
X2Y1404D02*
X5Y1404D01*
X1373Y1404D02*
X1376Y1404D01*
X2Y1403D02*
X5Y1403D01*
X1373Y1403D02*
X1376Y1403D01*
X2Y1402D02*
X5Y1402D01*
X1373Y1402D02*
X1376Y1402D01*
X2Y1401D02*
X5Y1401D01*
X1373Y1401D02*
X1376Y1401D01*
X2Y1400D02*
X5Y1400D01*
X1373Y1400D02*
X1376Y1400D01*
X2Y1399D02*
X5Y1399D01*
X1373Y1399D02*
X1376Y1399D01*
X2Y1398D02*
X5Y1398D01*
X1373Y1398D02*
X1376Y1398D01*
X2Y1397D02*
X5Y1397D01*
X1373Y1397D02*
X1376Y1397D01*
X2Y1396D02*
X5Y1396D01*
X1373Y1396D02*
X1376Y1396D01*
X2Y1395D02*
X5Y1395D01*
X1373Y1395D02*
X1376Y1395D01*
X2Y1394D02*
X5Y1394D01*
X1373Y1394D02*
X1376Y1394D01*
X2Y1393D02*
X5Y1393D01*
X1373Y1393D02*
X1376Y1393D01*
X2Y1392D02*
X5Y1392D01*
X1373Y1392D02*
X1376Y1392D01*
X2Y1391D02*
X5Y1391D01*
X1373Y1391D02*
X1376Y1391D01*
X2Y1390D02*
X5Y1390D01*
X1373Y1390D02*
X1376Y1390D01*
X2Y1389D02*
X5Y1389D01*
X1373Y1389D02*
X1376Y1389D01*
X2Y1388D02*
X5Y1388D01*
X1373Y1388D02*
X1376Y1388D01*
X2Y1387D02*
X5Y1387D01*
X1373Y1387D02*
X1376Y1387D01*
X2Y1386D02*
X5Y1386D01*
X1373Y1386D02*
X1376Y1386D01*
X2Y1385D02*
X5Y1385D01*
X1373Y1385D02*
X1376Y1385D01*
X2Y1384D02*
X5Y1384D01*
X1373Y1384D02*
X1376Y1384D01*
X2Y1383D02*
X5Y1383D01*
X1373Y1383D02*
X1376Y1383D01*
X2Y1382D02*
X5Y1382D01*
X1373Y1382D02*
X1376Y1382D01*
X2Y1381D02*
X5Y1381D01*
X1373Y1381D02*
X1376Y1381D01*
X2Y1380D02*
X5Y1380D01*
X1373Y1380D02*
X1376Y1380D01*
X2Y1379D02*
X5Y1379D01*
X1373Y1379D02*
X1376Y1379D01*
X2Y1378D02*
X5Y1378D01*
X1373Y1378D02*
X1376Y1378D01*
X2Y1377D02*
X5Y1377D01*
X1373Y1377D02*
X1376Y1377D01*
X2Y1376D02*
X5Y1376D01*
X1373Y1376D02*
X1376Y1376D01*
X2Y1375D02*
X5Y1375D01*
X1373Y1375D02*
X1376Y1375D01*
X2Y1374D02*
X5Y1374D01*
X1373Y1374D02*
X1376Y1374D01*
X2Y1373D02*
X5Y1373D01*
X1373Y1373D02*
X1376Y1373D01*
X2Y1372D02*
X5Y1372D01*
X1373Y1372D02*
X1376Y1372D01*
X2Y1371D02*
X5Y1371D01*
X1373Y1371D02*
X1376Y1371D01*
X2Y1370D02*
X5Y1370D01*
X1373Y1370D02*
X1376Y1370D01*
X2Y1369D02*
X5Y1369D01*
X1373Y1369D02*
X1376Y1369D01*
X2Y1368D02*
X5Y1368D01*
X1373Y1368D02*
X1376Y1368D01*
X2Y1367D02*
X5Y1367D01*
X1373Y1367D02*
X1376Y1367D01*
X2Y1366D02*
X5Y1366D01*
X1373Y1366D02*
X1376Y1366D01*
X2Y1365D02*
X5Y1365D01*
X1373Y1365D02*
X1376Y1365D01*
X2Y1364D02*
X5Y1364D01*
X1373Y1364D02*
X1376Y1364D01*
X2Y1363D02*
X5Y1363D01*
X1373Y1363D02*
X1376Y1363D01*
X2Y1362D02*
X5Y1362D01*
X1373Y1362D02*
X1376Y1362D01*
X2Y1361D02*
X5Y1361D01*
X1373Y1361D02*
X1376Y1361D01*
X2Y1360D02*
X5Y1360D01*
X1373Y1360D02*
X1376Y1360D01*
X2Y1359D02*
X5Y1359D01*
X1373Y1359D02*
X1376Y1359D01*
X2Y1358D02*
X5Y1358D01*
X1373Y1358D02*
X1376Y1358D01*
X2Y1357D02*
X5Y1357D01*
X1373Y1357D02*
X1376Y1357D01*
X2Y1356D02*
X5Y1356D01*
X1373Y1356D02*
X1376Y1356D01*
X2Y1355D02*
X5Y1355D01*
X1373Y1355D02*
X1376Y1355D01*
X2Y1354D02*
X5Y1354D01*
X1373Y1354D02*
X1376Y1354D01*
X2Y1353D02*
X5Y1353D01*
X1373Y1353D02*
X1376Y1353D01*
X2Y1352D02*
X5Y1352D01*
X1373Y1352D02*
X1376Y1352D01*
X2Y1351D02*
X5Y1351D01*
X1373Y1351D02*
X1376Y1351D01*
X2Y1350D02*
X5Y1350D01*
X1373Y1350D02*
X1376Y1350D01*
X2Y1349D02*
X5Y1349D01*
X1373Y1349D02*
X1376Y1349D01*
X2Y1348D02*
X5Y1348D01*
X1373Y1348D02*
X1376Y1348D01*
X2Y1347D02*
X5Y1347D01*
X1373Y1347D02*
X1376Y1347D01*
X2Y1346D02*
X5Y1346D01*
X1373Y1346D02*
X1376Y1346D01*
X2Y1345D02*
X5Y1345D01*
X1373Y1345D02*
X1376Y1345D01*
X2Y1344D02*
X5Y1344D01*
X1373Y1344D02*
X1376Y1344D01*
X2Y1343D02*
X5Y1343D01*
X1373Y1343D02*
X1376Y1343D01*
X2Y1342D02*
X5Y1342D01*
X1373Y1342D02*
X1376Y1342D01*
X2Y1341D02*
X5Y1341D01*
X1373Y1341D02*
X1376Y1341D01*
X2Y1340D02*
X5Y1340D01*
X1373Y1340D02*
X1376Y1340D01*
X2Y1339D02*
X5Y1339D01*
X1373Y1339D02*
X1376Y1339D01*
X2Y1338D02*
X5Y1338D01*
X1373Y1338D02*
X1376Y1338D01*
X2Y1337D02*
X5Y1337D01*
X1373Y1337D02*
X1376Y1337D01*
X2Y1336D02*
X5Y1336D01*
X1373Y1336D02*
X1376Y1336D01*
X2Y1335D02*
X5Y1335D01*
X1373Y1335D02*
X1376Y1335D01*
X2Y1334D02*
X5Y1334D01*
X1373Y1334D02*
X1376Y1334D01*
X2Y1333D02*
X5Y1333D01*
X1373Y1333D02*
X1376Y1333D01*
X2Y1332D02*
X5Y1332D01*
X1373Y1332D02*
X1376Y1332D01*
X2Y1331D02*
X5Y1331D01*
X1373Y1331D02*
X1376Y1331D01*
X2Y1330D02*
X5Y1330D01*
X1373Y1330D02*
X1376Y1330D01*
X2Y1329D02*
X5Y1329D01*
X1373Y1329D02*
X1376Y1329D01*
X2Y1328D02*
X5Y1328D01*
X1373Y1328D02*
X1376Y1328D01*
X2Y1327D02*
X5Y1327D01*
X1373Y1327D02*
X1376Y1327D01*
X2Y1326D02*
X5Y1326D01*
X1373Y1326D02*
X1376Y1326D01*
X2Y1325D02*
X5Y1325D01*
X1373Y1325D02*
X1376Y1325D01*
X2Y1324D02*
X5Y1324D01*
X1373Y1324D02*
X1376Y1324D01*
X2Y1323D02*
X5Y1323D01*
X1373Y1323D02*
X1376Y1323D01*
X2Y1322D02*
X5Y1322D01*
X1373Y1322D02*
X1376Y1322D01*
X2Y1321D02*
X5Y1321D01*
X1373Y1321D02*
X1376Y1321D01*
X2Y1320D02*
X5Y1320D01*
X1373Y1320D02*
X1376Y1320D01*
X2Y1319D02*
X5Y1319D01*
X1373Y1319D02*
X1376Y1319D01*
X2Y1318D02*
X5Y1318D01*
X1373Y1318D02*
X1376Y1318D01*
X2Y1317D02*
X5Y1317D01*
X1373Y1317D02*
X1376Y1317D01*
X2Y1316D02*
X5Y1316D01*
X1373Y1316D02*
X1376Y1316D01*
X2Y1315D02*
X5Y1315D01*
X1373Y1315D02*
X1376Y1315D01*
X2Y1314D02*
X5Y1314D01*
X1373Y1314D02*
X1376Y1314D01*
X2Y1313D02*
X5Y1313D01*
X1373Y1313D02*
X1376Y1313D01*
X2Y1312D02*
X5Y1312D01*
X1373Y1312D02*
X1376Y1312D01*
X2Y1311D02*
X5Y1311D01*
X1373Y1311D02*
X1376Y1311D01*
X2Y1310D02*
X5Y1310D01*
X1373Y1310D02*
X1376Y1310D01*
X2Y1309D02*
X5Y1309D01*
X1373Y1309D02*
X1376Y1309D01*
X2Y1308D02*
X5Y1308D01*
X1373Y1308D02*
X1376Y1308D01*
X2Y1307D02*
X5Y1307D01*
X1373Y1307D02*
X1376Y1307D01*
X2Y1306D02*
X5Y1306D01*
X1373Y1306D02*
X1376Y1306D01*
X2Y1305D02*
X5Y1305D01*
X1373Y1305D02*
X1376Y1305D01*
X2Y1304D02*
X5Y1304D01*
X1373Y1304D02*
X1376Y1304D01*
X2Y1303D02*
X5Y1303D01*
X1373Y1303D02*
X1376Y1303D01*
X2Y1302D02*
X5Y1302D01*
X1373Y1302D02*
X1376Y1302D01*
X2Y1301D02*
X5Y1301D01*
X1373Y1301D02*
X1376Y1301D01*
X2Y1300D02*
X5Y1300D01*
X1373Y1300D02*
X1376Y1300D01*
X2Y1299D02*
X5Y1299D01*
X1373Y1299D02*
X1376Y1299D01*
X2Y1298D02*
X5Y1298D01*
X1373Y1298D02*
X1376Y1298D01*
X2Y1297D02*
X5Y1297D01*
X1373Y1297D02*
X1376Y1297D01*
X2Y1296D02*
X5Y1296D01*
X1373Y1296D02*
X1376Y1296D01*
X2Y1295D02*
X5Y1295D01*
X1373Y1295D02*
X1376Y1295D01*
X2Y1294D02*
X5Y1294D01*
X1373Y1294D02*
X1376Y1294D01*
X2Y1293D02*
X5Y1293D01*
X1373Y1293D02*
X1376Y1293D01*
X2Y1292D02*
X5Y1292D01*
X1373Y1292D02*
X1376Y1292D01*
X2Y1291D02*
X5Y1291D01*
X1373Y1291D02*
X1376Y1291D01*
X2Y1290D02*
X5Y1290D01*
X1373Y1290D02*
X1376Y1290D01*
X2Y1289D02*
X5Y1289D01*
X1373Y1289D02*
X1376Y1289D01*
X2Y1288D02*
X5Y1288D01*
X1373Y1288D02*
X1376Y1288D01*
X2Y1287D02*
X5Y1287D01*
X1373Y1287D02*
X1376Y1287D01*
X2Y1286D02*
X5Y1286D01*
X1373Y1286D02*
X1376Y1286D01*
X2Y1285D02*
X5Y1285D01*
X1373Y1285D02*
X1376Y1285D01*
X2Y1284D02*
X5Y1284D01*
X1373Y1284D02*
X1376Y1284D01*
X2Y1283D02*
X5Y1283D01*
X1373Y1283D02*
X1376Y1283D01*
X2Y1282D02*
X5Y1282D01*
X1373Y1282D02*
X1376Y1282D01*
X2Y1281D02*
X5Y1281D01*
X1373Y1281D02*
X1376Y1281D01*
X2Y1280D02*
X5Y1280D01*
X1373Y1280D02*
X1376Y1280D01*
X2Y1279D02*
X5Y1279D01*
X1373Y1279D02*
X1376Y1279D01*
X2Y1278D02*
X5Y1278D01*
X1373Y1278D02*
X1376Y1278D01*
X2Y1277D02*
X5Y1277D01*
X1373Y1277D02*
X1376Y1277D01*
X2Y1276D02*
X5Y1276D01*
X1373Y1276D02*
X1376Y1276D01*
X2Y1275D02*
X5Y1275D01*
X1373Y1275D02*
X1376Y1275D01*
X2Y1274D02*
X5Y1274D01*
X1373Y1274D02*
X1376Y1274D01*
X2Y1273D02*
X5Y1273D01*
X1373Y1273D02*
X1376Y1273D01*
X2Y1272D02*
X5Y1272D01*
X1373Y1272D02*
X1376Y1272D01*
X2Y1271D02*
X5Y1271D01*
X1373Y1271D02*
X1376Y1271D01*
X2Y1270D02*
X5Y1270D01*
X1373Y1270D02*
X1376Y1270D01*
X2Y1269D02*
X5Y1269D01*
X1373Y1269D02*
X1376Y1269D01*
X2Y1268D02*
X5Y1268D01*
X1373Y1268D02*
X1376Y1268D01*
X2Y1267D02*
X5Y1267D01*
X1373Y1267D02*
X1376Y1267D01*
X2Y1266D02*
X5Y1266D01*
X1373Y1266D02*
X1376Y1266D01*
X2Y1265D02*
X5Y1265D01*
X1373Y1265D02*
X1376Y1265D01*
X2Y1264D02*
X5Y1264D01*
X1373Y1264D02*
X1376Y1264D01*
X2Y1263D02*
X5Y1263D01*
X1373Y1263D02*
X1376Y1263D01*
X2Y1262D02*
X5Y1262D01*
X1373Y1262D02*
X1376Y1262D01*
X2Y1261D02*
X5Y1261D01*
X1373Y1261D02*
X1376Y1261D01*
X2Y1260D02*
X5Y1260D01*
X1373Y1260D02*
X1376Y1260D01*
X2Y1259D02*
X5Y1259D01*
X1373Y1259D02*
X1376Y1259D01*
X2Y1258D02*
X5Y1258D01*
X1373Y1258D02*
X1376Y1258D01*
X2Y1257D02*
X5Y1257D01*
X1373Y1257D02*
X1376Y1257D01*
X2Y1256D02*
X5Y1256D01*
X1373Y1256D02*
X1376Y1256D01*
X2Y1255D02*
X5Y1255D01*
X1373Y1255D02*
X1376Y1255D01*
X2Y1254D02*
X5Y1254D01*
X1373Y1254D02*
X1376Y1254D01*
X2Y1253D02*
X5Y1253D01*
X1373Y1253D02*
X1376Y1253D01*
X2Y1252D02*
X5Y1252D01*
X1373Y1252D02*
X1376Y1252D01*
X2Y1251D02*
X5Y1251D01*
X1373Y1251D02*
X1376Y1251D01*
X2Y1250D02*
X5Y1250D01*
X1373Y1250D02*
X1376Y1250D01*
X2Y1249D02*
X5Y1249D01*
X1373Y1249D02*
X1376Y1249D01*
X2Y1248D02*
X5Y1248D01*
X1373Y1248D02*
X1376Y1248D01*
X2Y1247D02*
X5Y1247D01*
X1373Y1247D02*
X1376Y1247D01*
X2Y1246D02*
X5Y1246D01*
X1373Y1246D02*
X1376Y1246D01*
X2Y1245D02*
X5Y1245D01*
X1373Y1245D02*
X1376Y1245D01*
X2Y1244D02*
X5Y1244D01*
X1373Y1244D02*
X1376Y1244D01*
X2Y1243D02*
X5Y1243D01*
X1373Y1243D02*
X1376Y1243D01*
X2Y1242D02*
X5Y1242D01*
X1373Y1242D02*
X1376Y1242D01*
X2Y1241D02*
X5Y1241D01*
X1373Y1241D02*
X1376Y1241D01*
X2Y1240D02*
X5Y1240D01*
X1373Y1240D02*
X1376Y1240D01*
X2Y1239D02*
X5Y1239D01*
X1373Y1239D02*
X1376Y1239D01*
X2Y1238D02*
X5Y1238D01*
X1373Y1238D02*
X1376Y1238D01*
X2Y1237D02*
X5Y1237D01*
X1373Y1237D02*
X1376Y1237D01*
X2Y1236D02*
X5Y1236D01*
X1373Y1236D02*
X1376Y1236D01*
X2Y1235D02*
X5Y1235D01*
X1373Y1235D02*
X1376Y1235D01*
X2Y1234D02*
X5Y1234D01*
X1373Y1234D02*
X1376Y1234D01*
X2Y1233D02*
X5Y1233D01*
X1373Y1233D02*
X1376Y1233D01*
X2Y1232D02*
X5Y1232D01*
X1373Y1232D02*
X1376Y1232D01*
X2Y1231D02*
X5Y1231D01*
X1373Y1231D02*
X1376Y1231D01*
X2Y1230D02*
X5Y1230D01*
X1373Y1230D02*
X1376Y1230D01*
X2Y1229D02*
X5Y1229D01*
X1373Y1229D02*
X1376Y1229D01*
X2Y1228D02*
X5Y1228D01*
X1373Y1228D02*
X1376Y1228D01*
X2Y1227D02*
X5Y1227D01*
X1373Y1227D02*
X1376Y1227D01*
X2Y1226D02*
X5Y1226D01*
X1373Y1226D02*
X1376Y1226D01*
X2Y1225D02*
X5Y1225D01*
X1373Y1225D02*
X1376Y1225D01*
X2Y1224D02*
X5Y1224D01*
X1373Y1224D02*
X1376Y1224D01*
X2Y1223D02*
X5Y1223D01*
X1373Y1223D02*
X1376Y1223D01*
X2Y1222D02*
X5Y1222D01*
X1373Y1222D02*
X1376Y1222D01*
X2Y1221D02*
X5Y1221D01*
X1373Y1221D02*
X1376Y1221D01*
X2Y1220D02*
X5Y1220D01*
X1373Y1220D02*
X1376Y1220D01*
X2Y1219D02*
X5Y1219D01*
X1373Y1219D02*
X1376Y1219D01*
X2Y1218D02*
X5Y1218D01*
X1373Y1218D02*
X1376Y1218D01*
X2Y1217D02*
X5Y1217D01*
X1373Y1217D02*
X1376Y1217D01*
X2Y1216D02*
X5Y1216D01*
X1373Y1216D02*
X1376Y1216D01*
X2Y1215D02*
X5Y1215D01*
X1373Y1215D02*
X1376Y1215D01*
X2Y1214D02*
X5Y1214D01*
X1373Y1214D02*
X1376Y1214D01*
X2Y1213D02*
X5Y1213D01*
X1373Y1213D02*
X1376Y1213D01*
X2Y1212D02*
X5Y1212D01*
X1373Y1212D02*
X1376Y1212D01*
X2Y1211D02*
X5Y1211D01*
X1373Y1211D02*
X1376Y1211D01*
X2Y1210D02*
X5Y1210D01*
X1373Y1210D02*
X1376Y1210D01*
X2Y1209D02*
X5Y1209D01*
X1373Y1209D02*
X1376Y1209D01*
X2Y1208D02*
X5Y1208D01*
X1373Y1208D02*
X1376Y1208D01*
X2Y1207D02*
X5Y1207D01*
X1373Y1207D02*
X1376Y1207D01*
X2Y1206D02*
X5Y1206D01*
X1373Y1206D02*
X1376Y1206D01*
X2Y1205D02*
X5Y1205D01*
X1373Y1205D02*
X1376Y1205D01*
X2Y1204D02*
X5Y1204D01*
X1373Y1204D02*
X1376Y1204D01*
X2Y1203D02*
X5Y1203D01*
X1373Y1203D02*
X1376Y1203D01*
X2Y1202D02*
X5Y1202D01*
X1373Y1202D02*
X1376Y1202D01*
X2Y1201D02*
X5Y1201D01*
X1373Y1201D02*
X1376Y1201D01*
X2Y1200D02*
X5Y1200D01*
X1373Y1200D02*
X1376Y1200D01*
X2Y1199D02*
X5Y1199D01*
X1373Y1199D02*
X1376Y1199D01*
X2Y1198D02*
X5Y1198D01*
X1373Y1198D02*
X1376Y1198D01*
X2Y1197D02*
X5Y1197D01*
X1373Y1197D02*
X1376Y1197D01*
X2Y1196D02*
X5Y1196D01*
X1373Y1196D02*
X1376Y1196D01*
X2Y1195D02*
X5Y1195D01*
X1373Y1195D02*
X1376Y1195D01*
X2Y1194D02*
X5Y1194D01*
X1373Y1194D02*
X1376Y1194D01*
X2Y1193D02*
X5Y1193D01*
X1373Y1193D02*
X1376Y1193D01*
X2Y1192D02*
X5Y1192D01*
X1373Y1192D02*
X1376Y1192D01*
X2Y1191D02*
X5Y1191D01*
X1373Y1191D02*
X1376Y1191D01*
X2Y1190D02*
X5Y1190D01*
X1373Y1190D02*
X1376Y1190D01*
X2Y1189D02*
X5Y1189D01*
X1373Y1189D02*
X1376Y1189D01*
X2Y1188D02*
X5Y1188D01*
X1373Y1188D02*
X1376Y1188D01*
X2Y1187D02*
X5Y1187D01*
X1373Y1187D02*
X1376Y1187D01*
X2Y1186D02*
X5Y1186D01*
X1373Y1186D02*
X1376Y1186D01*
X2Y1185D02*
X5Y1185D01*
X1373Y1185D02*
X1376Y1185D01*
X2Y1184D02*
X5Y1184D01*
X1373Y1184D02*
X1376Y1184D01*
X2Y1183D02*
X5Y1183D01*
X1373Y1183D02*
X1376Y1183D01*
X2Y1182D02*
X5Y1182D01*
X1373Y1182D02*
X1376Y1182D01*
X2Y1181D02*
X5Y1181D01*
X1373Y1181D02*
X1376Y1181D01*
X1Y1180D02*
X1376Y1180D01*
X1Y1179D02*
X1376Y1179D01*
X1Y1178D02*
X1376Y1178D01*
X1Y1177D02*
X1376Y1177D01*
X1Y1176D02*
X5Y1176D01*
X1373Y1176D02*
X1376Y1176D01*
X1Y1175D02*
X5Y1175D01*
X1373Y1175D02*
X1376Y1175D01*
X1Y1174D02*
X5Y1174D01*
X1373Y1174D02*
X1376Y1174D01*
X1Y1173D02*
X5Y1173D01*
X1373Y1173D02*
X1376Y1173D01*
X1Y1172D02*
X5Y1172D01*
X1373Y1172D02*
X1376Y1172D01*
X1Y1171D02*
X5Y1171D01*
X1373Y1171D02*
X1376Y1171D01*
X1Y1170D02*
X5Y1170D01*
X1373Y1170D02*
X1376Y1170D01*
X1Y1169D02*
X5Y1169D01*
X1373Y1169D02*
X1376Y1169D01*
X1Y1168D02*
X5Y1168D01*
X1373Y1168D02*
X1376Y1168D01*
X1Y1167D02*
X5Y1167D01*
X1373Y1167D02*
X1376Y1167D01*
X1Y1166D02*
X5Y1166D01*
X1373Y1166D02*
X1376Y1166D01*
X1Y1165D02*
X5Y1165D01*
X1373Y1165D02*
X1376Y1165D01*
X1Y1164D02*
X5Y1164D01*
X1373Y1164D02*
X1376Y1164D01*
X1Y1163D02*
X5Y1163D01*
X1373Y1163D02*
X1376Y1163D01*
X1Y1162D02*
X5Y1162D01*
X1373Y1162D02*
X1376Y1162D01*
X1Y1161D02*
X5Y1161D01*
X1373Y1161D02*
X1376Y1161D01*
X1Y1160D02*
X5Y1160D01*
X1373Y1160D02*
X1376Y1160D01*
X1Y1159D02*
X5Y1159D01*
X1373Y1159D02*
X1376Y1159D01*
X1Y1158D02*
X5Y1158D01*
X1373Y1158D02*
X1376Y1158D01*
X1Y1157D02*
X5Y1157D01*
X1373Y1157D02*
X1376Y1157D01*
X1Y1156D02*
X5Y1156D01*
X1373Y1156D02*
X1376Y1156D01*
X1Y1155D02*
X5Y1155D01*
X1373Y1155D02*
X1376Y1155D01*
X1Y1154D02*
X5Y1154D01*
X1373Y1154D02*
X1376Y1154D01*
X1Y1153D02*
X5Y1153D01*
X1373Y1153D02*
X1376Y1153D01*
X1Y1152D02*
X5Y1152D01*
X1373Y1152D02*
X1376Y1152D01*
X1Y1151D02*
X5Y1151D01*
X1373Y1151D02*
X1376Y1151D01*
X1Y1150D02*
X5Y1150D01*
X1373Y1150D02*
X1376Y1150D01*
X1Y1149D02*
X5Y1149D01*
X1373Y1149D02*
X1376Y1149D01*
X1Y1148D02*
X5Y1148D01*
X1373Y1148D02*
X1376Y1148D01*
X1Y1147D02*
X5Y1147D01*
X1373Y1147D02*
X1376Y1147D01*
X1Y1146D02*
X5Y1146D01*
X1373Y1146D02*
X1376Y1146D01*
X1Y1145D02*
X5Y1145D01*
X1373Y1145D02*
X1376Y1145D01*
X1Y1144D02*
X5Y1144D01*
X1373Y1144D02*
X1376Y1144D01*
X1Y1143D02*
X5Y1143D01*
X1373Y1143D02*
X1376Y1143D01*
X1Y1142D02*
X5Y1142D01*
X1373Y1142D02*
X1376Y1142D01*
X1Y1141D02*
X5Y1141D01*
X1373Y1141D02*
X1376Y1141D01*
X1Y1140D02*
X5Y1140D01*
X1373Y1140D02*
X1376Y1140D01*
X1Y1139D02*
X5Y1139D01*
X1373Y1139D02*
X1376Y1139D01*
X1Y1138D02*
X5Y1138D01*
X1373Y1138D02*
X1376Y1138D01*
X1Y1137D02*
X5Y1137D01*
X1373Y1137D02*
X1376Y1137D01*
X1Y1136D02*
X5Y1136D01*
X1373Y1136D02*
X1376Y1136D01*
X1Y1135D02*
X5Y1135D01*
X1373Y1135D02*
X1376Y1135D01*
X1Y1134D02*
X5Y1134D01*
X1373Y1134D02*
X1376Y1134D01*
X1Y1133D02*
X5Y1133D01*
X1373Y1133D02*
X1376Y1133D01*
X1Y1132D02*
X5Y1132D01*
X1373Y1132D02*
X1376Y1132D01*
X1Y1131D02*
X5Y1131D01*
X1373Y1131D02*
X1376Y1131D01*
X1Y1130D02*
X5Y1130D01*
X1373Y1130D02*
X1376Y1130D01*
X1Y1129D02*
X5Y1129D01*
X1373Y1129D02*
X1376Y1129D01*
X1Y1128D02*
X5Y1128D01*
X1373Y1128D02*
X1376Y1128D01*
X1Y1127D02*
X5Y1127D01*
X1373Y1127D02*
X1376Y1127D01*
X1Y1126D02*
X5Y1126D01*
X1373Y1126D02*
X1376Y1126D01*
X1Y1125D02*
X5Y1125D01*
X1373Y1125D02*
X1376Y1125D01*
X1Y1124D02*
X5Y1124D01*
X1373Y1124D02*
X1376Y1124D01*
X1Y1123D02*
X5Y1123D01*
X1373Y1123D02*
X1376Y1123D01*
X1Y1122D02*
X5Y1122D01*
X1373Y1122D02*
X1376Y1122D01*
X1Y1121D02*
X5Y1121D01*
X1373Y1121D02*
X1376Y1121D01*
X1Y1120D02*
X5Y1120D01*
X1373Y1120D02*
X1376Y1120D01*
X1Y1119D02*
X5Y1119D01*
X1373Y1119D02*
X1376Y1119D01*
X1Y1118D02*
X5Y1118D01*
X1373Y1118D02*
X1376Y1118D01*
X1Y1117D02*
X5Y1117D01*
X1373Y1117D02*
X1376Y1117D01*
X1Y1116D02*
X5Y1116D01*
X1373Y1116D02*
X1376Y1116D01*
X1Y1115D02*
X5Y1115D01*
X1373Y1115D02*
X1376Y1115D01*
X1Y1114D02*
X5Y1114D01*
X1373Y1114D02*
X1376Y1114D01*
X1Y1113D02*
X5Y1113D01*
X1373Y1113D02*
X1376Y1113D01*
X1Y1112D02*
X5Y1112D01*
X1373Y1112D02*
X1376Y1112D01*
X1Y1111D02*
X5Y1111D01*
X1373Y1111D02*
X1376Y1111D01*
X1Y1110D02*
X5Y1110D01*
X1373Y1110D02*
X1376Y1110D01*
X1Y1109D02*
X5Y1109D01*
X1373Y1109D02*
X1376Y1109D01*
X1Y1108D02*
X5Y1108D01*
X1373Y1108D02*
X1376Y1108D01*
X1Y1107D02*
X5Y1107D01*
X1373Y1107D02*
X1376Y1107D01*
X1Y1106D02*
X5Y1106D01*
X1373Y1106D02*
X1376Y1106D01*
X1Y1105D02*
X5Y1105D01*
X1373Y1105D02*
X1376Y1105D01*
X1Y1104D02*
X5Y1104D01*
X1373Y1104D02*
X1376Y1104D01*
X1Y1103D02*
X5Y1103D01*
X1373Y1103D02*
X1376Y1103D01*
X1Y1102D02*
X5Y1102D01*
X1373Y1102D02*
X1376Y1102D01*
X1Y1101D02*
X5Y1101D01*
X1373Y1101D02*
X1376Y1101D01*
X1Y1100D02*
X5Y1100D01*
X1373Y1100D02*
X1376Y1100D01*
X1Y1099D02*
X5Y1099D01*
X1373Y1099D02*
X1376Y1099D01*
X1Y1098D02*
X5Y1098D01*
X1373Y1098D02*
X1376Y1098D01*
X1Y1097D02*
X5Y1097D01*
X1373Y1097D02*
X1376Y1097D01*
X1Y1096D02*
X5Y1096D01*
X1373Y1096D02*
X1376Y1096D01*
X1Y1095D02*
X5Y1095D01*
X1373Y1095D02*
X1376Y1095D01*
X1Y1094D02*
X5Y1094D01*
X1373Y1094D02*
X1376Y1094D01*
X1Y1093D02*
X5Y1093D01*
X1373Y1093D02*
X1376Y1093D01*
X1Y1092D02*
X5Y1092D01*
X1373Y1092D02*
X1376Y1092D01*
X1Y1091D02*
X5Y1091D01*
X1373Y1091D02*
X1376Y1091D01*
X1Y1090D02*
X5Y1090D01*
X1373Y1090D02*
X1376Y1090D01*
X1Y1089D02*
X5Y1089D01*
X1373Y1089D02*
X1376Y1089D01*
X1Y1088D02*
X5Y1088D01*
X1373Y1088D02*
X1376Y1088D01*
X1Y1087D02*
X5Y1087D01*
X1373Y1087D02*
X1376Y1087D01*
X1Y1086D02*
X5Y1086D01*
X1373Y1086D02*
X1376Y1086D01*
X1Y1085D02*
X5Y1085D01*
X1373Y1085D02*
X1376Y1085D01*
X1Y1084D02*
X5Y1084D01*
X1373Y1084D02*
X1376Y1084D01*
X1Y1083D02*
X5Y1083D01*
X1373Y1083D02*
X1376Y1083D01*
X1Y1082D02*
X5Y1082D01*
X1373Y1082D02*
X1376Y1082D01*
X1Y1081D02*
X5Y1081D01*
X1373Y1081D02*
X1376Y1081D01*
X1Y1080D02*
X5Y1080D01*
X1373Y1080D02*
X1376Y1080D01*
X1Y1079D02*
X5Y1079D01*
X1373Y1079D02*
X1376Y1079D01*
X1Y1078D02*
X5Y1078D01*
X1373Y1078D02*
X1376Y1078D01*
X1Y1077D02*
X5Y1077D01*
X1373Y1077D02*
X1376Y1077D01*
X1Y1076D02*
X5Y1076D01*
X1373Y1076D02*
X1376Y1076D01*
X1Y1075D02*
X5Y1075D01*
X1373Y1075D02*
X1376Y1075D01*
X1Y1074D02*
X5Y1074D01*
X1373Y1074D02*
X1376Y1074D01*
X1Y1073D02*
X5Y1073D01*
X1373Y1073D02*
X1376Y1073D01*
X1Y1072D02*
X5Y1072D01*
X1373Y1072D02*
X1376Y1072D01*
X1Y1071D02*
X5Y1071D01*
X1373Y1071D02*
X1376Y1071D01*
X1Y1070D02*
X5Y1070D01*
X1373Y1070D02*
X1376Y1070D01*
X1Y1069D02*
X5Y1069D01*
X1373Y1069D02*
X1376Y1069D01*
X1Y1068D02*
X5Y1068D01*
X1373Y1068D02*
X1376Y1068D01*
X1Y1067D02*
X5Y1067D01*
X1373Y1067D02*
X1376Y1067D01*
X1Y1066D02*
X5Y1066D01*
X1373Y1066D02*
X1376Y1066D01*
X1Y1065D02*
X5Y1065D01*
X1373Y1065D02*
X1376Y1065D01*
X1Y1064D02*
X5Y1064D01*
X1373Y1064D02*
X1376Y1064D01*
X1Y1063D02*
X5Y1063D01*
X1373Y1063D02*
X1376Y1063D01*
X1Y1062D02*
X5Y1062D01*
X1373Y1062D02*
X1376Y1062D01*
X1Y1061D02*
X5Y1061D01*
X1373Y1061D02*
X1376Y1061D01*
X1Y1060D02*
X5Y1060D01*
X1373Y1060D02*
X1376Y1060D01*
X1Y1059D02*
X5Y1059D01*
X1373Y1059D02*
X1376Y1059D01*
X1Y1058D02*
X5Y1058D01*
X1373Y1058D02*
X1376Y1058D01*
X1Y1057D02*
X5Y1057D01*
X1373Y1057D02*
X1376Y1057D01*
X1Y1056D02*
X5Y1056D01*
X1373Y1056D02*
X1376Y1056D01*
X1Y1055D02*
X5Y1055D01*
X1373Y1055D02*
X1376Y1055D01*
X1Y1054D02*
X5Y1054D01*
X1373Y1054D02*
X1376Y1054D01*
X1Y1053D02*
X5Y1053D01*
X1373Y1053D02*
X1376Y1053D01*
X1Y1052D02*
X5Y1052D01*
X1373Y1052D02*
X1376Y1052D01*
X1Y1051D02*
X5Y1051D01*
X1373Y1051D02*
X1376Y1051D01*
X1Y1050D02*
X5Y1050D01*
X1373Y1050D02*
X1376Y1050D01*
X1Y1049D02*
X5Y1049D01*
X1373Y1049D02*
X1376Y1049D01*
X1Y1048D02*
X5Y1048D01*
X1373Y1048D02*
X1376Y1048D01*
X1Y1047D02*
X5Y1047D01*
X1373Y1047D02*
X1376Y1047D01*
X1Y1046D02*
X5Y1046D01*
X1373Y1046D02*
X1376Y1046D01*
X1Y1045D02*
X5Y1045D01*
X1373Y1045D02*
X1376Y1045D01*
X1Y1044D02*
X5Y1044D01*
X1373Y1044D02*
X1376Y1044D01*
X1Y1043D02*
X5Y1043D01*
X1373Y1043D02*
X1376Y1043D01*
X1Y1042D02*
X5Y1042D01*
X1373Y1042D02*
X1376Y1042D01*
X1Y1041D02*
X5Y1041D01*
X1373Y1041D02*
X1376Y1041D01*
X1Y1040D02*
X5Y1040D01*
X1373Y1040D02*
X1376Y1040D01*
X1Y1039D02*
X5Y1039D01*
X1373Y1039D02*
X1376Y1039D01*
X1Y1038D02*
X5Y1038D01*
X1373Y1038D02*
X1376Y1038D01*
X1Y1037D02*
X5Y1037D01*
X1373Y1037D02*
X1376Y1037D01*
X1Y1036D02*
X5Y1036D01*
X1373Y1036D02*
X1376Y1036D01*
X1Y1035D02*
X5Y1035D01*
X1373Y1035D02*
X1376Y1035D01*
X1Y1034D02*
X5Y1034D01*
X1373Y1034D02*
X1376Y1034D01*
X1Y1033D02*
X5Y1033D01*
X1373Y1033D02*
X1376Y1033D01*
X1Y1032D02*
X5Y1032D01*
X1373Y1032D02*
X1376Y1032D01*
X1Y1031D02*
X5Y1031D01*
X1373Y1031D02*
X1376Y1031D01*
X1Y1030D02*
X5Y1030D01*
X1373Y1030D02*
X1376Y1030D01*
X1Y1029D02*
X5Y1029D01*
X1373Y1029D02*
X1376Y1029D01*
X1Y1028D02*
X5Y1028D01*
X1373Y1028D02*
X1376Y1028D01*
X1Y1027D02*
X5Y1027D01*
X1373Y1027D02*
X1376Y1027D01*
X1Y1026D02*
X5Y1026D01*
X1373Y1026D02*
X1376Y1026D01*
X1Y1025D02*
X5Y1025D01*
X1373Y1025D02*
X1376Y1025D01*
X1Y1024D02*
X5Y1024D01*
X1373Y1024D02*
X1376Y1024D01*
X1Y1023D02*
X5Y1023D01*
X1373Y1023D02*
X1376Y1023D01*
X1Y1022D02*
X5Y1022D01*
X1373Y1022D02*
X1376Y1022D01*
X1Y1021D02*
X5Y1021D01*
X1373Y1021D02*
X1376Y1021D01*
X1Y1020D02*
X5Y1020D01*
X1373Y1020D02*
X1376Y1020D01*
X1Y1019D02*
X5Y1019D01*
X1373Y1019D02*
X1376Y1019D01*
X1Y1018D02*
X5Y1018D01*
X1373Y1018D02*
X1376Y1018D01*
X1Y1017D02*
X5Y1017D01*
X1373Y1017D02*
X1376Y1017D01*
X1Y1016D02*
X5Y1016D01*
X1373Y1016D02*
X1376Y1016D01*
X1Y1015D02*
X5Y1015D01*
X1373Y1015D02*
X1376Y1015D01*
X1Y1014D02*
X5Y1014D01*
X1373Y1014D02*
X1376Y1014D01*
X1Y1013D02*
X5Y1013D01*
X1373Y1013D02*
X1376Y1013D01*
X1Y1012D02*
X5Y1012D01*
X1373Y1012D02*
X1376Y1012D01*
X1Y1011D02*
X5Y1011D01*
X1373Y1011D02*
X1376Y1011D01*
X1Y1010D02*
X5Y1010D01*
X1373Y1010D02*
X1376Y1010D01*
X1Y1009D02*
X5Y1009D01*
X1373Y1009D02*
X1376Y1009D01*
X1Y1008D02*
X5Y1008D01*
X1373Y1008D02*
X1376Y1008D01*
X1Y1007D02*
X5Y1007D01*
X1373Y1007D02*
X1376Y1007D01*
X1Y1006D02*
X5Y1006D01*
X1373Y1006D02*
X1376Y1006D01*
X1Y1005D02*
X5Y1005D01*
X1373Y1005D02*
X1376Y1005D01*
X1Y1004D02*
X5Y1004D01*
X1373Y1004D02*
X1376Y1004D01*
X1Y1003D02*
X5Y1003D01*
X1373Y1003D02*
X1376Y1003D01*
X1Y1002D02*
X5Y1002D01*
X1373Y1002D02*
X1376Y1002D01*
X1Y1001D02*
X5Y1001D01*
X1373Y1001D02*
X1376Y1001D01*
X1Y1000D02*
X5Y1000D01*
X1373Y1000D02*
X1376Y1000D01*
X1Y999D02*
X5Y999D01*
X1373Y999D02*
X1376Y999D01*
X1Y998D02*
X5Y998D01*
X1373Y998D02*
X1376Y998D01*
X1Y997D02*
X5Y997D01*
X1373Y997D02*
X1376Y997D01*
X1Y996D02*
X4Y996D01*
X1373Y996D02*
X1376Y996D01*
X1Y995D02*
X4Y995D01*
X1373Y995D02*
X1376Y995D01*
X1Y994D02*
X4Y994D01*
X1373Y994D02*
X1376Y994D01*
X1Y993D02*
X4Y993D01*
X1373Y993D02*
X1376Y993D01*
X1Y992D02*
X4Y992D01*
X1373Y992D02*
X1376Y992D01*
X1Y991D02*
X4Y991D01*
X1373Y991D02*
X1376Y991D01*
X1Y990D02*
X4Y990D01*
X1373Y990D02*
X1376Y990D01*
X1Y989D02*
X4Y989D01*
X1373Y989D02*
X1376Y989D01*
X1Y988D02*
X4Y988D01*
X1373Y988D02*
X1376Y988D01*
X1Y987D02*
X4Y987D01*
X1373Y987D02*
X1376Y987D01*
X1Y986D02*
X4Y986D01*
X1373Y986D02*
X1376Y986D01*
X1Y985D02*
X4Y985D01*
X1373Y985D02*
X1376Y985D01*
X1Y984D02*
X4Y984D01*
X1373Y984D02*
X1376Y984D01*
X1Y983D02*
X4Y983D01*
X1373Y983D02*
X1376Y983D01*
X1Y982D02*
X4Y982D01*
X1373Y982D02*
X1376Y982D01*
X1Y981D02*
X4Y981D01*
X1373Y981D02*
X1376Y981D01*
X1Y980D02*
X4Y980D01*
X1373Y980D02*
X1376Y980D01*
X1Y979D02*
X4Y979D01*
X1373Y979D02*
X1376Y979D01*
X1Y978D02*
X4Y978D01*
X1373Y978D02*
X1376Y978D01*
X1Y977D02*
X4Y977D01*
X1373Y977D02*
X1376Y977D01*
X1Y976D02*
X4Y976D01*
X1373Y976D02*
X1376Y976D01*
X1Y975D02*
X4Y975D01*
X1373Y975D02*
X1376Y975D01*
X1Y974D02*
X4Y974D01*
X1373Y974D02*
X1376Y974D01*
X1Y973D02*
X4Y973D01*
X1373Y973D02*
X1376Y973D01*
X1Y972D02*
X4Y972D01*
X1373Y972D02*
X1376Y972D01*
X1Y971D02*
X4Y971D01*
X1373Y971D02*
X1376Y971D01*
X1Y970D02*
X4Y970D01*
X1373Y970D02*
X1376Y970D01*
X1Y969D02*
X4Y969D01*
X1373Y969D02*
X1376Y969D01*
X1Y968D02*
X4Y968D01*
X1373Y968D02*
X1376Y968D01*
X1Y967D02*
X4Y967D01*
X1373Y967D02*
X1376Y967D01*
X1Y966D02*
X4Y966D01*
X1373Y966D02*
X1376Y966D01*
X1Y965D02*
X4Y965D01*
X1373Y965D02*
X1376Y965D01*
X1Y964D02*
X4Y964D01*
X1373Y964D02*
X1376Y964D01*
X1Y963D02*
X4Y963D01*
X1373Y963D02*
X1376Y963D01*
X1Y962D02*
X4Y962D01*
X1373Y962D02*
X1376Y962D01*
X1Y961D02*
X4Y961D01*
X1373Y961D02*
X1376Y961D01*
X1Y960D02*
X4Y960D01*
X1373Y960D02*
X1376Y960D01*
X1Y959D02*
X4Y959D01*
X1373Y959D02*
X1376Y959D01*
X1Y958D02*
X4Y958D01*
X1373Y958D02*
X1376Y958D01*
X1Y957D02*
X4Y957D01*
X1373Y957D02*
X1376Y957D01*
X1Y956D02*
X4Y956D01*
X1373Y956D02*
X1376Y956D01*
X1Y955D02*
X4Y955D01*
X1373Y955D02*
X1376Y955D01*
X1Y954D02*
X4Y954D01*
X1373Y954D02*
X1376Y954D01*
X1Y953D02*
X4Y953D01*
X1373Y953D02*
X1376Y953D01*
X1Y952D02*
X4Y952D01*
X1373Y952D02*
X1376Y952D01*
X1Y951D02*
X4Y951D01*
X1373Y951D02*
X1376Y951D01*
X1Y950D02*
X4Y950D01*
X1373Y950D02*
X1376Y950D01*
X1Y949D02*
X4Y949D01*
X1373Y949D02*
X1376Y949D01*
X1Y948D02*
X4Y948D01*
X1373Y948D02*
X1376Y948D01*
X1Y947D02*
X4Y947D01*
X1373Y947D02*
X1376Y947D01*
X1Y946D02*
X4Y946D01*
X1373Y946D02*
X1376Y946D01*
X1Y945D02*
X4Y945D01*
X1373Y945D02*
X1376Y945D01*
X1Y944D02*
X4Y944D01*
X250Y944D02*
X267Y944D01*
X679Y944D02*
X697Y944D01*
X1109Y944D02*
X1127Y944D01*
X1373Y944D02*
X1376Y944D01*
X1Y943D02*
X4Y943D01*
X245Y943D02*
X272Y943D01*
X675Y943D02*
X702Y943D01*
X1104Y943D02*
X1132Y943D01*
X1373Y943D02*
X1376Y943D01*
X1Y942D02*
X4Y942D01*
X241Y942D02*
X276Y942D01*
X671Y942D02*
X706Y942D01*
X1101Y942D02*
X1135Y942D01*
X1373Y942D02*
X1376Y942D01*
X1Y941D02*
X4Y941D01*
X239Y941D02*
X279Y941D01*
X668Y941D02*
X708Y941D01*
X1098Y941D02*
X1138Y941D01*
X1373Y941D02*
X1376Y941D01*
X1Y940D02*
X4Y940D01*
X236Y940D02*
X254Y940D01*
X262Y940D02*
X281Y940D01*
X666Y940D02*
X684Y940D01*
X692Y940D02*
X711Y940D01*
X1095Y940D02*
X1114Y940D01*
X1122Y940D02*
X1141Y940D01*
X1373Y940D02*
X1376Y940D01*
X1Y939D02*
X4Y939D01*
X234Y939D02*
X246Y939D01*
X270Y939D02*
X283Y939D01*
X664Y939D02*
X676Y939D01*
X700Y939D02*
X713Y939D01*
X1093Y939D02*
X1106Y939D01*
X1130Y939D02*
X1143Y939D01*
X1373Y939D02*
X1376Y939D01*
X1Y938D02*
X4Y938D01*
X232Y938D02*
X242Y938D01*
X274Y938D02*
X285Y938D01*
X661Y938D02*
X672Y938D01*
X704Y938D02*
X715Y938D01*
X1091Y938D02*
X1102Y938D01*
X1134Y938D02*
X1145Y938D01*
X1373Y938D02*
X1376Y938D01*
X1Y937D02*
X4Y937D01*
X230Y937D02*
X239Y937D01*
X277Y937D02*
X287Y937D01*
X660Y937D02*
X669Y937D01*
X707Y937D02*
X717Y937D01*
X1089Y937D02*
X1099Y937D01*
X1137Y937D02*
X1147Y937D01*
X1373Y937D02*
X1376Y937D01*
X1Y936D02*
X4Y936D01*
X228Y936D02*
X237Y936D01*
X280Y936D02*
X289Y936D01*
X658Y936D02*
X666Y936D01*
X710Y936D02*
X718Y936D01*
X1088Y936D02*
X1096Y936D01*
X1139Y936D02*
X1148Y936D01*
X1373Y936D02*
X1376Y936D01*
X1Y935D02*
X4Y935D01*
X227Y935D02*
X234Y935D01*
X282Y935D02*
X290Y935D01*
X656Y935D02*
X664Y935D01*
X712Y935D02*
X720Y935D01*
X1086Y935D02*
X1094Y935D01*
X1142Y935D02*
X1150Y935D01*
X1373Y935D02*
X1376Y935D01*
X1Y934D02*
X4Y934D01*
X225Y934D02*
X232Y934D01*
X284Y934D02*
X292Y934D01*
X655Y934D02*
X662Y934D01*
X714Y934D02*
X722Y934D01*
X1085Y934D02*
X1092Y934D01*
X1144Y934D02*
X1151Y934D01*
X1373Y934D02*
X1376Y934D01*
X1Y933D02*
X4Y933D01*
X224Y933D02*
X230Y933D01*
X286Y933D02*
X293Y933D01*
X654Y933D02*
X660Y933D01*
X716Y933D02*
X723Y933D01*
X1083Y933D02*
X1090Y933D01*
X1146Y933D02*
X1153Y933D01*
X1373Y933D02*
X1376Y933D01*
X1Y932D02*
X4Y932D01*
X223Y932D02*
X229Y932D01*
X288Y932D02*
X294Y932D01*
X652Y932D02*
X659Y932D01*
X717Y932D02*
X724Y932D01*
X1082Y932D02*
X1088Y932D01*
X1147Y932D02*
X1154Y932D01*
X1373Y932D02*
X1376Y932D01*
X1Y931D02*
X4Y931D01*
X221Y931D02*
X227Y931D01*
X289Y931D02*
X296Y931D01*
X651Y931D02*
X657Y931D01*
X719Y931D02*
X725Y931D01*
X1081Y931D02*
X1087Y931D01*
X1149Y931D02*
X1155Y931D01*
X1373Y931D02*
X1376Y931D01*
X1Y930D02*
X4Y930D01*
X220Y930D02*
X226Y930D01*
X291Y930D02*
X297Y930D01*
X650Y930D02*
X655Y930D01*
X721Y930D02*
X727Y930D01*
X1080Y930D02*
X1085Y930D01*
X1150Y930D02*
X1156Y930D01*
X1373Y930D02*
X1376Y930D01*
X1Y929D02*
X4Y929D01*
X219Y929D02*
X224Y929D01*
X292Y929D02*
X298Y929D01*
X649Y929D02*
X654Y929D01*
X722Y929D02*
X728Y929D01*
X1079Y929D02*
X1084Y929D01*
X1152Y929D02*
X1157Y929D01*
X1373Y929D02*
X1376Y929D01*
X1Y928D02*
X4Y928D01*
X218Y928D02*
X223Y928D01*
X293Y928D02*
X299Y928D01*
X648Y928D02*
X653Y928D01*
X723Y928D02*
X729Y928D01*
X1078Y928D02*
X1083Y928D01*
X1153Y928D02*
X1159Y928D01*
X1373Y928D02*
X1376Y928D01*
X1Y927D02*
X4Y927D01*
X217Y927D02*
X222Y927D01*
X295Y927D02*
X300Y927D01*
X647Y927D02*
X652Y927D01*
X724Y927D02*
X730Y927D01*
X1077Y927D02*
X1081Y927D01*
X1154Y927D02*
X1160Y927D01*
X1373Y927D02*
X1376Y927D01*
X1Y926D02*
X4Y926D01*
X216Y926D02*
X221Y926D01*
X296Y926D02*
X301Y926D01*
X646Y926D02*
X650Y926D01*
X725Y926D02*
X731Y926D01*
X1076Y926D02*
X1080Y926D01*
X1155Y926D02*
X1160Y926D01*
X1373Y926D02*
X1376Y926D01*
X1Y925D02*
X4Y925D01*
X215Y925D02*
X220Y925D01*
X297Y925D02*
X302Y925D01*
X645Y925D02*
X649Y925D01*
X727Y925D02*
X732Y925D01*
X1075Y925D02*
X1079Y925D01*
X1156Y925D02*
X1161Y925D01*
X1373Y925D02*
X1376Y925D01*
X1Y924D02*
X4Y924D01*
X214Y924D02*
X219Y924D01*
X298Y924D02*
X303Y924D01*
X644Y924D02*
X648Y924D01*
X728Y924D02*
X733Y924D01*
X1074Y924D02*
X1078Y924D01*
X1157Y924D02*
X1162Y924D01*
X1373Y924D02*
X1376Y924D01*
X1Y923D02*
X4Y923D01*
X213Y923D02*
X218Y923D01*
X299Y923D02*
X304Y923D01*
X643Y923D02*
X647Y923D01*
X729Y923D02*
X733Y923D01*
X1073Y923D02*
X1077Y923D01*
X1158Y923D02*
X1163Y923D01*
X1373Y923D02*
X1376Y923D01*
X1Y922D02*
X4Y922D01*
X213Y922D02*
X217Y922D01*
X300Y922D02*
X304Y922D01*
X642Y922D02*
X647Y922D01*
X729Y922D02*
X734Y922D01*
X1072Y922D02*
X1076Y922D01*
X1159Y922D02*
X1164Y922D01*
X1373Y922D02*
X1376Y922D01*
X1Y921D02*
X4Y921D01*
X212Y921D02*
X216Y921D01*
X301Y921D02*
X305Y921D01*
X642Y921D02*
X646Y921D01*
X730Y921D02*
X735Y921D01*
X1071Y921D02*
X1075Y921D01*
X1160Y921D02*
X1165Y921D01*
X1373Y921D02*
X1376Y921D01*
X1Y920D02*
X4Y920D01*
X211Y920D02*
X215Y920D01*
X301Y920D02*
X306Y920D01*
X641Y920D02*
X645Y920D01*
X731Y920D02*
X736Y920D01*
X1071Y920D02*
X1074Y920D01*
X1161Y920D02*
X1165Y920D01*
X1373Y920D02*
X1376Y920D01*
X1Y919D02*
X4Y919D01*
X210Y919D02*
X214Y919D01*
X302Y919D02*
X307Y919D01*
X640Y919D02*
X644Y919D01*
X732Y919D02*
X736Y919D01*
X1070Y919D02*
X1074Y919D01*
X1162Y919D02*
X1166Y919D01*
X1373Y919D02*
X1376Y919D01*
X1Y918D02*
X4Y918D01*
X210Y918D02*
X213Y918D01*
X303Y918D02*
X307Y918D01*
X640Y918D02*
X643Y918D01*
X733Y918D02*
X737Y918D01*
X1069Y918D02*
X1073Y918D01*
X1162Y918D02*
X1167Y918D01*
X1373Y918D02*
X1376Y918D01*
X1Y917D02*
X4Y917D01*
X209Y917D02*
X213Y917D01*
X304Y917D02*
X308Y917D01*
X639Y917D02*
X643Y917D01*
X733Y917D02*
X738Y917D01*
X1069Y917D02*
X1072Y917D01*
X1163Y917D02*
X1167Y917D01*
X1373Y917D02*
X1376Y917D01*
X1Y916D02*
X4Y916D01*
X209Y916D02*
X212Y916D01*
X304Y916D02*
X309Y916D01*
X638Y916D02*
X642Y916D01*
X734Y916D02*
X738Y916D01*
X1068Y916D02*
X1072Y916D01*
X1164Y916D02*
X1168Y916D01*
X1373Y916D02*
X1376Y916D01*
X1Y915D02*
X4Y915D01*
X208Y915D02*
X211Y915D01*
X305Y915D02*
X309Y915D01*
X638Y915D02*
X641Y915D01*
X735Y915D02*
X739Y915D01*
X1067Y915D02*
X1071Y915D01*
X1165Y915D02*
X1169Y915D01*
X1373Y915D02*
X1376Y915D01*
X1Y914D02*
X4Y914D01*
X207Y914D02*
X211Y914D01*
X306Y914D02*
X310Y914D01*
X637Y914D02*
X641Y914D01*
X735Y914D02*
X739Y914D01*
X1067Y914D02*
X1070Y914D01*
X1165Y914D02*
X1169Y914D01*
X1373Y914D02*
X1376Y914D01*
X1Y913D02*
X4Y913D01*
X207Y913D02*
X210Y913D01*
X306Y913D02*
X310Y913D01*
X637Y913D02*
X640Y913D01*
X736Y913D02*
X740Y913D01*
X1066Y913D02*
X1070Y913D01*
X1166Y913D02*
X1170Y913D01*
X1373Y913D02*
X1376Y913D01*
X1Y912D02*
X4Y912D01*
X206Y912D02*
X210Y912D01*
X307Y912D02*
X311Y912D01*
X636Y912D02*
X639Y912D01*
X737Y912D02*
X740Y912D01*
X1066Y912D02*
X1069Y912D01*
X1166Y912D02*
X1170Y912D01*
X1373Y912D02*
X1376Y912D01*
X1Y911D02*
X4Y911D01*
X206Y911D02*
X209Y911D01*
X307Y911D02*
X311Y911D01*
X636Y911D02*
X639Y911D01*
X737Y911D02*
X741Y911D01*
X1065Y911D02*
X1069Y911D01*
X1167Y911D02*
X1171Y911D01*
X1373Y911D02*
X1376Y911D01*
X1Y910D02*
X4Y910D01*
X205Y910D02*
X209Y910D01*
X308Y910D02*
X312Y910D01*
X635Y910D02*
X638Y910D01*
X738Y910D02*
X741Y910D01*
X1065Y910D02*
X1068Y910D01*
X1167Y910D02*
X1171Y910D01*
X1373Y910D02*
X1376Y910D01*
X1Y909D02*
X4Y909D01*
X205Y909D02*
X208Y909D01*
X308Y909D02*
X312Y909D01*
X635Y909D02*
X638Y909D01*
X738Y909D02*
X742Y909D01*
X1064Y909D02*
X1068Y909D01*
X1168Y909D02*
X1172Y909D01*
X1373Y909D02*
X1376Y909D01*
X1Y908D02*
X4Y908D01*
X204Y908D02*
X208Y908D01*
X309Y908D02*
X313Y908D01*
X634Y908D02*
X637Y908D01*
X739Y908D02*
X742Y908D01*
X1064Y908D02*
X1067Y908D01*
X1168Y908D02*
X1172Y908D01*
X1373Y908D02*
X1376Y908D01*
X1Y907D02*
X4Y907D01*
X204Y907D02*
X207Y907D01*
X309Y907D02*
X313Y907D01*
X634Y907D02*
X637Y907D01*
X739Y907D02*
X743Y907D01*
X1064Y907D02*
X1067Y907D01*
X1169Y907D02*
X1172Y907D01*
X1373Y907D02*
X1376Y907D01*
X1Y906D02*
X4Y906D01*
X204Y906D02*
X207Y906D01*
X310Y906D02*
X313Y906D01*
X633Y906D02*
X637Y906D01*
X739Y906D02*
X743Y906D01*
X1063Y906D02*
X1066Y906D01*
X1169Y906D02*
X1173Y906D01*
X1373Y906D02*
X1376Y906D01*
X1Y905D02*
X4Y905D01*
X203Y905D02*
X206Y905D01*
X310Y905D02*
X314Y905D01*
X633Y905D02*
X636Y905D01*
X740Y905D02*
X743Y905D01*
X1063Y905D02*
X1066Y905D01*
X1170Y905D02*
X1173Y905D01*
X1373Y905D02*
X1376Y905D01*
X1Y904D02*
X4Y904D01*
X203Y904D02*
X206Y904D01*
X310Y904D02*
X314Y904D01*
X633Y904D02*
X636Y904D01*
X740Y904D02*
X744Y904D01*
X1062Y904D02*
X1066Y904D01*
X1170Y904D02*
X1174Y904D01*
X1373Y904D02*
X1376Y904D01*
X1Y903D02*
X4Y903D01*
X203Y903D02*
X206Y903D01*
X311Y903D02*
X314Y903D01*
X632Y903D02*
X635Y903D01*
X741Y903D02*
X744Y903D01*
X1062Y903D02*
X1065Y903D01*
X1170Y903D02*
X1174Y903D01*
X1373Y903D02*
X1376Y903D01*
X1Y902D02*
X4Y902D01*
X202Y902D02*
X205Y902D01*
X311Y902D02*
X315Y902D01*
X632Y902D02*
X635Y902D01*
X741Y902D02*
X744Y902D01*
X1062Y902D02*
X1065Y902D01*
X1171Y902D02*
X1174Y902D01*
X1373Y902D02*
X1376Y902D01*
X1Y901D02*
X4Y901D01*
X202Y901D02*
X205Y901D01*
X312Y901D02*
X315Y901D01*
X632Y901D02*
X635Y901D01*
X741Y901D02*
X745Y901D01*
X1061Y901D02*
X1065Y901D01*
X1171Y901D02*
X1174Y901D01*
X1373Y901D02*
X1376Y901D01*
X1Y900D02*
X4Y900D01*
X202Y900D02*
X205Y900D01*
X312Y900D02*
X315Y900D01*
X631Y900D02*
X635Y900D01*
X741Y900D02*
X745Y900D01*
X1061Y900D02*
X1064Y900D01*
X1171Y900D02*
X1175Y900D01*
X1373Y900D02*
X1376Y900D01*
X1Y899D02*
X4Y899D01*
X201Y899D02*
X205Y899D01*
X312Y899D02*
X315Y899D01*
X631Y899D02*
X634Y899D01*
X742Y899D02*
X745Y899D01*
X1061Y899D02*
X1064Y899D01*
X1172Y899D02*
X1175Y899D01*
X1373Y899D02*
X1376Y899D01*
X1Y898D02*
X4Y898D01*
X201Y898D02*
X204Y898D01*
X312Y898D02*
X316Y898D01*
X631Y898D02*
X634Y898D01*
X742Y898D02*
X745Y898D01*
X1061Y898D02*
X1064Y898D01*
X1172Y898D02*
X1175Y898D01*
X1373Y898D02*
X1376Y898D01*
X1Y897D02*
X4Y897D01*
X201Y897D02*
X204Y897D01*
X313Y897D02*
X316Y897D01*
X631Y897D02*
X634Y897D01*
X742Y897D02*
X746Y897D01*
X1060Y897D02*
X1064Y897D01*
X1172Y897D02*
X1175Y897D01*
X1373Y897D02*
X1376Y897D01*
X1Y896D02*
X4Y896D01*
X201Y896D02*
X204Y896D01*
X313Y896D02*
X316Y896D01*
X631Y896D02*
X634Y896D01*
X742Y896D02*
X746Y896D01*
X1060Y896D02*
X1063Y896D01*
X1172Y896D02*
X1176Y896D01*
X1373Y896D02*
X1376Y896D01*
X1Y895D02*
X4Y895D01*
X201Y895D02*
X204Y895D01*
X313Y895D02*
X316Y895D01*
X630Y895D02*
X634Y895D01*
X743Y895D02*
X746Y895D01*
X1060Y895D02*
X1063Y895D01*
X1172Y895D02*
X1176Y895D01*
X1373Y895D02*
X1376Y895D01*
X1Y894D02*
X4Y894D01*
X200Y894D02*
X204Y894D01*
X313Y894D02*
X316Y894D01*
X630Y894D02*
X633Y894D01*
X743Y894D02*
X746Y894D01*
X1060Y894D02*
X1063Y894D01*
X1173Y894D02*
X1176Y894D01*
X1373Y894D02*
X1376Y894D01*
X1Y893D02*
X4Y893D01*
X200Y893D02*
X203Y893D01*
X313Y893D02*
X317Y893D01*
X630Y893D02*
X633Y893D01*
X743Y893D02*
X746Y893D01*
X1060Y893D02*
X1063Y893D01*
X1173Y893D02*
X1176Y893D01*
X1373Y893D02*
X1376Y893D01*
X1Y892D02*
X4Y892D01*
X200Y892D02*
X203Y892D01*
X313Y892D02*
X317Y892D01*
X630Y892D02*
X633Y892D01*
X743Y892D02*
X746Y892D01*
X1060Y892D02*
X1063Y892D01*
X1173Y892D02*
X1176Y892D01*
X1373Y892D02*
X1376Y892D01*
X1Y891D02*
X4Y891D01*
X200Y891D02*
X203Y891D01*
X314Y891D02*
X317Y891D01*
X630Y891D02*
X633Y891D01*
X743Y891D02*
X747Y891D01*
X1060Y891D02*
X1063Y891D01*
X1173Y891D02*
X1176Y891D01*
X1373Y891D02*
X1376Y891D01*
X1Y890D02*
X4Y890D01*
X200Y890D02*
X203Y890D01*
X314Y890D02*
X317Y890D01*
X630Y890D02*
X633Y890D01*
X743Y890D02*
X747Y890D01*
X1059Y890D02*
X1063Y890D01*
X1173Y890D02*
X1176Y890D01*
X1373Y890D02*
X1376Y890D01*
X1Y889D02*
X4Y889D01*
X200Y889D02*
X203Y889D01*
X314Y889D02*
X317Y889D01*
X630Y889D02*
X633Y889D01*
X743Y889D02*
X747Y889D01*
X1059Y889D02*
X1063Y889D01*
X1173Y889D02*
X1176Y889D01*
X1373Y889D02*
X1376Y889D01*
X1Y888D02*
X4Y888D01*
X200Y888D02*
X203Y888D01*
X314Y888D02*
X317Y888D01*
X630Y888D02*
X633Y888D01*
X743Y888D02*
X747Y888D01*
X1059Y888D02*
X1063Y888D01*
X1173Y888D02*
X1176Y888D01*
X1373Y888D02*
X1376Y888D01*
X1Y887D02*
X4Y887D01*
X200Y887D02*
X203Y887D01*
X314Y887D02*
X317Y887D01*
X630Y887D02*
X633Y887D01*
X743Y887D02*
X747Y887D01*
X1059Y887D02*
X1063Y887D01*
X1173Y887D02*
X1176Y887D01*
X1373Y887D02*
X1376Y887D01*
X1Y886D02*
X4Y886D01*
X200Y886D02*
X203Y886D01*
X314Y886D02*
X317Y886D01*
X630Y886D02*
X633Y886D01*
X744Y886D02*
X747Y886D01*
X1059Y886D02*
X1062Y886D01*
X1173Y886D02*
X1177Y886D01*
X1373Y886D02*
X1376Y886D01*
X1Y885D02*
X4Y885D01*
X200Y885D02*
X203Y885D01*
X314Y885D02*
X317Y885D01*
X629Y885D02*
X633Y885D01*
X744Y885D02*
X747Y885D01*
X1059Y885D02*
X1062Y885D01*
X1173Y885D02*
X1177Y885D01*
X1373Y885D02*
X1376Y885D01*
X1Y884D02*
X4Y884D01*
X200Y884D02*
X203Y884D01*
X314Y884D02*
X317Y884D01*
X630Y884D02*
X633Y884D01*
X744Y884D02*
X747Y884D01*
X1059Y884D02*
X1063Y884D01*
X1173Y884D02*
X1176Y884D01*
X1373Y884D02*
X1376Y884D01*
X1Y883D02*
X4Y883D01*
X200Y883D02*
X203Y883D01*
X314Y883D02*
X317Y883D01*
X630Y883D02*
X633Y883D01*
X743Y883D02*
X747Y883D01*
X1059Y883D02*
X1063Y883D01*
X1173Y883D02*
X1176Y883D01*
X1373Y883D02*
X1376Y883D01*
X1Y882D02*
X4Y882D01*
X200Y882D02*
X203Y882D01*
X314Y882D02*
X317Y882D01*
X630Y882D02*
X633Y882D01*
X743Y882D02*
X747Y882D01*
X1059Y882D02*
X1063Y882D01*
X1173Y882D02*
X1176Y882D01*
X1373Y882D02*
X1376Y882D01*
X1Y881D02*
X4Y881D01*
X200Y881D02*
X203Y881D01*
X314Y881D02*
X317Y881D01*
X630Y881D02*
X633Y881D01*
X743Y881D02*
X747Y881D01*
X1059Y881D02*
X1063Y881D01*
X1173Y881D02*
X1176Y881D01*
X1373Y881D02*
X1376Y881D01*
X1Y880D02*
X4Y880D01*
X200Y880D02*
X203Y880D01*
X314Y880D02*
X317Y880D01*
X630Y880D02*
X633Y880D01*
X743Y880D02*
X746Y880D01*
X1059Y880D02*
X1063Y880D01*
X1173Y880D02*
X1176Y880D01*
X1373Y880D02*
X1376Y880D01*
X1Y879D02*
X4Y879D01*
X200Y879D02*
X203Y879D01*
X313Y879D02*
X317Y879D01*
X630Y879D02*
X633Y879D01*
X743Y879D02*
X746Y879D01*
X1060Y879D02*
X1063Y879D01*
X1173Y879D02*
X1176Y879D01*
X1373Y879D02*
X1376Y879D01*
X1Y878D02*
X4Y878D01*
X200Y878D02*
X204Y878D01*
X313Y878D02*
X316Y878D01*
X630Y878D02*
X633Y878D01*
X743Y878D02*
X746Y878D01*
X1060Y878D02*
X1063Y878D01*
X1173Y878D02*
X1176Y878D01*
X1373Y878D02*
X1376Y878D01*
X1Y877D02*
X4Y877D01*
X200Y877D02*
X204Y877D01*
X313Y877D02*
X316Y877D01*
X630Y877D02*
X633Y877D01*
X743Y877D02*
X746Y877D01*
X1060Y877D02*
X1063Y877D01*
X1173Y877D02*
X1176Y877D01*
X1373Y877D02*
X1376Y877D01*
X1Y876D02*
X4Y876D01*
X201Y876D02*
X204Y876D01*
X313Y876D02*
X316Y876D01*
X630Y876D02*
X634Y876D01*
X743Y876D02*
X746Y876D01*
X1060Y876D02*
X1063Y876D01*
X1173Y876D02*
X1176Y876D01*
X1373Y876D02*
X1376Y876D01*
X1Y875D02*
X4Y875D01*
X201Y875D02*
X204Y875D01*
X313Y875D02*
X316Y875D01*
X630Y875D02*
X634Y875D01*
X743Y875D02*
X746Y875D01*
X1060Y875D02*
X1064Y875D01*
X1172Y875D02*
X1175Y875D01*
X1373Y875D02*
X1376Y875D01*
X1Y874D02*
X4Y874D01*
X201Y874D02*
X204Y874D01*
X313Y874D02*
X316Y874D01*
X631Y874D02*
X634Y874D01*
X742Y874D02*
X746Y874D01*
X1060Y874D02*
X1064Y874D01*
X1172Y874D02*
X1175Y874D01*
X1373Y874D02*
X1376Y874D01*
X1Y873D02*
X4Y873D01*
X201Y873D02*
X204Y873D01*
X312Y873D02*
X316Y873D01*
X631Y873D02*
X634Y873D01*
X742Y873D02*
X745Y873D01*
X1060Y873D02*
X1064Y873D01*
X1172Y873D02*
X1175Y873D01*
X1373Y873D02*
X1376Y873D01*
X1Y872D02*
X4Y872D01*
X201Y872D02*
X205Y872D01*
X312Y872D02*
X315Y872D01*
X631Y872D02*
X634Y872D01*
X742Y872D02*
X745Y872D01*
X1061Y872D02*
X1064Y872D01*
X1172Y872D02*
X1175Y872D01*
X1373Y872D02*
X1376Y872D01*
X1Y871D02*
X4Y871D01*
X202Y871D02*
X205Y871D01*
X312Y871D02*
X315Y871D01*
X631Y871D02*
X635Y871D01*
X742Y871D02*
X745Y871D01*
X1061Y871D02*
X1064Y871D01*
X1171Y871D02*
X1175Y871D01*
X1373Y871D02*
X1376Y871D01*
X1Y870D02*
X4Y870D01*
X202Y870D02*
X205Y870D01*
X312Y870D02*
X315Y870D01*
X632Y870D02*
X635Y870D01*
X741Y870D02*
X745Y870D01*
X1061Y870D02*
X1065Y870D01*
X1171Y870D02*
X1174Y870D01*
X1373Y870D02*
X1376Y870D01*
X1Y869D02*
X4Y869D01*
X202Y869D02*
X206Y869D01*
X311Y869D02*
X315Y869D01*
X632Y869D02*
X635Y869D01*
X741Y869D02*
X744Y869D01*
X1062Y869D02*
X1065Y869D01*
X1171Y869D02*
X1174Y869D01*
X1373Y869D02*
X1376Y869D01*
X1Y868D02*
X4Y868D01*
X202Y868D02*
X206Y868D01*
X311Y868D02*
X314Y868D01*
X632Y868D02*
X636Y868D01*
X741Y868D02*
X744Y868D01*
X1062Y868D02*
X1065Y868D01*
X1171Y868D02*
X1174Y868D01*
X1373Y868D02*
X1376Y868D01*
X1Y867D02*
X4Y867D01*
X203Y867D02*
X206Y867D01*
X311Y867D02*
X314Y867D01*
X632Y867D02*
X636Y867D01*
X741Y867D02*
X744Y867D01*
X1062Y867D02*
X1066Y867D01*
X1170Y867D02*
X1173Y867D01*
X1373Y867D02*
X1376Y867D01*
X1Y866D02*
X4Y866D01*
X203Y866D02*
X207Y866D01*
X310Y866D02*
X314Y866D01*
X633Y866D02*
X636Y866D01*
X740Y866D02*
X743Y866D01*
X1062Y866D02*
X1066Y866D01*
X1170Y866D02*
X1173Y866D01*
X1373Y866D02*
X1376Y866D01*
X1Y865D02*
X4Y865D01*
X203Y865D02*
X207Y865D01*
X310Y865D02*
X313Y865D01*
X633Y865D02*
X637Y865D01*
X740Y865D02*
X743Y865D01*
X1063Y865D02*
X1066Y865D01*
X1170Y865D02*
X1173Y865D01*
X1373Y865D02*
X1376Y865D01*
X1Y864D02*
X4Y864D01*
X204Y864D02*
X207Y864D01*
X310Y864D02*
X313Y864D01*
X633Y864D02*
X637Y864D01*
X739Y864D02*
X743Y864D01*
X1063Y864D02*
X1067Y864D01*
X1169Y864D02*
X1172Y864D01*
X1373Y864D02*
X1376Y864D01*
X1Y863D02*
X4Y863D01*
X204Y863D02*
X208Y863D01*
X309Y863D02*
X312Y863D01*
X634Y863D02*
X638Y863D01*
X739Y863D02*
X742Y863D01*
X1064Y863D02*
X1067Y863D01*
X1169Y863D02*
X1172Y863D01*
X1373Y863D02*
X1376Y863D01*
X1Y862D02*
X4Y862D01*
X205Y862D02*
X208Y862D01*
X309Y862D02*
X312Y862D01*
X634Y862D02*
X638Y862D01*
X739Y862D02*
X742Y862D01*
X1064Y862D02*
X1068Y862D01*
X1168Y862D02*
X1171Y862D01*
X1373Y862D02*
X1376Y862D01*
X1Y861D02*
X4Y861D01*
X205Y861D02*
X209Y861D01*
X308Y861D02*
X311Y861D01*
X635Y861D02*
X639Y861D01*
X738Y861D02*
X741Y861D01*
X1064Y861D02*
X1068Y861D01*
X1168Y861D02*
X1171Y861D01*
X1373Y861D02*
X1376Y861D01*
X1Y860D02*
X4Y860D01*
X205Y860D02*
X209Y860D01*
X308Y860D02*
X311Y860D01*
X635Y860D02*
X639Y860D01*
X738Y860D02*
X741Y860D01*
X1065Y860D02*
X1069Y860D01*
X1167Y860D02*
X1171Y860D01*
X1373Y860D02*
X1376Y860D01*
X1Y859D02*
X4Y859D01*
X206Y859D02*
X210Y859D01*
X307Y859D02*
X311Y859D01*
X636Y859D02*
X640Y859D01*
X737Y859D02*
X740Y859D01*
X1065Y859D02*
X1069Y859D01*
X1167Y859D02*
X1170Y859D01*
X1373Y859D02*
X1376Y859D01*
X1Y858D02*
X4Y858D01*
X206Y858D02*
X210Y858D01*
X307Y858D02*
X310Y858D01*
X636Y858D02*
X640Y858D01*
X736Y858D02*
X740Y858D01*
X1066Y858D02*
X1070Y858D01*
X1166Y858D02*
X1170Y858D01*
X1373Y858D02*
X1376Y858D01*
X1Y857D02*
X4Y857D01*
X207Y857D02*
X211Y857D01*
X306Y857D02*
X310Y857D01*
X637Y857D02*
X641Y857D01*
X736Y857D02*
X739Y857D01*
X1066Y857D02*
X1070Y857D01*
X1166Y857D02*
X1169Y857D01*
X1373Y857D02*
X1376Y857D01*
X1Y856D02*
X4Y856D01*
X208Y856D02*
X212Y856D01*
X305Y856D02*
X309Y856D01*
X637Y856D02*
X641Y856D01*
X735Y856D02*
X739Y856D01*
X1067Y856D02*
X1071Y856D01*
X1165Y856D02*
X1168Y856D01*
X1373Y856D02*
X1376Y856D01*
X1Y855D02*
X4Y855D01*
X208Y855D02*
X212Y855D01*
X305Y855D02*
X308Y855D01*
X638Y855D02*
X642Y855D01*
X735Y855D02*
X738Y855D01*
X1068Y855D02*
X1072Y855D01*
X1164Y855D02*
X1168Y855D01*
X1373Y855D02*
X1376Y855D01*
X1Y854D02*
X4Y854D01*
X209Y854D02*
X213Y854D01*
X304Y854D02*
X308Y854D01*
X639Y854D02*
X643Y854D01*
X734Y854D02*
X737Y854D01*
X1068Y854D02*
X1072Y854D01*
X1164Y854D02*
X1167Y854D01*
X1373Y854D02*
X1376Y854D01*
X1Y853D02*
X4Y853D01*
X209Y853D02*
X214Y853D01*
X303Y853D02*
X307Y853D01*
X639Y853D02*
X643Y853D01*
X733Y853D02*
X737Y853D01*
X1069Y853D02*
X1073Y853D01*
X1163Y853D02*
X1167Y853D01*
X1373Y853D02*
X1376Y853D01*
X1Y852D02*
X4Y852D01*
X210Y852D02*
X214Y852D01*
X303Y852D02*
X306Y852D01*
X640Y852D02*
X644Y852D01*
X732Y852D02*
X736Y852D01*
X1070Y852D02*
X1074Y852D01*
X1162Y852D02*
X1166Y852D01*
X1373Y852D02*
X1376Y852D01*
X1Y851D02*
X4Y851D01*
X211Y851D02*
X215Y851D01*
X302Y851D02*
X306Y851D01*
X641Y851D02*
X645Y851D01*
X732Y851D02*
X735Y851D01*
X1070Y851D02*
X1075Y851D01*
X1161Y851D02*
X1165Y851D01*
X1373Y851D02*
X1376Y851D01*
X1Y850D02*
X4Y850D01*
X212Y850D02*
X216Y850D01*
X301Y850D02*
X305Y850D01*
X641Y850D02*
X646Y850D01*
X731Y850D02*
X735Y850D01*
X1071Y850D02*
X1076Y850D01*
X1161Y850D02*
X1164Y850D01*
X1373Y850D02*
X1376Y850D01*
X1Y849D02*
X4Y849D01*
X212Y849D02*
X217Y849D01*
X300Y849D02*
X304Y849D01*
X642Y849D02*
X647Y849D01*
X730Y849D02*
X734Y849D01*
X1072Y849D02*
X1076Y849D01*
X1160Y849D02*
X1164Y849D01*
X1373Y849D02*
X1376Y849D01*
X1Y848D02*
X4Y848D01*
X213Y848D02*
X218Y848D01*
X299Y848D02*
X303Y848D01*
X643Y848D02*
X648Y848D01*
X729Y848D02*
X733Y848D01*
X1073Y848D02*
X1077Y848D01*
X1159Y848D02*
X1163Y848D01*
X1373Y848D02*
X1376Y848D01*
X1Y847D02*
X4Y847D01*
X214Y847D02*
X219Y847D01*
X298Y847D02*
X303Y847D01*
X644Y847D02*
X648Y847D01*
X728Y847D02*
X732Y847D01*
X1073Y847D02*
X1078Y847D01*
X1158Y847D02*
X1162Y847D01*
X1373Y847D02*
X1376Y847D01*
X1Y846D02*
X4Y846D01*
X215Y846D02*
X220Y846D01*
X297Y846D02*
X302Y846D01*
X645Y846D02*
X650Y846D01*
X727Y846D02*
X731Y846D01*
X1074Y846D02*
X1079Y846D01*
X1157Y846D02*
X1161Y846D01*
X1373Y846D02*
X1376Y846D01*
X1Y845D02*
X4Y845D01*
X216Y845D02*
X221Y845D01*
X296Y845D02*
X301Y845D01*
X645Y845D02*
X651Y845D01*
X726Y845D02*
X731Y845D01*
X1075Y845D02*
X1080Y845D01*
X1156Y845D02*
X1160Y845D01*
X1373Y845D02*
X1376Y845D01*
X1Y844D02*
X4Y844D01*
X217Y844D02*
X222Y844D01*
X295Y844D02*
X300Y844D01*
X646Y844D02*
X652Y844D01*
X725Y844D02*
X730Y844D01*
X1076Y844D02*
X1081Y844D01*
X1155Y844D02*
X1159Y844D01*
X1373Y844D02*
X1376Y844D01*
X1Y843D02*
X4Y843D01*
X218Y843D02*
X223Y843D01*
X294Y843D02*
X299Y843D01*
X647Y843D02*
X653Y843D01*
X724Y843D02*
X729Y843D01*
X1077Y843D02*
X1083Y843D01*
X1153Y843D02*
X1158Y843D01*
X1373Y843D02*
X1376Y843D01*
X1Y842D02*
X4Y842D01*
X219Y842D02*
X224Y842D01*
X293Y842D02*
X298Y842D01*
X648Y842D02*
X654Y842D01*
X722Y842D02*
X728Y842D01*
X1078Y842D02*
X1084Y842D01*
X1152Y842D02*
X1157Y842D01*
X1373Y842D02*
X1376Y842D01*
X1Y841D02*
X4Y841D01*
X220Y841D02*
X226Y841D01*
X291Y841D02*
X297Y841D01*
X650Y841D02*
X656Y841D01*
X721Y841D02*
X726Y841D01*
X1079Y841D02*
X1085Y841D01*
X1151Y841D02*
X1156Y841D01*
X1373Y841D02*
X1376Y841D01*
X1Y840D02*
X4Y840D01*
X221Y840D02*
X227Y840D01*
X290Y840D02*
X296Y840D01*
X651Y840D02*
X657Y840D01*
X720Y840D02*
X725Y840D01*
X1080Y840D02*
X1087Y840D01*
X1149Y840D02*
X1155Y840D01*
X1373Y840D02*
X1376Y840D01*
X1Y839D02*
X4Y839D01*
X222Y839D02*
X229Y839D01*
X288Y839D02*
X294Y839D01*
X652Y839D02*
X659Y839D01*
X718Y839D02*
X724Y839D01*
X1082Y839D02*
X1088Y839D01*
X1148Y839D02*
X1154Y839D01*
X1373Y839D02*
X1376Y839D01*
X1Y838D02*
X4Y838D01*
X223Y838D02*
X230Y838D01*
X287Y838D02*
X293Y838D01*
X653Y838D02*
X660Y838D01*
X716Y838D02*
X723Y838D01*
X1083Y838D02*
X1090Y838D01*
X1146Y838D02*
X1153Y838D01*
X1373Y838D02*
X1376Y838D01*
X1Y837D02*
X4Y837D01*
X225Y837D02*
X232Y837D01*
X285Y837D02*
X292Y837D01*
X655Y837D02*
X662Y837D01*
X715Y837D02*
X721Y837D01*
X1084Y837D02*
X1092Y837D01*
X1144Y837D02*
X1151Y837D01*
X1373Y837D02*
X1376Y837D01*
X1Y836D02*
X4Y836D01*
X226Y836D02*
X234Y836D01*
X283Y836D02*
X290Y836D01*
X656Y836D02*
X664Y836D01*
X712Y836D02*
X720Y836D01*
X1086Y836D02*
X1094Y836D01*
X1142Y836D02*
X1150Y836D01*
X1373Y836D02*
X1376Y836D01*
X1Y835D02*
X4Y835D01*
X228Y835D02*
X236Y835D01*
X281Y835D02*
X289Y835D01*
X658Y835D02*
X666Y835D01*
X710Y835D02*
X718Y835D01*
X1087Y835D02*
X1096Y835D01*
X1140Y835D02*
X1148Y835D01*
X1373Y835D02*
X1376Y835D01*
X1Y834D02*
X4Y834D01*
X229Y834D02*
X239Y834D01*
X278Y834D02*
X287Y834D01*
X659Y834D02*
X669Y834D01*
X708Y834D02*
X717Y834D01*
X1089Y834D02*
X1099Y834D01*
X1137Y834D02*
X1147Y834D01*
X1373Y834D02*
X1376Y834D01*
X1Y833D02*
X4Y833D01*
X231Y833D02*
X242Y833D01*
X275Y833D02*
X285Y833D01*
X661Y833D02*
X672Y833D01*
X705Y833D02*
X715Y833D01*
X1091Y833D02*
X1102Y833D01*
X1134Y833D02*
X1145Y833D01*
X1373Y833D02*
X1376Y833D01*
X1Y832D02*
X4Y832D01*
X233Y832D02*
X246Y832D01*
X271Y832D02*
X283Y832D01*
X663Y832D02*
X676Y832D01*
X701Y832D02*
X713Y832D01*
X1093Y832D02*
X1106Y832D01*
X1131Y832D02*
X1143Y832D01*
X1373Y832D02*
X1376Y832D01*
X1Y831D02*
X4Y831D01*
X235Y831D02*
X252Y831D01*
X265Y831D02*
X281Y831D01*
X665Y831D02*
X682Y831D01*
X695Y831D02*
X711Y831D01*
X1095Y831D02*
X1112Y831D01*
X1124Y831D02*
X1141Y831D01*
X1373Y831D02*
X1376Y831D01*
X1Y830D02*
X4Y830D01*
X238Y830D02*
X279Y830D01*
X668Y830D02*
X708Y830D01*
X1097Y830D02*
X1138Y830D01*
X1373Y830D02*
X1376Y830D01*
X1Y829D02*
X4Y829D01*
X240Y829D02*
X276Y829D01*
X670Y829D02*
X706Y829D01*
X1100Y829D02*
X1135Y829D01*
X1373Y829D02*
X1376Y829D01*
X1Y828D02*
X4Y828D01*
X244Y828D02*
X272Y828D01*
X674Y828D02*
X702Y828D01*
X1103Y828D02*
X1132Y828D01*
X1373Y828D02*
X1376Y828D01*
X1Y827D02*
X4Y827D01*
X248Y827D02*
X268Y827D01*
X678Y827D02*
X698Y827D01*
X1108Y827D02*
X1128Y827D01*
X1373Y827D02*
X1376Y827D01*
X1Y826D02*
X4Y826D01*
X1373Y826D02*
X1376Y826D01*
X1Y825D02*
X4Y825D01*
X1373Y825D02*
X1376Y825D01*
X1Y824D02*
X4Y824D01*
X1373Y824D02*
X1376Y824D01*
X1Y823D02*
X4Y823D01*
X1373Y823D02*
X1376Y823D01*
X1Y822D02*
X4Y822D01*
X1373Y822D02*
X1376Y822D01*
X1Y821D02*
X4Y821D01*
X1373Y821D02*
X1376Y821D01*
X1Y820D02*
X4Y820D01*
X1373Y820D02*
X1376Y820D01*
X1Y819D02*
X4Y819D01*
X1373Y819D02*
X1376Y819D01*
X1Y818D02*
X4Y818D01*
X1373Y818D02*
X1376Y818D01*
X1Y817D02*
X4Y817D01*
X1373Y817D02*
X1376Y817D01*
X1Y816D02*
X4Y816D01*
X1373Y816D02*
X1376Y816D01*
X1Y815D02*
X4Y815D01*
X1373Y815D02*
X1376Y815D01*
X1Y814D02*
X4Y814D01*
X1373Y814D02*
X1376Y814D01*
X1Y813D02*
X4Y813D01*
X1373Y813D02*
X1376Y813D01*
X1Y812D02*
X4Y812D01*
X1373Y812D02*
X1376Y812D01*
X1Y811D02*
X4Y811D01*
X1373Y811D02*
X1376Y811D01*
X1Y810D02*
X4Y810D01*
X1373Y810D02*
X1376Y810D01*
X1Y809D02*
X4Y809D01*
X1373Y809D02*
X1376Y809D01*
X1Y808D02*
X4Y808D01*
X1373Y808D02*
X1376Y808D01*
X1Y807D02*
X4Y807D01*
X1373Y807D02*
X1376Y807D01*
X1Y806D02*
X4Y806D01*
X1373Y806D02*
X1376Y806D01*
X1Y805D02*
X4Y805D01*
X1373Y805D02*
X1376Y805D01*
X1Y804D02*
X4Y804D01*
X1373Y804D02*
X1376Y804D01*
X1Y803D02*
X4Y803D01*
X1373Y803D02*
X1376Y803D01*
X1Y802D02*
X4Y802D01*
X1373Y802D02*
X1376Y802D01*
X1Y801D02*
X4Y801D01*
X1373Y801D02*
X1376Y801D01*
X1Y800D02*
X4Y800D01*
X1373Y800D02*
X1376Y800D01*
X1Y799D02*
X4Y799D01*
X1373Y799D02*
X1376Y799D01*
X1Y798D02*
X4Y798D01*
X1373Y798D02*
X1376Y798D01*
X1Y797D02*
X4Y797D01*
X1373Y797D02*
X1376Y797D01*
X1Y796D02*
X4Y796D01*
X1373Y796D02*
X1376Y796D01*
X1Y795D02*
X4Y795D01*
X1373Y795D02*
X1376Y795D01*
X1Y794D02*
X4Y794D01*
X1373Y794D02*
X1376Y794D01*
X1Y793D02*
X4Y793D01*
X1373Y793D02*
X1376Y793D01*
X1Y792D02*
X4Y792D01*
X1373Y792D02*
X1376Y792D01*
X1Y791D02*
X4Y791D01*
X1373Y791D02*
X1376Y791D01*
X1Y790D02*
X4Y790D01*
X1373Y790D02*
X1376Y790D01*
X1Y789D02*
X4Y789D01*
X1373Y789D02*
X1376Y789D01*
X1Y788D02*
X4Y788D01*
X1373Y788D02*
X1376Y788D01*
X1Y787D02*
X4Y787D01*
X1373Y787D02*
X1376Y787D01*
X1Y786D02*
X4Y786D01*
X1373Y786D02*
X1376Y786D01*
X1Y785D02*
X4Y785D01*
X1373Y785D02*
X1376Y785D01*
X1Y784D02*
X4Y784D01*
X1373Y784D02*
X1376Y784D01*
X1Y783D02*
X4Y783D01*
X1373Y783D02*
X1376Y783D01*
X1Y782D02*
X4Y782D01*
X1373Y782D02*
X1376Y782D01*
X1Y781D02*
X4Y781D01*
X1373Y781D02*
X1376Y781D01*
X1Y780D02*
X4Y780D01*
X1373Y780D02*
X1376Y780D01*
X1Y779D02*
X4Y779D01*
X1373Y779D02*
X1376Y779D01*
X1Y778D02*
X4Y778D01*
X1373Y778D02*
X1376Y778D01*
X1Y777D02*
X4Y777D01*
X1373Y777D02*
X1376Y777D01*
X1Y776D02*
X4Y776D01*
X1373Y776D02*
X1376Y776D01*
X1Y775D02*
X4Y775D01*
X1373Y775D02*
X1376Y775D01*
X1Y774D02*
X4Y774D01*
X1373Y774D02*
X1376Y774D01*
X1Y773D02*
X4Y773D01*
X1373Y773D02*
X1376Y773D01*
X1Y772D02*
X4Y772D01*
X1373Y772D02*
X1376Y772D01*
X1Y771D02*
X4Y771D01*
X1373Y771D02*
X1376Y771D01*
X1Y770D02*
X4Y770D01*
X1373Y770D02*
X1376Y770D01*
X1Y769D02*
X4Y769D01*
X1373Y769D02*
X1376Y769D01*
X1Y768D02*
X4Y768D01*
X1373Y768D02*
X1376Y768D01*
X1Y767D02*
X4Y767D01*
X1373Y767D02*
X1376Y767D01*
X1Y766D02*
X4Y766D01*
X1373Y766D02*
X1376Y766D01*
X1Y765D02*
X4Y765D01*
X1373Y765D02*
X1376Y765D01*
X1Y764D02*
X4Y764D01*
X1373Y764D02*
X1376Y764D01*
X1Y763D02*
X4Y763D01*
X1373Y763D02*
X1376Y763D01*
X1Y762D02*
X4Y762D01*
X1373Y762D02*
X1376Y762D01*
X1Y761D02*
X4Y761D01*
X1373Y761D02*
X1376Y761D01*
X1Y760D02*
X4Y760D01*
X1373Y760D02*
X1376Y760D01*
X1Y759D02*
X4Y759D01*
X1373Y759D02*
X1376Y759D01*
X1Y758D02*
X4Y758D01*
X1373Y758D02*
X1376Y758D01*
X1Y757D02*
X4Y757D01*
X1373Y757D02*
X1376Y757D01*
X1Y756D02*
X4Y756D01*
X1373Y756D02*
X1376Y756D01*
X1Y755D02*
X4Y755D01*
X1373Y755D02*
X1376Y755D01*
X1Y754D02*
X4Y754D01*
X1373Y754D02*
X1376Y754D01*
X1Y753D02*
X4Y753D01*
X1373Y753D02*
X1376Y753D01*
X1Y752D02*
X4Y752D01*
X1373Y752D02*
X1376Y752D01*
X1Y751D02*
X4Y751D01*
X1373Y751D02*
X1376Y751D01*
X1Y750D02*
X4Y750D01*
X1373Y750D02*
X1376Y750D01*
X1Y749D02*
X4Y749D01*
X1373Y749D02*
X1376Y749D01*
X1Y748D02*
X4Y748D01*
X1373Y748D02*
X1376Y748D01*
X1Y747D02*
X4Y747D01*
X1373Y747D02*
X1376Y747D01*
X1Y746D02*
X4Y746D01*
X1373Y746D02*
X1376Y746D01*
X1Y745D02*
X4Y745D01*
X1373Y745D02*
X1376Y745D01*
X1Y744D02*
X4Y744D01*
X1373Y744D02*
X1376Y744D01*
X1Y743D02*
X4Y743D01*
X1373Y743D02*
X1376Y743D01*
X1Y742D02*
X4Y742D01*
X1373Y742D02*
X1376Y742D01*
X1Y741D02*
X4Y741D01*
X1373Y741D02*
X1376Y741D01*
X1Y740D02*
X4Y740D01*
X1373Y740D02*
X1376Y740D01*
X1Y739D02*
X4Y739D01*
X1373Y739D02*
X1376Y739D01*
X1Y738D02*
X4Y738D01*
X1373Y738D02*
X1376Y738D01*
X1Y737D02*
X4Y737D01*
X1373Y737D02*
X1376Y737D01*
X1Y736D02*
X4Y736D01*
X1373Y736D02*
X1376Y736D01*
X1Y735D02*
X4Y735D01*
X1373Y735D02*
X1376Y735D01*
X1Y734D02*
X4Y734D01*
X1373Y734D02*
X1376Y734D01*
X1Y733D02*
X4Y733D01*
X1373Y733D02*
X1376Y733D01*
X1Y732D02*
X4Y732D01*
X1373Y732D02*
X1376Y732D01*
X1Y731D02*
X4Y731D01*
X1373Y731D02*
X1376Y731D01*
X1Y730D02*
X4Y730D01*
X1373Y730D02*
X1376Y730D01*
X1Y729D02*
X4Y729D01*
X1373Y729D02*
X1376Y729D01*
X1Y728D02*
X4Y728D01*
X1373Y728D02*
X1376Y728D01*
X1Y727D02*
X4Y727D01*
X1373Y727D02*
X1376Y727D01*
X1Y726D02*
X4Y726D01*
X1373Y726D02*
X1376Y726D01*
X1Y725D02*
X4Y725D01*
X1373Y725D02*
X1376Y725D01*
X1Y724D02*
X4Y724D01*
X1373Y724D02*
X1376Y724D01*
X1Y723D02*
X4Y723D01*
X1373Y723D02*
X1376Y723D01*
X1Y722D02*
X4Y722D01*
X1373Y722D02*
X1376Y722D01*
X1Y721D02*
X4Y721D01*
X1373Y721D02*
X1376Y721D01*
X1Y720D02*
X4Y720D01*
X1373Y720D02*
X1376Y720D01*
X1Y719D02*
X4Y719D01*
X1373Y719D02*
X1376Y719D01*
X1Y718D02*
X4Y718D01*
X1373Y718D02*
X1376Y718D01*
X1Y717D02*
X4Y717D01*
X1373Y717D02*
X1376Y717D01*
X1Y716D02*
X4Y716D01*
X1373Y716D02*
X1376Y716D01*
X1Y715D02*
X4Y715D01*
X1373Y715D02*
X1376Y715D01*
X1Y714D02*
X4Y714D01*
X1373Y714D02*
X1376Y714D01*
X1Y713D02*
X4Y713D01*
X1373Y713D02*
X1376Y713D01*
X1Y712D02*
X4Y712D01*
X1373Y712D02*
X1376Y712D01*
X1Y711D02*
X4Y711D01*
X1373Y711D02*
X1376Y711D01*
X1Y710D02*
X4Y710D01*
X1373Y710D02*
X1376Y710D01*
X1Y709D02*
X4Y709D01*
X1373Y709D02*
X1376Y709D01*
X1Y708D02*
X4Y708D01*
X1373Y708D02*
X1376Y708D01*
X1Y707D02*
X4Y707D01*
X1373Y707D02*
X1376Y707D01*
X1Y706D02*
X4Y706D01*
X1373Y706D02*
X1376Y706D01*
X1Y705D02*
X4Y705D01*
X1373Y705D02*
X1376Y705D01*
X1Y704D02*
X4Y704D01*
X1373Y704D02*
X1376Y704D01*
X1Y703D02*
X4Y703D01*
X1373Y703D02*
X1376Y703D01*
X1Y702D02*
X4Y702D01*
X1373Y702D02*
X1376Y702D01*
X1Y701D02*
X4Y701D01*
X1373Y701D02*
X1376Y701D01*
X1Y700D02*
X4Y700D01*
X1373Y700D02*
X1376Y700D01*
X1Y699D02*
X4Y699D01*
X1373Y699D02*
X1376Y699D01*
X1Y698D02*
X4Y698D01*
X1373Y698D02*
X1376Y698D01*
X1Y697D02*
X4Y697D01*
X1373Y697D02*
X1376Y697D01*
X1Y696D02*
X4Y696D01*
X1373Y696D02*
X1376Y696D01*
X1Y695D02*
X4Y695D01*
X1373Y695D02*
X1376Y695D01*
X1Y694D02*
X4Y694D01*
X1373Y694D02*
X1376Y694D01*
X1Y693D02*
X4Y693D01*
X1373Y693D02*
X1376Y693D01*
X1Y692D02*
X4Y692D01*
X1373Y692D02*
X1376Y692D01*
X1Y691D02*
X4Y691D01*
X1373Y691D02*
X1376Y691D01*
X1Y690D02*
X4Y690D01*
X1373Y690D02*
X1376Y690D01*
X1Y689D02*
X4Y689D01*
X1373Y689D02*
X1376Y689D01*
X1Y688D02*
X4Y688D01*
X1373Y688D02*
X1376Y688D01*
X1Y687D02*
X4Y687D01*
X1373Y687D02*
X1376Y687D01*
X1Y686D02*
X4Y686D01*
X1373Y686D02*
X1376Y686D01*
X1Y685D02*
X4Y685D01*
X1373Y685D02*
X1376Y685D01*
X1Y684D02*
X4Y684D01*
X1373Y684D02*
X1376Y684D01*
X1Y683D02*
X4Y683D01*
X1373Y683D02*
X1376Y683D01*
X1Y682D02*
X4Y682D01*
X1373Y682D02*
X1376Y682D01*
X1Y681D02*
X4Y681D01*
X1373Y681D02*
X1376Y681D01*
X1Y680D02*
X4Y680D01*
X1373Y680D02*
X1376Y680D01*
X1Y679D02*
X4Y679D01*
X1373Y679D02*
X1376Y679D01*
X1Y678D02*
X4Y678D01*
X1373Y678D02*
X1376Y678D01*
X1Y677D02*
X4Y677D01*
X1373Y677D02*
X1376Y677D01*
X1Y676D02*
X4Y676D01*
X1373Y676D02*
X1376Y676D01*
X1Y675D02*
X4Y675D01*
X1373Y675D02*
X1376Y675D01*
X1Y674D02*
X4Y674D01*
X1373Y674D02*
X1376Y674D01*
X1Y673D02*
X4Y673D01*
X1373Y673D02*
X1376Y673D01*
X1Y672D02*
X4Y672D01*
X1373Y672D02*
X1376Y672D01*
X1Y671D02*
X4Y671D01*
X1373Y671D02*
X1376Y671D01*
X1Y670D02*
X4Y670D01*
X1373Y670D02*
X1376Y670D01*
X1Y669D02*
X4Y669D01*
X1373Y669D02*
X1376Y669D01*
X1Y668D02*
X4Y668D01*
X1373Y668D02*
X1376Y668D01*
X1Y667D02*
X4Y667D01*
X1373Y667D02*
X1376Y667D01*
X1Y666D02*
X4Y666D01*
X1373Y666D02*
X1376Y666D01*
X1Y665D02*
X4Y665D01*
X1373Y665D02*
X1376Y665D01*
X1Y664D02*
X4Y664D01*
X1373Y664D02*
X1376Y664D01*
X1Y663D02*
X4Y663D01*
X1373Y663D02*
X1376Y663D01*
X1Y662D02*
X4Y662D01*
X1373Y662D02*
X1376Y662D01*
X1Y661D02*
X4Y661D01*
X1373Y661D02*
X1376Y661D01*
X1Y660D02*
X4Y660D01*
X1373Y660D02*
X1376Y660D01*
X1Y659D02*
X4Y659D01*
X1373Y659D02*
X1376Y659D01*
X1Y658D02*
X4Y658D01*
X1373Y658D02*
X1376Y658D01*
X1Y657D02*
X4Y657D01*
X1373Y657D02*
X1376Y657D01*
X1Y656D02*
X4Y656D01*
X1373Y656D02*
X1376Y656D01*
X1Y655D02*
X4Y655D01*
X1373Y655D02*
X1376Y655D01*
X1Y654D02*
X4Y654D01*
X1373Y654D02*
X1376Y654D01*
X1Y653D02*
X4Y653D01*
X1373Y653D02*
X1376Y653D01*
X1Y652D02*
X4Y652D01*
X1373Y652D02*
X1376Y652D01*
X1Y651D02*
X4Y651D01*
X1373Y651D02*
X1376Y651D01*
X1Y650D02*
X4Y650D01*
X1373Y650D02*
X1376Y650D01*
X1Y649D02*
X4Y649D01*
X1373Y649D02*
X1376Y649D01*
X1Y648D02*
X4Y648D01*
X1373Y648D02*
X1376Y648D01*
X1Y647D02*
X4Y647D01*
X1373Y647D02*
X1376Y647D01*
X1Y646D02*
X4Y646D01*
X1373Y646D02*
X1376Y646D01*
X1Y645D02*
X4Y645D01*
X1373Y645D02*
X1376Y645D01*
X1Y644D02*
X4Y644D01*
X1373Y644D02*
X1376Y644D01*
X1Y643D02*
X4Y643D01*
X1373Y643D02*
X1376Y643D01*
X1Y642D02*
X4Y642D01*
X1373Y642D02*
X1376Y642D01*
X1Y641D02*
X4Y641D01*
X1373Y641D02*
X1376Y641D01*
X1Y640D02*
X4Y640D01*
X1373Y640D02*
X1376Y640D01*
X1Y639D02*
X4Y639D01*
X1373Y639D02*
X1376Y639D01*
X1Y638D02*
X4Y638D01*
X1373Y638D02*
X1376Y638D01*
X1Y637D02*
X4Y637D01*
X1373Y637D02*
X1376Y637D01*
X1Y636D02*
X4Y636D01*
X1373Y636D02*
X1376Y636D01*
X1Y635D02*
X4Y635D01*
X1373Y635D02*
X1376Y635D01*
X1Y634D02*
X4Y634D01*
X1373Y634D02*
X1376Y634D01*
X1Y633D02*
X4Y633D01*
X1373Y633D02*
X1376Y633D01*
X1Y632D02*
X4Y632D01*
X1373Y632D02*
X1376Y632D01*
X1Y631D02*
X4Y631D01*
X1373Y631D02*
X1376Y631D01*
X1Y630D02*
X4Y630D01*
X1373Y630D02*
X1376Y630D01*
X1Y629D02*
X4Y629D01*
X1373Y629D02*
X1376Y629D01*
X1Y628D02*
X4Y628D01*
X1373Y628D02*
X1376Y628D01*
X1Y627D02*
X4Y627D01*
X1373Y627D02*
X1376Y627D01*
X1Y626D02*
X4Y626D01*
X1373Y626D02*
X1376Y626D01*
X1Y625D02*
X4Y625D01*
X1373Y625D02*
X1376Y625D01*
X1Y624D02*
X4Y624D01*
X1373Y624D02*
X1376Y624D01*
X1Y623D02*
X4Y623D01*
X1373Y623D02*
X1376Y623D01*
X1Y622D02*
X4Y622D01*
X1373Y622D02*
X1376Y622D01*
X1Y621D02*
X4Y621D01*
X1373Y621D02*
X1376Y621D01*
X1Y620D02*
X4Y620D01*
X1373Y620D02*
X1376Y620D01*
X1Y619D02*
X4Y619D01*
X1373Y619D02*
X1376Y619D01*
X1Y618D02*
X4Y618D01*
X1373Y618D02*
X1376Y618D01*
X1Y617D02*
X4Y617D01*
X1373Y617D02*
X1376Y617D01*
X1Y616D02*
X4Y616D01*
X1373Y616D02*
X1376Y616D01*
X1Y615D02*
X4Y615D01*
X1373Y615D02*
X1376Y615D01*
X1Y614D02*
X4Y614D01*
X1373Y614D02*
X1376Y614D01*
X1Y613D02*
X4Y613D01*
X1373Y613D02*
X1376Y613D01*
X1Y612D02*
X4Y612D01*
X1373Y612D02*
X1376Y612D01*
X1Y611D02*
X4Y611D01*
X1373Y611D02*
X1376Y611D01*
X1Y610D02*
X4Y610D01*
X1373Y610D02*
X1376Y610D01*
X1Y609D02*
X4Y609D01*
X1373Y609D02*
X1376Y609D01*
X1Y608D02*
X4Y608D01*
X1373Y608D02*
X1376Y608D01*
X1Y607D02*
X4Y607D01*
X1373Y607D02*
X1376Y607D01*
X1Y606D02*
X4Y606D01*
X1373Y606D02*
X1376Y606D01*
X1Y605D02*
X4Y605D01*
X1373Y605D02*
X1376Y605D01*
X1Y604D02*
X4Y604D01*
X1373Y604D02*
X1376Y604D01*
X1Y603D02*
X4Y603D01*
X1373Y603D02*
X1376Y603D01*
X1Y602D02*
X4Y602D01*
X1373Y602D02*
X1376Y602D01*
X1Y601D02*
X4Y601D01*
X1373Y601D02*
X1376Y601D01*
X1Y600D02*
X4Y600D01*
X1373Y600D02*
X1376Y600D01*
X1Y599D02*
X4Y599D01*
X1373Y599D02*
X1376Y599D01*
X1Y598D02*
X4Y598D01*
X1373Y598D02*
X1376Y598D01*
X1Y597D02*
X4Y597D01*
X1373Y597D02*
X1376Y597D01*
X1Y596D02*
X4Y596D01*
X1373Y596D02*
X1376Y596D01*
X1Y595D02*
X4Y595D01*
X1373Y595D02*
X1376Y595D01*
X1Y594D02*
X4Y594D01*
X1373Y594D02*
X1376Y594D01*
X1Y593D02*
X4Y593D01*
X1373Y593D02*
X1376Y593D01*
X1Y592D02*
X4Y592D01*
X211Y592D02*
X1156Y592D01*
X1373Y592D02*
X1376Y592D01*
X1Y591D02*
X4Y591D01*
X210Y591D02*
X1156Y591D01*
X1373Y591D02*
X1376Y591D01*
X1Y590D02*
X4Y590D01*
X210Y590D02*
X1156Y590D01*
X1373Y590D02*
X1376Y590D01*
X1Y589D02*
X4Y589D01*
X210Y589D02*
X1156Y589D01*
X1373Y589D02*
X1376Y589D01*
X1Y588D02*
X4Y588D01*
X210Y588D02*
X1156Y588D01*
X1373Y588D02*
X1376Y588D01*
X1Y587D02*
X4Y587D01*
X210Y587D02*
X214Y587D01*
X1153Y587D02*
X1156Y587D01*
X1373Y587D02*
X1376Y587D01*
X1Y586D02*
X4Y586D01*
X210Y586D02*
X214Y586D01*
X1153Y586D02*
X1156Y586D01*
X1373Y586D02*
X1376Y586D01*
X1Y585D02*
X4Y585D01*
X210Y585D02*
X214Y585D01*
X1153Y585D02*
X1156Y585D01*
X1373Y585D02*
X1376Y585D01*
X1Y584D02*
X4Y584D01*
X210Y584D02*
X214Y584D01*
X1153Y584D02*
X1156Y584D01*
X1373Y584D02*
X1376Y584D01*
X1Y583D02*
X4Y583D01*
X210Y583D02*
X214Y583D01*
X1153Y583D02*
X1156Y583D01*
X1373Y583D02*
X1376Y583D01*
X1Y582D02*
X4Y582D01*
X210Y582D02*
X214Y582D01*
X1153Y582D02*
X1156Y582D01*
X1373Y582D02*
X1376Y582D01*
X1Y581D02*
X4Y581D01*
X210Y581D02*
X214Y581D01*
X1153Y581D02*
X1156Y581D01*
X1373Y581D02*
X1376Y581D01*
X1Y580D02*
X4Y580D01*
X210Y580D02*
X214Y580D01*
X1153Y580D02*
X1156Y580D01*
X1373Y580D02*
X1376Y580D01*
X1Y579D02*
X4Y579D01*
X210Y579D02*
X214Y579D01*
X1153Y579D02*
X1156Y579D01*
X1373Y579D02*
X1376Y579D01*
X1Y578D02*
X4Y578D01*
X210Y578D02*
X214Y578D01*
X1153Y578D02*
X1156Y578D01*
X1373Y578D02*
X1376Y578D01*
X1Y577D02*
X4Y577D01*
X210Y577D02*
X214Y577D01*
X1153Y577D02*
X1157Y577D01*
X1373Y577D02*
X1376Y577D01*
X1Y576D02*
X4Y576D01*
X210Y576D02*
X214Y576D01*
X1153Y576D02*
X1157Y576D01*
X1373Y576D02*
X1376Y576D01*
X1Y575D02*
X4Y575D01*
X210Y575D02*
X214Y575D01*
X1153Y575D02*
X1157Y575D01*
X1373Y575D02*
X1376Y575D01*
X1Y574D02*
X4Y574D01*
X210Y574D02*
X214Y574D01*
X1153Y574D02*
X1157Y574D01*
X1373Y574D02*
X1376Y574D01*
X1Y573D02*
X4Y573D01*
X210Y573D02*
X214Y573D01*
X1153Y573D02*
X1157Y573D01*
X1373Y573D02*
X1376Y573D01*
X1Y572D02*
X4Y572D01*
X210Y572D02*
X214Y572D01*
X1153Y572D02*
X1157Y572D01*
X1373Y572D02*
X1376Y572D01*
X1Y571D02*
X4Y571D01*
X210Y571D02*
X214Y571D01*
X1153Y571D02*
X1157Y571D01*
X1373Y571D02*
X1376Y571D01*
X1Y570D02*
X4Y570D01*
X210Y570D02*
X214Y570D01*
X1154Y570D02*
X1157Y570D01*
X1373Y570D02*
X1376Y570D01*
X1Y569D02*
X4Y569D01*
X210Y569D02*
X214Y569D01*
X1154Y569D02*
X1157Y569D01*
X1373Y569D02*
X1376Y569D01*
X1Y568D02*
X4Y568D01*
X210Y568D02*
X214Y568D01*
X1154Y568D02*
X1157Y568D01*
X1373Y568D02*
X1376Y568D01*
X1Y567D02*
X4Y567D01*
X210Y567D02*
X214Y567D01*
X1154Y567D02*
X1157Y567D01*
X1373Y567D02*
X1376Y567D01*
X1Y566D02*
X4Y566D01*
X210Y566D02*
X214Y566D01*
X1154Y566D02*
X1157Y566D01*
X1373Y566D02*
X1376Y566D01*
X1Y565D02*
X4Y565D01*
X210Y565D02*
X214Y565D01*
X1154Y565D02*
X1157Y565D01*
X1373Y565D02*
X1376Y565D01*
X1Y564D02*
X4Y564D01*
X210Y564D02*
X214Y564D01*
X1154Y564D02*
X1157Y564D01*
X1373Y564D02*
X1376Y564D01*
X1Y563D02*
X4Y563D01*
X210Y563D02*
X214Y563D01*
X1154Y563D02*
X1157Y563D01*
X1373Y563D02*
X1376Y563D01*
X1Y562D02*
X4Y562D01*
X210Y562D02*
X214Y562D01*
X1154Y562D02*
X1157Y562D01*
X1373Y562D02*
X1376Y562D01*
X1Y561D02*
X4Y561D01*
X210Y561D02*
X214Y561D01*
X1154Y561D02*
X1157Y561D01*
X1373Y561D02*
X1376Y561D01*
X1Y560D02*
X4Y560D01*
X210Y560D02*
X214Y560D01*
X1154Y560D02*
X1157Y560D01*
X1373Y560D02*
X1376Y560D01*
X1Y559D02*
X4Y559D01*
X210Y559D02*
X214Y559D01*
X1154Y559D02*
X1157Y559D01*
X1373Y559D02*
X1376Y559D01*
X1Y558D02*
X4Y558D01*
X210Y558D02*
X214Y558D01*
X1154Y558D02*
X1157Y558D01*
X1373Y558D02*
X1376Y558D01*
X1Y557D02*
X4Y557D01*
X210Y557D02*
X214Y557D01*
X1154Y557D02*
X1157Y557D01*
X1373Y557D02*
X1376Y557D01*
X1Y556D02*
X4Y556D01*
X210Y556D02*
X214Y556D01*
X1154Y556D02*
X1157Y556D01*
X1373Y556D02*
X1376Y556D01*
X1Y555D02*
X4Y555D01*
X210Y555D02*
X214Y555D01*
X1154Y555D02*
X1157Y555D01*
X1373Y555D02*
X1376Y555D01*
X1Y554D02*
X4Y554D01*
X210Y554D02*
X214Y554D01*
X1154Y554D02*
X1157Y554D01*
X1373Y554D02*
X1376Y554D01*
X1Y553D02*
X4Y553D01*
X210Y553D02*
X214Y553D01*
X1154Y553D02*
X1157Y553D01*
X1373Y553D02*
X1376Y553D01*
X1Y552D02*
X4Y552D01*
X210Y552D02*
X214Y552D01*
X1154Y552D02*
X1157Y552D01*
X1373Y552D02*
X1376Y552D01*
X1Y551D02*
X4Y551D01*
X210Y551D02*
X214Y551D01*
X1154Y551D02*
X1158Y551D01*
X1373Y551D02*
X1376Y551D01*
X1Y550D02*
X4Y550D01*
X210Y550D02*
X214Y550D01*
X1154Y550D02*
X1158Y550D01*
X1373Y550D02*
X1376Y550D01*
X1Y549D02*
X4Y549D01*
X210Y549D02*
X214Y549D01*
X1154Y549D02*
X1158Y549D01*
X1373Y549D02*
X1376Y549D01*
X1Y548D02*
X4Y548D01*
X210Y548D02*
X214Y548D01*
X1154Y548D02*
X1158Y548D01*
X1373Y548D02*
X1376Y548D01*
X1Y547D02*
X4Y547D01*
X210Y547D02*
X214Y547D01*
X1154Y547D02*
X1158Y547D01*
X1373Y547D02*
X1376Y547D01*
X1Y546D02*
X4Y546D01*
X210Y546D02*
X214Y546D01*
X1154Y546D02*
X1158Y546D01*
X1373Y546D02*
X1376Y546D01*
X1Y545D02*
X4Y545D01*
X210Y545D02*
X214Y545D01*
X1154Y545D02*
X1158Y545D01*
X1373Y545D02*
X1376Y545D01*
X1Y544D02*
X4Y544D01*
X210Y544D02*
X214Y544D01*
X1155Y544D02*
X1158Y544D01*
X1373Y544D02*
X1376Y544D01*
X1Y543D02*
X4Y543D01*
X210Y543D02*
X214Y543D01*
X1155Y543D02*
X1158Y543D01*
X1373Y543D02*
X1376Y543D01*
X1Y542D02*
X4Y542D01*
X210Y542D02*
X214Y542D01*
X1155Y542D02*
X1158Y542D01*
X1373Y542D02*
X1376Y542D01*
X1Y541D02*
X4Y541D01*
X210Y541D02*
X214Y541D01*
X1155Y541D02*
X1158Y541D01*
X1373Y541D02*
X1376Y541D01*
X1Y540D02*
X4Y540D01*
X210Y540D02*
X214Y540D01*
X1155Y540D02*
X1158Y540D01*
X1373Y540D02*
X1376Y540D01*
X1Y539D02*
X4Y539D01*
X210Y539D02*
X214Y539D01*
X1155Y539D02*
X1158Y539D01*
X1373Y539D02*
X1376Y539D01*
X1Y538D02*
X4Y538D01*
X210Y538D02*
X214Y538D01*
X1155Y538D02*
X1158Y538D01*
X1373Y538D02*
X1376Y538D01*
X1Y537D02*
X4Y537D01*
X210Y537D02*
X214Y537D01*
X1155Y537D02*
X1158Y537D01*
X1373Y537D02*
X1376Y537D01*
X1Y536D02*
X4Y536D01*
X210Y536D02*
X214Y536D01*
X1155Y536D02*
X1158Y536D01*
X1373Y536D02*
X1376Y536D01*
X1Y535D02*
X4Y535D01*
X210Y535D02*
X214Y535D01*
X1155Y535D02*
X1158Y535D01*
X1373Y535D02*
X1376Y535D01*
X1Y534D02*
X4Y534D01*
X210Y534D02*
X214Y534D01*
X1155Y534D02*
X1158Y534D01*
X1373Y534D02*
X1376Y534D01*
X1Y533D02*
X4Y533D01*
X210Y533D02*
X214Y533D01*
X1155Y533D02*
X1158Y533D01*
X1373Y533D02*
X1376Y533D01*
X1Y532D02*
X4Y532D01*
X210Y532D02*
X214Y532D01*
X1155Y532D02*
X1158Y532D01*
X1373Y532D02*
X1376Y532D01*
X1Y531D02*
X4Y531D01*
X210Y531D02*
X214Y531D01*
X1155Y531D02*
X1158Y531D01*
X1373Y531D02*
X1376Y531D01*
X1Y530D02*
X4Y530D01*
X210Y530D02*
X214Y530D01*
X1155Y530D02*
X1158Y530D01*
X1373Y530D02*
X1376Y530D01*
X1Y529D02*
X4Y529D01*
X210Y529D02*
X214Y529D01*
X1155Y529D02*
X1158Y529D01*
X1373Y529D02*
X1376Y529D01*
X1Y528D02*
X4Y528D01*
X210Y528D02*
X214Y528D01*
X1155Y528D02*
X1158Y528D01*
X1373Y528D02*
X1376Y528D01*
X1Y527D02*
X4Y527D01*
X210Y527D02*
X214Y527D01*
X1155Y527D02*
X1158Y527D01*
X1373Y527D02*
X1376Y527D01*
X1Y526D02*
X4Y526D01*
X210Y526D02*
X214Y526D01*
X1155Y526D02*
X1158Y526D01*
X1373Y526D02*
X1376Y526D01*
X1Y525D02*
X4Y525D01*
X210Y525D02*
X214Y525D01*
X1155Y525D02*
X1159Y525D01*
X1373Y525D02*
X1376Y525D01*
X1Y524D02*
X4Y524D01*
X210Y524D02*
X214Y524D01*
X1155Y524D02*
X1159Y524D01*
X1373Y524D02*
X1376Y524D01*
X1Y523D02*
X4Y523D01*
X210Y523D02*
X214Y523D01*
X1155Y523D02*
X1159Y523D01*
X1373Y523D02*
X1376Y523D01*
X1Y522D02*
X4Y522D01*
X210Y522D02*
X214Y522D01*
X1155Y522D02*
X1159Y522D01*
X1373Y522D02*
X1376Y522D01*
X1Y521D02*
X4Y521D01*
X210Y521D02*
X214Y521D01*
X1155Y521D02*
X1159Y521D01*
X1373Y521D02*
X1376Y521D01*
X1Y520D02*
X4Y520D01*
X210Y520D02*
X214Y520D01*
X1155Y520D02*
X1159Y520D01*
X1373Y520D02*
X1376Y520D01*
X1Y519D02*
X4Y519D01*
X210Y519D02*
X214Y519D01*
X1155Y519D02*
X1159Y519D01*
X1373Y519D02*
X1376Y519D01*
X1Y518D02*
X4Y518D01*
X210Y518D02*
X214Y518D01*
X1156Y518D02*
X1159Y518D01*
X1373Y518D02*
X1376Y518D01*
X1Y517D02*
X4Y517D01*
X210Y517D02*
X214Y517D01*
X1156Y517D02*
X1159Y517D01*
X1373Y517D02*
X1376Y517D01*
X1Y516D02*
X4Y516D01*
X210Y516D02*
X214Y516D01*
X1156Y516D02*
X1159Y516D01*
X1373Y516D02*
X1376Y516D01*
X1Y515D02*
X4Y515D01*
X210Y515D02*
X214Y515D01*
X1156Y515D02*
X1159Y515D01*
X1373Y515D02*
X1376Y515D01*
X1Y514D02*
X4Y514D01*
X210Y514D02*
X214Y514D01*
X1156Y514D02*
X1159Y514D01*
X1373Y514D02*
X1376Y514D01*
X1Y513D02*
X4Y513D01*
X210Y513D02*
X214Y513D01*
X1156Y513D02*
X1159Y513D01*
X1373Y513D02*
X1376Y513D01*
X1Y512D02*
X4Y512D01*
X210Y512D02*
X214Y512D01*
X1156Y512D02*
X1159Y512D01*
X1373Y512D02*
X1376Y512D01*
X1Y511D02*
X4Y511D01*
X210Y511D02*
X214Y511D01*
X1156Y511D02*
X1159Y511D01*
X1373Y511D02*
X1376Y511D01*
X1Y510D02*
X4Y510D01*
X210Y510D02*
X214Y510D01*
X1156Y510D02*
X1159Y510D01*
X1373Y510D02*
X1376Y510D01*
X1Y509D02*
X4Y509D01*
X210Y509D02*
X214Y509D01*
X1156Y509D02*
X1159Y509D01*
X1373Y509D02*
X1376Y509D01*
X1Y508D02*
X4Y508D01*
X210Y508D02*
X214Y508D01*
X1156Y508D02*
X1159Y508D01*
X1373Y508D02*
X1376Y508D01*
X1Y507D02*
X4Y507D01*
X210Y507D02*
X214Y507D01*
X1156Y507D02*
X1159Y507D01*
X1373Y507D02*
X1376Y507D01*
X1Y506D02*
X4Y506D01*
X210Y506D02*
X214Y506D01*
X1156Y506D02*
X1159Y506D01*
X1373Y506D02*
X1376Y506D01*
X1Y505D02*
X4Y505D01*
X210Y505D02*
X214Y505D01*
X1156Y505D02*
X1159Y505D01*
X1373Y505D02*
X1376Y505D01*
X1Y504D02*
X4Y504D01*
X210Y504D02*
X214Y504D01*
X1156Y504D02*
X1159Y504D01*
X1373Y504D02*
X1376Y504D01*
X1Y503D02*
X4Y503D01*
X210Y503D02*
X214Y503D01*
X1156Y503D02*
X1159Y503D01*
X1373Y503D02*
X1376Y503D01*
X1Y502D02*
X4Y502D01*
X210Y502D02*
X214Y502D01*
X1156Y502D02*
X1159Y502D01*
X1373Y502D02*
X1376Y502D01*
X1Y501D02*
X4Y501D01*
X210Y501D02*
X214Y501D01*
X1156Y501D02*
X1159Y501D01*
X1373Y501D02*
X1376Y501D01*
X1Y500D02*
X79Y500D01*
X210Y500D02*
X214Y500D01*
X1156Y500D02*
X1159Y500D01*
X1299Y500D02*
X1376Y500D01*
X1Y499D02*
X79Y499D01*
X210Y499D02*
X214Y499D01*
X1156Y499D02*
X1160Y499D01*
X1298Y499D02*
X1376Y499D01*
X1Y498D02*
X79Y498D01*
X210Y498D02*
X214Y498D01*
X1156Y498D02*
X1160Y498D01*
X1298Y498D02*
X1376Y498D01*
X1Y497D02*
X79Y497D01*
X210Y497D02*
X214Y497D01*
X1156Y497D02*
X1160Y497D01*
X1298Y497D02*
X1376Y497D01*
X1Y496D02*
X4Y496D01*
X76Y496D02*
X79Y496D01*
X210Y496D02*
X214Y496D01*
X1156Y496D02*
X1160Y496D01*
X1298Y496D02*
X1302Y496D01*
X1Y495D02*
X4Y495D01*
X76Y495D02*
X79Y495D01*
X210Y495D02*
X214Y495D01*
X1156Y495D02*
X1160Y495D01*
X1298Y495D02*
X1302Y495D01*
X1Y494D02*
X4Y494D01*
X76Y494D02*
X79Y494D01*
X210Y494D02*
X214Y494D01*
X1156Y494D02*
X1160Y494D01*
X1298Y494D02*
X1302Y494D01*
X1Y493D02*
X4Y493D01*
X76Y493D02*
X79Y493D01*
X210Y493D02*
X214Y493D01*
X1156Y493D02*
X1160Y493D01*
X1298Y493D02*
X1302Y493D01*
X1Y492D02*
X4Y492D01*
X76Y492D02*
X79Y492D01*
X210Y492D02*
X214Y492D01*
X1157Y492D02*
X1160Y492D01*
X1298Y492D02*
X1302Y492D01*
X1Y491D02*
X4Y491D01*
X76Y491D02*
X79Y491D01*
X210Y491D02*
X214Y491D01*
X1157Y491D02*
X1160Y491D01*
X1298Y491D02*
X1302Y491D01*
X1Y490D02*
X4Y490D01*
X76Y490D02*
X79Y490D01*
X210Y490D02*
X214Y490D01*
X1157Y490D02*
X1160Y490D01*
X1298Y490D02*
X1302Y490D01*
X1Y489D02*
X4Y489D01*
X76Y489D02*
X79Y489D01*
X210Y489D02*
X214Y489D01*
X1157Y489D02*
X1160Y489D01*
X1298Y489D02*
X1302Y489D01*
X1Y488D02*
X4Y488D01*
X76Y488D02*
X79Y488D01*
X210Y488D02*
X214Y488D01*
X1157Y488D02*
X1160Y488D01*
X1298Y488D02*
X1302Y488D01*
X1Y487D02*
X4Y487D01*
X76Y487D02*
X79Y487D01*
X210Y487D02*
X214Y487D01*
X1157Y487D02*
X1160Y487D01*
X1298Y487D02*
X1302Y487D01*
X1Y486D02*
X4Y486D01*
X76Y486D02*
X79Y486D01*
X210Y486D02*
X214Y486D01*
X1157Y486D02*
X1160Y486D01*
X1298Y486D02*
X1302Y486D01*
X1Y485D02*
X4Y485D01*
X76Y485D02*
X79Y485D01*
X210Y485D02*
X214Y485D01*
X1157Y485D02*
X1160Y485D01*
X1298Y485D02*
X1302Y485D01*
X1Y484D02*
X4Y484D01*
X76Y484D02*
X79Y484D01*
X210Y484D02*
X214Y484D01*
X1157Y484D02*
X1160Y484D01*
X1298Y484D02*
X1302Y484D01*
X1Y483D02*
X4Y483D01*
X76Y483D02*
X79Y483D01*
X210Y483D02*
X214Y483D01*
X1157Y483D02*
X1160Y483D01*
X1298Y483D02*
X1302Y483D01*
X1Y482D02*
X4Y482D01*
X76Y482D02*
X79Y482D01*
X210Y482D02*
X214Y482D01*
X1157Y482D02*
X1160Y482D01*
X1298Y482D02*
X1302Y482D01*
X1Y481D02*
X4Y481D01*
X76Y481D02*
X79Y481D01*
X210Y481D02*
X214Y481D01*
X1157Y481D02*
X1160Y481D01*
X1298Y481D02*
X1302Y481D01*
X1Y480D02*
X4Y480D01*
X76Y480D02*
X79Y480D01*
X210Y480D02*
X214Y480D01*
X1157Y480D02*
X1160Y480D01*
X1298Y480D02*
X1302Y480D01*
X1Y479D02*
X4Y479D01*
X76Y479D02*
X79Y479D01*
X210Y479D02*
X214Y479D01*
X1157Y479D02*
X1160Y479D01*
X1298Y479D02*
X1302Y479D01*
X1Y478D02*
X4Y478D01*
X76Y478D02*
X79Y478D01*
X210Y478D02*
X214Y478D01*
X1157Y478D02*
X1160Y478D01*
X1298Y478D02*
X1302Y478D01*
X1Y477D02*
X4Y477D01*
X76Y477D02*
X79Y477D01*
X210Y477D02*
X214Y477D01*
X1157Y477D02*
X1160Y477D01*
X1298Y477D02*
X1302Y477D01*
X1Y476D02*
X4Y476D01*
X76Y476D02*
X79Y476D01*
X210Y476D02*
X214Y476D01*
X1157Y476D02*
X1160Y476D01*
X1298Y476D02*
X1302Y476D01*
X1Y475D02*
X4Y475D01*
X76Y475D02*
X79Y475D01*
X210Y475D02*
X214Y475D01*
X1157Y475D02*
X1160Y475D01*
X1298Y475D02*
X1302Y475D01*
X1Y474D02*
X4Y474D01*
X76Y474D02*
X79Y474D01*
X210Y474D02*
X214Y474D01*
X1157Y474D02*
X1160Y474D01*
X1298Y474D02*
X1302Y474D01*
X1Y473D02*
X4Y473D01*
X76Y473D02*
X79Y473D01*
X210Y473D02*
X214Y473D01*
X1157Y473D02*
X1161Y473D01*
X1298Y473D02*
X1302Y473D01*
X1Y472D02*
X4Y472D01*
X76Y472D02*
X79Y472D01*
X210Y472D02*
X214Y472D01*
X1157Y472D02*
X1161Y472D01*
X1298Y472D02*
X1302Y472D01*
X1Y471D02*
X4Y471D01*
X76Y471D02*
X79Y471D01*
X210Y471D02*
X214Y471D01*
X1157Y471D02*
X1161Y471D01*
X1298Y471D02*
X1302Y471D01*
X1Y470D02*
X4Y470D01*
X76Y470D02*
X79Y470D01*
X210Y470D02*
X214Y470D01*
X1157Y470D02*
X1161Y470D01*
X1298Y470D02*
X1302Y470D01*
X1Y469D02*
X4Y469D01*
X76Y469D02*
X79Y469D01*
X210Y469D02*
X214Y469D01*
X1157Y469D02*
X1161Y469D01*
X1298Y469D02*
X1302Y469D01*
X1Y468D02*
X4Y468D01*
X76Y468D02*
X79Y468D01*
X210Y468D02*
X214Y468D01*
X1157Y468D02*
X1161Y468D01*
X1298Y468D02*
X1302Y468D01*
X1Y467D02*
X4Y467D01*
X76Y467D02*
X79Y467D01*
X210Y467D02*
X214Y467D01*
X1157Y467D02*
X1161Y467D01*
X1298Y467D02*
X1302Y467D01*
X1Y466D02*
X4Y466D01*
X76Y466D02*
X79Y466D01*
X210Y466D02*
X214Y466D01*
X1158Y466D02*
X1161Y466D01*
X1298Y466D02*
X1302Y466D01*
X1Y465D02*
X4Y465D01*
X76Y465D02*
X79Y465D01*
X210Y465D02*
X214Y465D01*
X1158Y465D02*
X1161Y465D01*
X1298Y465D02*
X1302Y465D01*
X1Y464D02*
X4Y464D01*
X76Y464D02*
X79Y464D01*
X210Y464D02*
X214Y464D01*
X1158Y464D02*
X1161Y464D01*
X1298Y464D02*
X1302Y464D01*
X1Y463D02*
X4Y463D01*
X76Y463D02*
X79Y463D01*
X210Y463D02*
X214Y463D01*
X1158Y463D02*
X1161Y463D01*
X1298Y463D02*
X1302Y463D01*
X1Y462D02*
X4Y462D01*
X76Y462D02*
X79Y462D01*
X210Y462D02*
X214Y462D01*
X1158Y462D02*
X1161Y462D01*
X1298Y462D02*
X1302Y462D01*
X1Y461D02*
X4Y461D01*
X76Y461D02*
X79Y461D01*
X210Y461D02*
X214Y461D01*
X1158Y461D02*
X1161Y461D01*
X1298Y461D02*
X1302Y461D01*
X1Y460D02*
X4Y460D01*
X76Y460D02*
X79Y460D01*
X210Y460D02*
X214Y460D01*
X1158Y460D02*
X1161Y460D01*
X1298Y460D02*
X1302Y460D01*
X1Y459D02*
X4Y459D01*
X76Y459D02*
X79Y459D01*
X210Y459D02*
X214Y459D01*
X1158Y459D02*
X1161Y459D01*
X1298Y459D02*
X1302Y459D01*
X1Y458D02*
X4Y458D01*
X76Y458D02*
X79Y458D01*
X210Y458D02*
X214Y458D01*
X1158Y458D02*
X1161Y458D01*
X1298Y458D02*
X1302Y458D01*
X1Y457D02*
X4Y457D01*
X76Y457D02*
X79Y457D01*
X210Y457D02*
X214Y457D01*
X1158Y457D02*
X1161Y457D01*
X1298Y457D02*
X1302Y457D01*
X1Y456D02*
X4Y456D01*
X76Y456D02*
X79Y456D01*
X210Y456D02*
X214Y456D01*
X1158Y456D02*
X1161Y456D01*
X1298Y456D02*
X1302Y456D01*
X1Y455D02*
X4Y455D01*
X76Y455D02*
X79Y455D01*
X210Y455D02*
X214Y455D01*
X1158Y455D02*
X1161Y455D01*
X1298Y455D02*
X1302Y455D01*
X1Y454D02*
X4Y454D01*
X76Y454D02*
X79Y454D01*
X210Y454D02*
X214Y454D01*
X1158Y454D02*
X1161Y454D01*
X1298Y454D02*
X1302Y454D01*
X1Y453D02*
X4Y453D01*
X76Y453D02*
X79Y453D01*
X210Y453D02*
X214Y453D01*
X1158Y453D02*
X1161Y453D01*
X1298Y453D02*
X1302Y453D01*
X1Y452D02*
X4Y452D01*
X76Y452D02*
X79Y452D01*
X210Y452D02*
X214Y452D01*
X1158Y452D02*
X1161Y452D01*
X1298Y452D02*
X1302Y452D01*
X1Y451D02*
X4Y451D01*
X76Y451D02*
X79Y451D01*
X210Y451D02*
X214Y451D01*
X1158Y451D02*
X1161Y451D01*
X1298Y451D02*
X1302Y451D01*
X1Y450D02*
X4Y450D01*
X76Y450D02*
X79Y450D01*
X210Y450D02*
X214Y450D01*
X1158Y450D02*
X1161Y450D01*
X1298Y450D02*
X1302Y450D01*
X1Y449D02*
X4Y449D01*
X76Y449D02*
X79Y449D01*
X210Y449D02*
X214Y449D01*
X1158Y449D02*
X1161Y449D01*
X1298Y449D02*
X1302Y449D01*
X1Y448D02*
X4Y448D01*
X76Y448D02*
X79Y448D01*
X210Y448D02*
X214Y448D01*
X1158Y448D02*
X1161Y448D01*
X1298Y448D02*
X1302Y448D01*
X1Y447D02*
X4Y447D01*
X76Y447D02*
X79Y447D01*
X210Y447D02*
X214Y447D01*
X1158Y447D02*
X1161Y447D01*
X1298Y447D02*
X1302Y447D01*
X1Y446D02*
X4Y446D01*
X76Y446D02*
X79Y446D01*
X210Y446D02*
X214Y446D01*
X1158Y446D02*
X1162Y446D01*
X1298Y446D02*
X1302Y446D01*
X1Y445D02*
X4Y445D01*
X76Y445D02*
X79Y445D01*
X210Y445D02*
X214Y445D01*
X1158Y445D02*
X1162Y445D01*
X1298Y445D02*
X1302Y445D01*
X1Y444D02*
X4Y444D01*
X76Y444D02*
X79Y444D01*
X210Y444D02*
X214Y444D01*
X1158Y444D02*
X1162Y444D01*
X1298Y444D02*
X1302Y444D01*
X1Y443D02*
X4Y443D01*
X76Y443D02*
X79Y443D01*
X210Y443D02*
X214Y443D01*
X1158Y443D02*
X1162Y443D01*
X1298Y443D02*
X1302Y443D01*
X1Y442D02*
X4Y442D01*
X76Y442D02*
X79Y442D01*
X210Y442D02*
X214Y442D01*
X1158Y442D02*
X1162Y442D01*
X1298Y442D02*
X1302Y442D01*
X1Y441D02*
X4Y441D01*
X76Y441D02*
X79Y441D01*
X210Y441D02*
X214Y441D01*
X1158Y441D02*
X1162Y441D01*
X1298Y441D02*
X1302Y441D01*
X1Y440D02*
X4Y440D01*
X76Y440D02*
X79Y440D01*
X210Y440D02*
X214Y440D01*
X1158Y440D02*
X1162Y440D01*
X1298Y440D02*
X1302Y440D01*
X1Y439D02*
X4Y439D01*
X76Y439D02*
X79Y439D01*
X210Y439D02*
X214Y439D01*
X1159Y439D02*
X1162Y439D01*
X1298Y439D02*
X1302Y439D01*
X1Y438D02*
X4Y438D01*
X76Y438D02*
X79Y438D01*
X210Y438D02*
X214Y438D01*
X1159Y438D02*
X1162Y438D01*
X1298Y438D02*
X1302Y438D01*
X1Y437D02*
X4Y437D01*
X76Y437D02*
X79Y437D01*
X210Y437D02*
X214Y437D01*
X1159Y437D02*
X1162Y437D01*
X1298Y437D02*
X1302Y437D01*
X1Y436D02*
X4Y436D01*
X76Y436D02*
X79Y436D01*
X210Y436D02*
X214Y436D01*
X1159Y436D02*
X1162Y436D01*
X1298Y436D02*
X1302Y436D01*
X1Y435D02*
X4Y435D01*
X76Y435D02*
X79Y435D01*
X210Y435D02*
X214Y435D01*
X1159Y435D02*
X1162Y435D01*
X1298Y435D02*
X1302Y435D01*
X1Y434D02*
X4Y434D01*
X76Y434D02*
X79Y434D01*
X210Y434D02*
X214Y434D01*
X1159Y434D02*
X1162Y434D01*
X1298Y434D02*
X1302Y434D01*
X1Y433D02*
X4Y433D01*
X76Y433D02*
X79Y433D01*
X210Y433D02*
X214Y433D01*
X1159Y433D02*
X1162Y433D01*
X1298Y433D02*
X1302Y433D01*
X1Y432D02*
X4Y432D01*
X76Y432D02*
X79Y432D01*
X210Y432D02*
X214Y432D01*
X1159Y432D02*
X1162Y432D01*
X1298Y432D02*
X1302Y432D01*
X1Y431D02*
X4Y431D01*
X76Y431D02*
X79Y431D01*
X210Y431D02*
X214Y431D01*
X1159Y431D02*
X1162Y431D01*
X1298Y431D02*
X1302Y431D01*
X1Y430D02*
X4Y430D01*
X76Y430D02*
X79Y430D01*
X210Y430D02*
X214Y430D01*
X1159Y430D02*
X1162Y430D01*
X1298Y430D02*
X1302Y430D01*
X1Y429D02*
X4Y429D01*
X76Y429D02*
X79Y429D01*
X210Y429D02*
X214Y429D01*
X1159Y429D02*
X1162Y429D01*
X1298Y429D02*
X1302Y429D01*
X1Y428D02*
X4Y428D01*
X76Y428D02*
X79Y428D01*
X210Y428D02*
X214Y428D01*
X1159Y428D02*
X1162Y428D01*
X1298Y428D02*
X1302Y428D01*
X1Y427D02*
X4Y427D01*
X76Y427D02*
X79Y427D01*
X210Y427D02*
X214Y427D01*
X1159Y427D02*
X1162Y427D01*
X1298Y427D02*
X1302Y427D01*
X1Y426D02*
X79Y426D01*
X210Y426D02*
X214Y426D01*
X1159Y426D02*
X1162Y426D01*
X1298Y426D02*
X1376Y426D01*
X1Y425D02*
X79Y425D01*
X210Y425D02*
X214Y425D01*
X1159Y425D02*
X1162Y425D01*
X1298Y425D02*
X1376Y425D01*
X1Y424D02*
X79Y424D01*
X210Y424D02*
X214Y424D01*
X1159Y424D02*
X1162Y424D01*
X1298Y424D02*
X1376Y424D01*
X1Y423D02*
X79Y423D01*
X210Y423D02*
X214Y423D01*
X1159Y423D02*
X1162Y423D01*
X1298Y423D02*
X1376Y423D01*
X1Y422D02*
X79Y422D01*
X210Y422D02*
X214Y422D01*
X1159Y422D02*
X1162Y422D01*
X1298Y422D02*
X1376Y422D01*
X1Y421D02*
X4Y421D01*
X210Y421D02*
X214Y421D01*
X1159Y421D02*
X1162Y421D01*
X1373Y421D02*
X1376Y421D01*
X1Y420D02*
X4Y420D01*
X210Y420D02*
X214Y420D01*
X1159Y420D02*
X1163Y420D01*
X1373Y420D02*
X1376Y420D01*
X1Y419D02*
X4Y419D01*
X210Y419D02*
X214Y419D01*
X1159Y419D02*
X1163Y419D01*
X1373Y419D02*
X1376Y419D01*
X1Y418D02*
X4Y418D01*
X210Y418D02*
X214Y418D01*
X1159Y418D02*
X1163Y418D01*
X1373Y418D02*
X1376Y418D01*
X1Y417D02*
X4Y417D01*
X210Y417D02*
X214Y417D01*
X1159Y417D02*
X1163Y417D01*
X1373Y417D02*
X1376Y417D01*
X1Y416D02*
X4Y416D01*
X210Y416D02*
X214Y416D01*
X1159Y416D02*
X1163Y416D01*
X1373Y416D02*
X1376Y416D01*
X1Y415D02*
X4Y415D01*
X210Y415D02*
X214Y415D01*
X1159Y415D02*
X1163Y415D01*
X1373Y415D02*
X1376Y415D01*
X1Y414D02*
X4Y414D01*
X210Y414D02*
X214Y414D01*
X1159Y414D02*
X1163Y414D01*
X1373Y414D02*
X1376Y414D01*
X1Y413D02*
X4Y413D01*
X210Y413D02*
X214Y413D01*
X1160Y413D02*
X1163Y413D01*
X1373Y413D02*
X1376Y413D01*
X1Y412D02*
X4Y412D01*
X210Y412D02*
X214Y412D01*
X1160Y412D02*
X1163Y412D01*
X1373Y412D02*
X1376Y412D01*
X1Y411D02*
X4Y411D01*
X210Y411D02*
X214Y411D01*
X1160Y411D02*
X1163Y411D01*
X1373Y411D02*
X1376Y411D01*
X1Y410D02*
X4Y410D01*
X210Y410D02*
X214Y410D01*
X1160Y410D02*
X1163Y410D01*
X1373Y410D02*
X1376Y410D01*
X1Y409D02*
X4Y409D01*
X210Y409D02*
X214Y409D01*
X1160Y409D02*
X1163Y409D01*
X1373Y409D02*
X1376Y409D01*
X1Y408D02*
X4Y408D01*
X210Y408D02*
X214Y408D01*
X1160Y408D02*
X1163Y408D01*
X1373Y408D02*
X1376Y408D01*
X1Y407D02*
X4Y407D01*
X210Y407D02*
X214Y407D01*
X1160Y407D02*
X1163Y407D01*
X1373Y407D02*
X1376Y407D01*
X1Y406D02*
X4Y406D01*
X210Y406D02*
X214Y406D01*
X1160Y406D02*
X1163Y406D01*
X1373Y406D02*
X1376Y406D01*
X1Y405D02*
X4Y405D01*
X210Y405D02*
X214Y405D01*
X1160Y405D02*
X1163Y405D01*
X1373Y405D02*
X1376Y405D01*
X0Y404D02*
X4Y404D01*
X210Y404D02*
X214Y404D01*
X1160Y404D02*
X1163Y404D01*
X1373Y404D02*
X1376Y404D01*
X0Y403D02*
X4Y403D01*
X210Y403D02*
X214Y403D01*
X1160Y403D02*
X1163Y403D01*
X1373Y403D02*
X1376Y403D01*
X0Y402D02*
X4Y402D01*
X210Y402D02*
X214Y402D01*
X1160Y402D02*
X1163Y402D01*
X1373Y402D02*
X1376Y402D01*
X0Y401D02*
X4Y401D01*
X210Y401D02*
X214Y401D01*
X1160Y401D02*
X1163Y401D01*
X1373Y401D02*
X1376Y401D01*
X0Y400D02*
X4Y400D01*
X210Y400D02*
X214Y400D01*
X1160Y400D02*
X1163Y400D01*
X1373Y400D02*
X1376Y400D01*
X0Y399D02*
X4Y399D01*
X210Y399D02*
X214Y399D01*
X1160Y399D02*
X1163Y399D01*
X1373Y399D02*
X1376Y399D01*
X0Y398D02*
X4Y398D01*
X210Y398D02*
X214Y398D01*
X1160Y398D02*
X1163Y398D01*
X1373Y398D02*
X1376Y398D01*
X0Y397D02*
X4Y397D01*
X210Y397D02*
X214Y397D01*
X1160Y397D02*
X1163Y397D01*
X1373Y397D02*
X1376Y397D01*
X0Y396D02*
X4Y396D01*
X210Y396D02*
X214Y396D01*
X1160Y396D02*
X1163Y396D01*
X1373Y396D02*
X1376Y396D01*
X0Y395D02*
X4Y395D01*
X210Y395D02*
X214Y395D01*
X1160Y395D02*
X1163Y395D01*
X1373Y395D02*
X1376Y395D01*
X0Y394D02*
X4Y394D01*
X210Y394D02*
X214Y394D01*
X1160Y394D02*
X1164Y394D01*
X1373Y394D02*
X1376Y394D01*
X0Y393D02*
X4Y393D01*
X210Y393D02*
X214Y393D01*
X1160Y393D02*
X1164Y393D01*
X1373Y393D02*
X1376Y393D01*
X0Y392D02*
X4Y392D01*
X210Y392D02*
X214Y392D01*
X1160Y392D02*
X1164Y392D01*
X1373Y392D02*
X1376Y392D01*
X0Y391D02*
X4Y391D01*
X210Y391D02*
X214Y391D01*
X1160Y391D02*
X1164Y391D01*
X1373Y391D02*
X1376Y391D01*
X0Y390D02*
X4Y390D01*
X210Y390D02*
X214Y390D01*
X1160Y390D02*
X1164Y390D01*
X1373Y390D02*
X1376Y390D01*
X0Y389D02*
X4Y389D01*
X210Y389D02*
X214Y389D01*
X1160Y389D02*
X1164Y389D01*
X1373Y389D02*
X1376Y389D01*
X0Y388D02*
X4Y388D01*
X210Y388D02*
X214Y388D01*
X1160Y388D02*
X1164Y388D01*
X1373Y388D02*
X1376Y388D01*
X0Y387D02*
X4Y387D01*
X210Y387D02*
X214Y387D01*
X1161Y387D02*
X1164Y387D01*
X1373Y387D02*
X1376Y387D01*
X0Y386D02*
X4Y386D01*
X210Y386D02*
X214Y386D01*
X1161Y386D02*
X1164Y386D01*
X1373Y386D02*
X1376Y386D01*
X0Y385D02*
X4Y385D01*
X210Y385D02*
X214Y385D01*
X1161Y385D02*
X1164Y385D01*
X1373Y385D02*
X1376Y385D01*
X0Y384D02*
X4Y384D01*
X210Y384D02*
X214Y384D01*
X1161Y384D02*
X1164Y384D01*
X1373Y384D02*
X1376Y384D01*
X0Y383D02*
X4Y383D01*
X210Y383D02*
X214Y383D01*
X1161Y383D02*
X1164Y383D01*
X1373Y383D02*
X1376Y383D01*
X0Y382D02*
X4Y382D01*
X210Y382D02*
X214Y382D01*
X1161Y382D02*
X1164Y382D01*
X1373Y382D02*
X1376Y382D01*
X0Y381D02*
X4Y381D01*
X210Y381D02*
X214Y381D01*
X1161Y381D02*
X1164Y381D01*
X1373Y381D02*
X1376Y381D01*
X0Y380D02*
X4Y380D01*
X210Y380D02*
X214Y380D01*
X1161Y380D02*
X1164Y380D01*
X1373Y380D02*
X1376Y380D01*
X0Y379D02*
X4Y379D01*
X210Y379D02*
X214Y379D01*
X1161Y379D02*
X1164Y379D01*
X1373Y379D02*
X1376Y379D01*
X0Y378D02*
X4Y378D01*
X210Y378D02*
X214Y378D01*
X1161Y378D02*
X1164Y378D01*
X1373Y378D02*
X1376Y378D01*
X0Y377D02*
X4Y377D01*
X210Y377D02*
X214Y377D01*
X1161Y377D02*
X1164Y377D01*
X1373Y377D02*
X1376Y377D01*
X0Y376D02*
X4Y376D01*
X210Y376D02*
X214Y376D01*
X1161Y376D02*
X1164Y376D01*
X1373Y376D02*
X1376Y376D01*
X0Y375D02*
X4Y375D01*
X210Y375D02*
X214Y375D01*
X1161Y375D02*
X1164Y375D01*
X1373Y375D02*
X1376Y375D01*
X0Y374D02*
X4Y374D01*
X210Y374D02*
X214Y374D01*
X1161Y374D02*
X1164Y374D01*
X1373Y374D02*
X1376Y374D01*
X0Y373D02*
X4Y373D01*
X210Y373D02*
X214Y373D01*
X1161Y373D02*
X1164Y373D01*
X1373Y373D02*
X1376Y373D01*
X0Y372D02*
X4Y372D01*
X210Y372D02*
X214Y372D01*
X1161Y372D02*
X1164Y372D01*
X1373Y372D02*
X1376Y372D01*
X0Y371D02*
X4Y371D01*
X210Y371D02*
X214Y371D01*
X1161Y371D02*
X1164Y371D01*
X1373Y371D02*
X1376Y371D01*
X0Y370D02*
X4Y370D01*
X210Y370D02*
X214Y370D01*
X1161Y370D02*
X1164Y370D01*
X1373Y370D02*
X1376Y370D01*
X0Y369D02*
X4Y369D01*
X210Y369D02*
X214Y369D01*
X1161Y369D02*
X1164Y369D01*
X1373Y369D02*
X1376Y369D01*
X0Y368D02*
X4Y368D01*
X210Y368D02*
X214Y368D01*
X1161Y368D02*
X1165Y368D01*
X1373Y368D02*
X1376Y368D01*
X0Y367D02*
X4Y367D01*
X210Y367D02*
X214Y367D01*
X1161Y367D02*
X1165Y367D01*
X1373Y367D02*
X1376Y367D01*
X0Y366D02*
X4Y366D01*
X210Y366D02*
X214Y366D01*
X1161Y366D02*
X1165Y366D01*
X1373Y366D02*
X1376Y366D01*
X0Y365D02*
X4Y365D01*
X210Y365D02*
X214Y365D01*
X1161Y365D02*
X1165Y365D01*
X1373Y365D02*
X1376Y365D01*
X0Y364D02*
X4Y364D01*
X210Y364D02*
X214Y364D01*
X1161Y364D02*
X1165Y364D01*
X1373Y364D02*
X1376Y364D01*
X0Y363D02*
X4Y363D01*
X210Y363D02*
X214Y363D01*
X1161Y363D02*
X1165Y363D01*
X1373Y363D02*
X1376Y363D01*
X0Y362D02*
X4Y362D01*
X210Y362D02*
X214Y362D01*
X1161Y362D02*
X1165Y362D01*
X1373Y362D02*
X1376Y362D01*
X0Y361D02*
X4Y361D01*
X210Y361D02*
X214Y361D01*
X1162Y361D02*
X1165Y361D01*
X1373Y361D02*
X1376Y361D01*
X0Y360D02*
X4Y360D01*
X210Y360D02*
X214Y360D01*
X1162Y360D02*
X1165Y360D01*
X1373Y360D02*
X1376Y360D01*
X0Y359D02*
X4Y359D01*
X210Y359D02*
X214Y359D01*
X1162Y359D02*
X1165Y359D01*
X1373Y359D02*
X1376Y359D01*
X0Y358D02*
X4Y358D01*
X210Y358D02*
X214Y358D01*
X1162Y358D02*
X1165Y358D01*
X1373Y358D02*
X1376Y358D01*
X0Y357D02*
X4Y357D01*
X210Y357D02*
X214Y357D01*
X1162Y357D02*
X1165Y357D01*
X1373Y357D02*
X1376Y357D01*
X0Y356D02*
X4Y356D01*
X210Y356D02*
X214Y356D01*
X1162Y356D02*
X1165Y356D01*
X1373Y356D02*
X1376Y356D01*
X0Y355D02*
X4Y355D01*
X210Y355D02*
X214Y355D01*
X1162Y355D02*
X1165Y355D01*
X1373Y355D02*
X1376Y355D01*
X0Y354D02*
X4Y354D01*
X210Y354D02*
X214Y354D01*
X1162Y354D02*
X1165Y354D01*
X1373Y354D02*
X1376Y354D01*
X0Y353D02*
X4Y353D01*
X210Y353D02*
X214Y353D01*
X1162Y353D02*
X1165Y353D01*
X1373Y353D02*
X1376Y353D01*
X0Y352D02*
X4Y352D01*
X210Y352D02*
X214Y352D01*
X1162Y352D02*
X1165Y352D01*
X1373Y352D02*
X1376Y352D01*
X0Y351D02*
X4Y351D01*
X210Y351D02*
X214Y351D01*
X1162Y351D02*
X1165Y351D01*
X1373Y351D02*
X1376Y351D01*
X0Y350D02*
X4Y350D01*
X210Y350D02*
X214Y350D01*
X1162Y350D02*
X1165Y350D01*
X1373Y350D02*
X1376Y350D01*
X0Y349D02*
X4Y349D01*
X210Y349D02*
X214Y349D01*
X1162Y349D02*
X1165Y349D01*
X1373Y349D02*
X1376Y349D01*
X0Y348D02*
X4Y348D01*
X210Y348D02*
X214Y348D01*
X1162Y348D02*
X1165Y348D01*
X1373Y348D02*
X1376Y348D01*
X0Y347D02*
X4Y347D01*
X210Y347D02*
X214Y347D01*
X1162Y347D02*
X1165Y347D01*
X1373Y347D02*
X1376Y347D01*
X0Y346D02*
X4Y346D01*
X210Y346D02*
X214Y346D01*
X1162Y346D02*
X1165Y346D01*
X1373Y346D02*
X1376Y346D01*
X0Y345D02*
X4Y345D01*
X210Y345D02*
X214Y345D01*
X1162Y345D02*
X1165Y345D01*
X1373Y345D02*
X1376Y345D01*
X0Y344D02*
X4Y344D01*
X210Y344D02*
X214Y344D01*
X1162Y344D02*
X1165Y344D01*
X1373Y344D02*
X1376Y344D01*
X0Y343D02*
X4Y343D01*
X210Y343D02*
X214Y343D01*
X1162Y343D02*
X1165Y343D01*
X1373Y343D02*
X1376Y343D01*
X0Y342D02*
X4Y342D01*
X210Y342D02*
X214Y342D01*
X1162Y342D02*
X1166Y342D01*
X1373Y342D02*
X1376Y342D01*
X0Y341D02*
X4Y341D01*
X210Y341D02*
X214Y341D01*
X1162Y341D02*
X1166Y341D01*
X1373Y341D02*
X1376Y341D01*
X0Y340D02*
X4Y340D01*
X210Y340D02*
X214Y340D01*
X1162Y340D02*
X1166Y340D01*
X1373Y340D02*
X1376Y340D01*
X0Y339D02*
X4Y339D01*
X210Y339D02*
X214Y339D01*
X1162Y339D02*
X1166Y339D01*
X1373Y339D02*
X1376Y339D01*
X0Y338D02*
X4Y338D01*
X210Y338D02*
X214Y338D01*
X1162Y338D02*
X1166Y338D01*
X1373Y338D02*
X1376Y338D01*
X0Y337D02*
X4Y337D01*
X210Y337D02*
X214Y337D01*
X1162Y337D02*
X1166Y337D01*
X1373Y337D02*
X1376Y337D01*
X0Y336D02*
X4Y336D01*
X210Y336D02*
X214Y336D01*
X1162Y336D02*
X1166Y336D01*
X1373Y336D02*
X1376Y336D01*
X0Y335D02*
X4Y335D01*
X210Y335D02*
X214Y335D01*
X1163Y335D02*
X1166Y335D01*
X1373Y335D02*
X1376Y335D01*
X0Y334D02*
X4Y334D01*
X210Y334D02*
X214Y334D01*
X1163Y334D02*
X1166Y334D01*
X1373Y334D02*
X1376Y334D01*
X0Y333D02*
X4Y333D01*
X210Y333D02*
X214Y333D01*
X1163Y333D02*
X1167Y333D01*
X1373Y333D02*
X1376Y333D01*
X0Y332D02*
X4Y332D01*
X210Y332D02*
X214Y332D01*
X1163Y332D02*
X1168Y332D01*
X1373Y332D02*
X1376Y332D01*
X0Y331D02*
X4Y331D01*
X210Y331D02*
X213Y331D01*
X1164Y331D02*
X1168Y331D01*
X1373Y331D02*
X1376Y331D01*
X0Y330D02*
X4Y330D01*
X209Y330D02*
X213Y330D01*
X1165Y330D02*
X1169Y330D01*
X1373Y330D02*
X1376Y330D01*
X0Y329D02*
X4Y329D01*
X208Y329D02*
X212Y329D01*
X1165Y329D02*
X1169Y329D01*
X1373Y329D02*
X1376Y329D01*
X0Y328D02*
X4Y328D01*
X208Y328D02*
X211Y328D01*
X1166Y328D02*
X1170Y328D01*
X1373Y328D02*
X1376Y328D01*
X0Y327D02*
X4Y327D01*
X207Y327D02*
X211Y327D01*
X1166Y327D02*
X1170Y327D01*
X1373Y327D02*
X1376Y327D01*
X0Y326D02*
X4Y326D01*
X207Y326D02*
X210Y326D01*
X1167Y326D02*
X1171Y326D01*
X1373Y326D02*
X1376Y326D01*
X0Y325D02*
X4Y325D01*
X206Y325D02*
X210Y325D01*
X1167Y325D02*
X1171Y325D01*
X1373Y325D02*
X1376Y325D01*
X0Y324D02*
X4Y324D01*
X206Y324D02*
X209Y324D01*
X1168Y324D02*
X1172Y324D01*
X1373Y324D02*
X1376Y324D01*
X0Y323D02*
X4Y323D01*
X205Y323D02*
X209Y323D01*
X1168Y323D02*
X1172Y323D01*
X1373Y323D02*
X1376Y323D01*
X0Y322D02*
X4Y322D01*
X205Y322D02*
X208Y322D01*
X1169Y322D02*
X1172Y322D01*
X1373Y322D02*
X1376Y322D01*
X0Y321D02*
X4Y321D01*
X204Y321D02*
X208Y321D01*
X1169Y321D02*
X1173Y321D01*
X1373Y321D02*
X1376Y321D01*
X0Y320D02*
X4Y320D01*
X204Y320D02*
X207Y320D01*
X1170Y320D02*
X1173Y320D01*
X1373Y320D02*
X1376Y320D01*
X0Y319D02*
X4Y319D01*
X204Y319D02*
X207Y319D01*
X1170Y319D02*
X1173Y319D01*
X1373Y319D02*
X1376Y319D01*
X0Y318D02*
X4Y318D01*
X203Y318D02*
X207Y318D01*
X1170Y318D02*
X1174Y318D01*
X1373Y318D02*
X1376Y318D01*
X0Y317D02*
X4Y317D01*
X203Y317D02*
X206Y317D01*
X1170Y317D02*
X1174Y317D01*
X1373Y317D02*
X1376Y317D01*
X0Y316D02*
X4Y316D01*
X203Y316D02*
X206Y316D01*
X1171Y316D02*
X1174Y316D01*
X1373Y316D02*
X1376Y316D01*
X0Y315D02*
X4Y315D01*
X202Y315D02*
X206Y315D01*
X1171Y315D02*
X1174Y315D01*
X1373Y315D02*
X1376Y315D01*
X0Y314D02*
X4Y314D01*
X202Y314D02*
X205Y314D01*
X1171Y314D02*
X1175Y314D01*
X1373Y314D02*
X1376Y314D01*
X0Y313D02*
X4Y313D01*
X202Y313D02*
X205Y313D01*
X1171Y313D02*
X1175Y313D01*
X1373Y313D02*
X1376Y313D01*
X0Y312D02*
X4Y312D01*
X202Y312D02*
X205Y312D01*
X1172Y312D02*
X1175Y312D01*
X1373Y312D02*
X1376Y312D01*
X0Y311D02*
X4Y311D01*
X202Y311D02*
X205Y311D01*
X1172Y311D02*
X1175Y311D01*
X1373Y311D02*
X1376Y311D01*
X0Y310D02*
X4Y310D01*
X201Y310D02*
X205Y310D01*
X1172Y310D02*
X1175Y310D01*
X1373Y310D02*
X1376Y310D01*
X0Y309D02*
X4Y309D01*
X201Y309D02*
X204Y309D01*
X1172Y309D02*
X1175Y309D01*
X1373Y309D02*
X1376Y309D01*
X0Y308D02*
X4Y308D01*
X201Y308D02*
X204Y308D01*
X1172Y308D02*
X1175Y308D01*
X1373Y308D02*
X1376Y308D01*
X0Y307D02*
X4Y307D01*
X201Y307D02*
X204Y307D01*
X1172Y307D02*
X1176Y307D01*
X1373Y307D02*
X1376Y307D01*
X0Y306D02*
X4Y306D01*
X201Y306D02*
X204Y306D01*
X1172Y306D02*
X1176Y306D01*
X1373Y306D02*
X1376Y306D01*
X0Y305D02*
X4Y305D01*
X201Y305D02*
X204Y305D01*
X1172Y305D02*
X1176Y305D01*
X1373Y305D02*
X1376Y305D01*
X0Y304D02*
X4Y304D01*
X201Y304D02*
X204Y304D01*
X1172Y304D02*
X1176Y304D01*
X1373Y304D02*
X1376Y304D01*
X0Y303D02*
X4Y303D01*
X201Y303D02*
X204Y303D01*
X1172Y303D02*
X1176Y303D01*
X1373Y303D02*
X1376Y303D01*
X0Y302D02*
X4Y302D01*
X201Y302D02*
X204Y302D01*
X1172Y302D02*
X1176Y302D01*
X1373Y302D02*
X1376Y302D01*
X0Y301D02*
X4Y301D01*
X201Y301D02*
X204Y301D01*
X1172Y301D02*
X1176Y301D01*
X1373Y301D02*
X1376Y301D01*
X0Y300D02*
X4Y300D01*
X201Y300D02*
X204Y300D01*
X1172Y300D02*
X1175Y300D01*
X1373Y300D02*
X1376Y300D01*
X0Y299D02*
X4Y299D01*
X201Y299D02*
X204Y299D01*
X1172Y299D02*
X1175Y299D01*
X1373Y299D02*
X1376Y299D01*
X0Y298D02*
X4Y298D01*
X201Y298D02*
X204Y298D01*
X1172Y298D02*
X1175Y298D01*
X1373Y298D02*
X1376Y298D01*
X0Y297D02*
X4Y297D01*
X201Y297D02*
X204Y297D01*
X1172Y297D02*
X1175Y297D01*
X1373Y297D02*
X1376Y297D01*
X0Y296D02*
X4Y296D01*
X201Y296D02*
X204Y296D01*
X1172Y296D02*
X1175Y296D01*
X1373Y296D02*
X1376Y296D01*
X0Y295D02*
X4Y295D01*
X201Y295D02*
X204Y295D01*
X1172Y295D02*
X1175Y295D01*
X1373Y295D02*
X1376Y295D01*
X0Y294D02*
X4Y294D01*
X201Y294D02*
X205Y294D01*
X1171Y294D02*
X1175Y294D01*
X1373Y294D02*
X1376Y294D01*
X0Y293D02*
X4Y293D01*
X201Y293D02*
X205Y293D01*
X1171Y293D02*
X1174Y293D01*
X1373Y293D02*
X1376Y293D01*
X0Y292D02*
X4Y292D01*
X202Y292D02*
X205Y292D01*
X1171Y292D02*
X1174Y292D01*
X1373Y292D02*
X1376Y292D01*
X0Y291D02*
X4Y291D01*
X202Y291D02*
X205Y291D01*
X1171Y291D02*
X1174Y291D01*
X1373Y291D02*
X1376Y291D01*
X0Y290D02*
X4Y290D01*
X202Y290D02*
X205Y290D01*
X1171Y290D02*
X1174Y290D01*
X1373Y290D02*
X1376Y290D01*
X0Y289D02*
X4Y289D01*
X202Y289D02*
X206Y289D01*
X1170Y289D02*
X1173Y289D01*
X1373Y289D02*
X1376Y289D01*
X0Y288D02*
X4Y288D01*
X202Y288D02*
X206Y288D01*
X1170Y288D02*
X1173Y288D01*
X1373Y288D02*
X1376Y288D01*
X0Y287D02*
X4Y287D01*
X203Y287D02*
X206Y287D01*
X1170Y287D02*
X1173Y287D01*
X1373Y287D02*
X1376Y287D01*
X0Y286D02*
X4Y286D01*
X203Y286D02*
X207Y286D01*
X1169Y286D02*
X1172Y286D01*
X1373Y286D02*
X1376Y286D01*
X0Y285D02*
X4Y285D01*
X203Y285D02*
X207Y285D01*
X1169Y285D02*
X1172Y285D01*
X1373Y285D02*
X1376Y285D01*
X0Y284D02*
X4Y284D01*
X204Y284D02*
X207Y284D01*
X1168Y284D02*
X1172Y284D01*
X1373Y284D02*
X1376Y284D01*
X0Y283D02*
X4Y283D01*
X204Y283D02*
X208Y283D01*
X1168Y283D02*
X1171Y283D01*
X1373Y283D02*
X1376Y283D01*
X0Y282D02*
X4Y282D01*
X204Y282D02*
X208Y282D01*
X1167Y282D02*
X1171Y282D01*
X1373Y282D02*
X1376Y282D01*
X0Y281D02*
X4Y281D01*
X205Y281D02*
X209Y281D01*
X1167Y281D02*
X1170Y281D01*
X1373Y281D02*
X1376Y281D01*
X0Y280D02*
X4Y280D01*
X205Y280D02*
X209Y280D01*
X1166Y280D02*
X1170Y280D01*
X1373Y280D02*
X1376Y280D01*
X0Y279D02*
X4Y279D01*
X206Y279D02*
X210Y279D01*
X1166Y279D02*
X1169Y279D01*
X1373Y279D02*
X1376Y279D01*
X0Y278D02*
X4Y278D01*
X206Y278D02*
X210Y278D01*
X1165Y278D02*
X1169Y278D01*
X1373Y278D02*
X1376Y278D01*
X0Y277D02*
X4Y277D01*
X207Y277D02*
X211Y277D01*
X1165Y277D02*
X1168Y277D01*
X1373Y277D02*
X1376Y277D01*
X0Y276D02*
X4Y276D01*
X207Y276D02*
X211Y276D01*
X1164Y276D02*
X1168Y276D01*
X1373Y276D02*
X1376Y276D01*
X0Y275D02*
X4Y275D01*
X208Y275D02*
X212Y275D01*
X1163Y275D02*
X1167Y275D01*
X1373Y275D02*
X1376Y275D01*
X0Y274D02*
X4Y274D01*
X208Y274D02*
X213Y274D01*
X1163Y274D02*
X1166Y274D01*
X1373Y274D02*
X1376Y274D01*
X0Y273D02*
X4Y273D01*
X209Y273D02*
X213Y273D01*
X1163Y273D02*
X1166Y273D01*
X1373Y273D02*
X1376Y273D01*
X0Y272D02*
X4Y272D01*
X210Y272D02*
X214Y272D01*
X1163Y272D02*
X1166Y272D01*
X1373Y272D02*
X1376Y272D01*
X0Y271D02*
X4Y271D01*
X210Y271D02*
X214Y271D01*
X1163Y271D02*
X1166Y271D01*
X1373Y271D02*
X1376Y271D01*
X0Y270D02*
X4Y270D01*
X210Y270D02*
X214Y270D01*
X1163Y270D02*
X1166Y270D01*
X1373Y270D02*
X1376Y270D01*
X0Y269D02*
X4Y269D01*
X210Y269D02*
X214Y269D01*
X1163Y269D02*
X1166Y269D01*
X1373Y269D02*
X1376Y269D01*
X0Y268D02*
X4Y268D01*
X210Y268D02*
X214Y268D01*
X1163Y268D02*
X1166Y268D01*
X1373Y268D02*
X1376Y268D01*
X0Y267D02*
X4Y267D01*
X210Y267D02*
X214Y267D01*
X1163Y267D02*
X1166Y267D01*
X1373Y267D02*
X1376Y267D01*
X0Y266D02*
X4Y266D01*
X210Y266D02*
X214Y266D01*
X1163Y266D02*
X1166Y266D01*
X1373Y266D02*
X1376Y266D01*
X0Y265D02*
X4Y265D01*
X210Y265D02*
X214Y265D01*
X1163Y265D02*
X1166Y265D01*
X1373Y265D02*
X1376Y265D01*
X0Y264D02*
X4Y264D01*
X210Y264D02*
X214Y264D01*
X1163Y264D02*
X1166Y264D01*
X1373Y264D02*
X1376Y264D01*
X0Y263D02*
X4Y263D01*
X210Y263D02*
X214Y263D01*
X1163Y263D02*
X1166Y263D01*
X1373Y263D02*
X1376Y263D01*
X0Y262D02*
X4Y262D01*
X210Y262D02*
X214Y262D01*
X1163Y262D02*
X1166Y262D01*
X1373Y262D02*
X1376Y262D01*
X0Y261D02*
X4Y261D01*
X210Y261D02*
X214Y261D01*
X1163Y261D02*
X1166Y261D01*
X1373Y261D02*
X1376Y261D01*
X0Y260D02*
X4Y260D01*
X210Y260D02*
X214Y260D01*
X1163Y260D02*
X1166Y260D01*
X1373Y260D02*
X1376Y260D01*
X0Y259D02*
X4Y259D01*
X210Y259D02*
X214Y259D01*
X1163Y259D02*
X1166Y259D01*
X1373Y259D02*
X1376Y259D01*
X0Y258D02*
X4Y258D01*
X210Y258D02*
X214Y258D01*
X1163Y258D02*
X1166Y258D01*
X1373Y258D02*
X1376Y258D01*
X0Y257D02*
X4Y257D01*
X210Y257D02*
X214Y257D01*
X1163Y257D02*
X1166Y257D01*
X1373Y257D02*
X1376Y257D01*
X0Y256D02*
X4Y256D01*
X210Y256D02*
X214Y256D01*
X1163Y256D02*
X1166Y256D01*
X1373Y256D02*
X1376Y256D01*
X0Y255D02*
X4Y255D01*
X210Y255D02*
X214Y255D01*
X1163Y255D02*
X1166Y255D01*
X1373Y255D02*
X1376Y255D01*
X0Y254D02*
X4Y254D01*
X210Y254D02*
X214Y254D01*
X1163Y254D02*
X1166Y254D01*
X1373Y254D02*
X1376Y254D01*
X0Y253D02*
X4Y253D01*
X210Y253D02*
X214Y253D01*
X1163Y253D02*
X1166Y253D01*
X1373Y253D02*
X1376Y253D01*
X0Y252D02*
X4Y252D01*
X210Y252D02*
X214Y252D01*
X1163Y252D02*
X1166Y252D01*
X1373Y252D02*
X1376Y252D01*
X0Y251D02*
X4Y251D01*
X210Y251D02*
X214Y251D01*
X1163Y251D02*
X1166Y251D01*
X1373Y251D02*
X1376Y251D01*
X0Y250D02*
X4Y250D01*
X210Y250D02*
X214Y250D01*
X1163Y250D02*
X1166Y250D01*
X1373Y250D02*
X1376Y250D01*
X0Y249D02*
X4Y249D01*
X210Y249D02*
X214Y249D01*
X1163Y249D02*
X1166Y249D01*
X1373Y249D02*
X1376Y249D01*
X0Y248D02*
X4Y248D01*
X210Y248D02*
X214Y248D01*
X1163Y248D02*
X1166Y248D01*
X1373Y248D02*
X1376Y248D01*
X0Y247D02*
X4Y247D01*
X210Y247D02*
X214Y247D01*
X1163Y247D02*
X1166Y247D01*
X1373Y247D02*
X1376Y247D01*
X0Y246D02*
X4Y246D01*
X210Y246D02*
X214Y246D01*
X1163Y246D02*
X1166Y246D01*
X1373Y246D02*
X1376Y246D01*
X0Y245D02*
X4Y245D01*
X210Y245D02*
X214Y245D01*
X1163Y245D02*
X1166Y245D01*
X1373Y245D02*
X1376Y245D01*
X0Y244D02*
X4Y244D01*
X210Y244D02*
X214Y244D01*
X1163Y244D02*
X1166Y244D01*
X1373Y244D02*
X1376Y244D01*
X0Y243D02*
X4Y243D01*
X210Y243D02*
X214Y243D01*
X1163Y243D02*
X1166Y243D01*
X1373Y243D02*
X1376Y243D01*
X0Y242D02*
X4Y242D01*
X210Y242D02*
X214Y242D01*
X1163Y242D02*
X1166Y242D01*
X1373Y242D02*
X1376Y242D01*
X0Y241D02*
X4Y241D01*
X210Y241D02*
X214Y241D01*
X1163Y241D02*
X1166Y241D01*
X1373Y241D02*
X1376Y241D01*
X0Y240D02*
X4Y240D01*
X210Y240D02*
X214Y240D01*
X1163Y240D02*
X1166Y240D01*
X1373Y240D02*
X1376Y240D01*
X0Y239D02*
X4Y239D01*
X210Y239D02*
X214Y239D01*
X1163Y239D02*
X1166Y239D01*
X1373Y239D02*
X1376Y239D01*
X0Y238D02*
X4Y238D01*
X210Y238D02*
X214Y238D01*
X1163Y238D02*
X1166Y238D01*
X1373Y238D02*
X1376Y238D01*
X0Y237D02*
X4Y237D01*
X210Y237D02*
X214Y237D01*
X1163Y237D02*
X1166Y237D01*
X1373Y237D02*
X1376Y237D01*
X0Y236D02*
X4Y236D01*
X210Y236D02*
X214Y236D01*
X1163Y236D02*
X1166Y236D01*
X1373Y236D02*
X1376Y236D01*
X0Y235D02*
X4Y235D01*
X210Y235D02*
X214Y235D01*
X1163Y235D02*
X1166Y235D01*
X1373Y235D02*
X1376Y235D01*
X0Y234D02*
X4Y234D01*
X210Y234D02*
X214Y234D01*
X1163Y234D02*
X1166Y234D01*
X1373Y234D02*
X1376Y234D01*
X0Y233D02*
X4Y233D01*
X210Y233D02*
X214Y233D01*
X1163Y233D02*
X1166Y233D01*
X1373Y233D02*
X1376Y233D01*
X0Y232D02*
X4Y232D01*
X210Y232D02*
X214Y232D01*
X1163Y232D02*
X1166Y232D01*
X1373Y232D02*
X1376Y232D01*
X0Y231D02*
X4Y231D01*
X210Y231D02*
X214Y231D01*
X1163Y231D02*
X1166Y231D01*
X1373Y231D02*
X1376Y231D01*
X0Y230D02*
X4Y230D01*
X210Y230D02*
X214Y230D01*
X1163Y230D02*
X1166Y230D01*
X1373Y230D02*
X1376Y230D01*
X0Y229D02*
X4Y229D01*
X210Y229D02*
X214Y229D01*
X1163Y229D02*
X1166Y229D01*
X1373Y229D02*
X1376Y229D01*
X0Y228D02*
X4Y228D01*
X210Y228D02*
X214Y228D01*
X1163Y228D02*
X1166Y228D01*
X1373Y228D02*
X1376Y228D01*
X0Y227D02*
X4Y227D01*
X210Y227D02*
X214Y227D01*
X1163Y227D02*
X1166Y227D01*
X1373Y227D02*
X1376Y227D01*
X0Y226D02*
X4Y226D01*
X210Y226D02*
X214Y226D01*
X1163Y226D02*
X1166Y226D01*
X1373Y226D02*
X1376Y226D01*
X0Y225D02*
X4Y225D01*
X210Y225D02*
X214Y225D01*
X1163Y225D02*
X1166Y225D01*
X1373Y225D02*
X1376Y225D01*
X0Y224D02*
X4Y224D01*
X210Y224D02*
X214Y224D01*
X1163Y224D02*
X1166Y224D01*
X1373Y224D02*
X1376Y224D01*
X0Y223D02*
X4Y223D01*
X210Y223D02*
X214Y223D01*
X1163Y223D02*
X1166Y223D01*
X1373Y223D02*
X1376Y223D01*
X0Y222D02*
X4Y222D01*
X210Y222D02*
X214Y222D01*
X1163Y222D02*
X1166Y222D01*
X1373Y222D02*
X1376Y222D01*
X0Y221D02*
X4Y221D01*
X210Y221D02*
X214Y221D01*
X1163Y221D02*
X1166Y221D01*
X1373Y221D02*
X1376Y221D01*
X0Y220D02*
X3Y220D01*
X210Y220D02*
X214Y220D01*
X1163Y220D02*
X1166Y220D01*
X1373Y220D02*
X1376Y220D01*
X0Y219D02*
X3Y219D01*
X210Y219D02*
X214Y219D01*
X1163Y219D02*
X1166Y219D01*
X1373Y219D02*
X1376Y219D01*
X0Y218D02*
X3Y218D01*
X210Y218D02*
X214Y218D01*
X1163Y218D02*
X1166Y218D01*
X1373Y218D02*
X1376Y218D01*
X0Y217D02*
X3Y217D01*
X210Y217D02*
X214Y217D01*
X1163Y217D02*
X1166Y217D01*
X1373Y217D02*
X1376Y217D01*
X0Y216D02*
X3Y216D01*
X210Y216D02*
X214Y216D01*
X1163Y216D02*
X1166Y216D01*
X1373Y216D02*
X1376Y216D01*
X0Y215D02*
X3Y215D01*
X210Y215D02*
X214Y215D01*
X1163Y215D02*
X1166Y215D01*
X1373Y215D02*
X1376Y215D01*
X0Y214D02*
X3Y214D01*
X210Y214D02*
X214Y214D01*
X1163Y214D02*
X1166Y214D01*
X1373Y214D02*
X1376Y214D01*
X0Y213D02*
X3Y213D01*
X210Y213D02*
X214Y213D01*
X1163Y213D02*
X1166Y213D01*
X1373Y213D02*
X1376Y213D01*
X0Y212D02*
X3Y212D01*
X210Y212D02*
X214Y212D01*
X1163Y212D02*
X1166Y212D01*
X1373Y212D02*
X1376Y212D01*
X0Y211D02*
X3Y211D01*
X210Y211D02*
X214Y211D01*
X1163Y211D02*
X1166Y211D01*
X1373Y211D02*
X1376Y211D01*
X0Y210D02*
X3Y210D01*
X210Y210D02*
X214Y210D01*
X1163Y210D02*
X1166Y210D01*
X1373Y210D02*
X1376Y210D01*
X0Y209D02*
X3Y209D01*
X210Y209D02*
X214Y209D01*
X1163Y209D02*
X1166Y209D01*
X1373Y209D02*
X1376Y209D01*
X0Y208D02*
X3Y208D01*
X210Y208D02*
X214Y208D01*
X1163Y208D02*
X1166Y208D01*
X1373Y208D02*
X1376Y208D01*
X0Y207D02*
X3Y207D01*
X210Y207D02*
X214Y207D01*
X1163Y207D02*
X1166Y207D01*
X1373Y207D02*
X1376Y207D01*
X0Y206D02*
X3Y206D01*
X210Y206D02*
X214Y206D01*
X1163Y206D02*
X1166Y206D01*
X1373Y206D02*
X1376Y206D01*
X0Y205D02*
X3Y205D01*
X210Y205D02*
X214Y205D01*
X1163Y205D02*
X1166Y205D01*
X1373Y205D02*
X1376Y205D01*
X0Y204D02*
X3Y204D01*
X210Y204D02*
X214Y204D01*
X1163Y204D02*
X1166Y204D01*
X1373Y204D02*
X1376Y204D01*
X0Y203D02*
X3Y203D01*
X210Y203D02*
X214Y203D01*
X1163Y203D02*
X1166Y203D01*
X1373Y203D02*
X1376Y203D01*
X0Y202D02*
X3Y202D01*
X210Y202D02*
X214Y202D01*
X1163Y202D02*
X1166Y202D01*
X1373Y202D02*
X1376Y202D01*
X0Y201D02*
X3Y201D01*
X210Y201D02*
X214Y201D01*
X1163Y201D02*
X1166Y201D01*
X1373Y201D02*
X1376Y201D01*
X0Y200D02*
X3Y200D01*
X210Y200D02*
X214Y200D01*
X1163Y200D02*
X1166Y200D01*
X1373Y200D02*
X1376Y200D01*
X0Y199D02*
X3Y199D01*
X210Y199D02*
X214Y199D01*
X1163Y199D02*
X1166Y199D01*
X1373Y199D02*
X1376Y199D01*
X0Y198D02*
X3Y198D01*
X210Y198D02*
X214Y198D01*
X1163Y198D02*
X1166Y198D01*
X1373Y198D02*
X1376Y198D01*
X0Y197D02*
X3Y197D01*
X210Y197D02*
X214Y197D01*
X1163Y197D02*
X1166Y197D01*
X1373Y197D02*
X1376Y197D01*
X0Y196D02*
X3Y196D01*
X210Y196D02*
X214Y196D01*
X1163Y196D02*
X1166Y196D01*
X1373Y196D02*
X1376Y196D01*
X0Y195D02*
X3Y195D01*
X210Y195D02*
X214Y195D01*
X1163Y195D02*
X1166Y195D01*
X1373Y195D02*
X1376Y195D01*
X0Y194D02*
X3Y194D01*
X210Y194D02*
X214Y194D01*
X1163Y194D02*
X1166Y194D01*
X1373Y194D02*
X1376Y194D01*
X0Y193D02*
X3Y193D01*
X210Y193D02*
X214Y193D01*
X1163Y193D02*
X1166Y193D01*
X1373Y193D02*
X1376Y193D01*
X0Y192D02*
X3Y192D01*
X210Y192D02*
X214Y192D01*
X1163Y192D02*
X1166Y192D01*
X1373Y192D02*
X1376Y192D01*
X0Y191D02*
X3Y191D01*
X210Y191D02*
X214Y191D01*
X1163Y191D02*
X1166Y191D01*
X1373Y191D02*
X1376Y191D01*
X0Y190D02*
X3Y190D01*
X210Y190D02*
X214Y190D01*
X1163Y190D02*
X1166Y190D01*
X1373Y190D02*
X1376Y190D01*
X0Y189D02*
X3Y189D01*
X210Y189D02*
X214Y189D01*
X1163Y189D02*
X1166Y189D01*
X1373Y189D02*
X1376Y189D01*
X0Y188D02*
X3Y188D01*
X210Y188D02*
X214Y188D01*
X1163Y188D02*
X1166Y188D01*
X1373Y188D02*
X1376Y188D01*
X0Y187D02*
X3Y187D01*
X210Y187D02*
X214Y187D01*
X1163Y187D02*
X1166Y187D01*
X1373Y187D02*
X1376Y187D01*
X0Y186D02*
X79Y186D01*
X210Y186D02*
X214Y186D01*
X1163Y186D02*
X1166Y186D01*
X1299Y186D02*
X1376Y186D01*
X0Y185D02*
X79Y185D01*
X210Y185D02*
X214Y185D01*
X1163Y185D02*
X1166Y185D01*
X1298Y185D02*
X1376Y185D01*
X0Y184D02*
X79Y184D01*
X210Y184D02*
X214Y184D01*
X1163Y184D02*
X1166Y184D01*
X1298Y184D02*
X1376Y184D01*
X0Y183D02*
X79Y183D01*
X210Y183D02*
X214Y183D01*
X1163Y183D02*
X1166Y183D01*
X1298Y183D02*
X1376Y183D01*
X0Y182D02*
X79Y182D01*
X210Y182D02*
X214Y182D01*
X1163Y182D02*
X1166Y182D01*
X1298Y182D02*
X1376Y182D01*
X0Y181D02*
X4Y181D01*
X76Y181D02*
X79Y181D01*
X210Y181D02*
X214Y181D01*
X1163Y181D02*
X1166Y181D01*
X1298Y181D02*
X1302Y181D01*
X0Y180D02*
X4Y180D01*
X76Y180D02*
X79Y180D01*
X210Y180D02*
X214Y180D01*
X1163Y180D02*
X1166Y180D01*
X1298Y180D02*
X1302Y180D01*
X0Y179D02*
X4Y179D01*
X76Y179D02*
X79Y179D01*
X210Y179D02*
X214Y179D01*
X1163Y179D02*
X1166Y179D01*
X1298Y179D02*
X1302Y179D01*
X0Y178D02*
X4Y178D01*
X76Y178D02*
X79Y178D01*
X210Y178D02*
X214Y178D01*
X1163Y178D02*
X1166Y178D01*
X1298Y178D02*
X1302Y178D01*
X0Y177D02*
X4Y177D01*
X76Y177D02*
X79Y177D01*
X210Y177D02*
X214Y177D01*
X1163Y177D02*
X1166Y177D01*
X1298Y177D02*
X1302Y177D01*
X0Y176D02*
X4Y176D01*
X76Y176D02*
X79Y176D01*
X210Y176D02*
X214Y176D01*
X1163Y176D02*
X1166Y176D01*
X1298Y176D02*
X1302Y176D01*
X0Y175D02*
X4Y175D01*
X76Y175D02*
X79Y175D01*
X210Y175D02*
X214Y175D01*
X1163Y175D02*
X1166Y175D01*
X1298Y175D02*
X1302Y175D01*
X0Y174D02*
X4Y174D01*
X76Y174D02*
X79Y174D01*
X210Y174D02*
X214Y174D01*
X1163Y174D02*
X1166Y174D01*
X1298Y174D02*
X1302Y174D01*
X0Y173D02*
X4Y173D01*
X76Y173D02*
X79Y173D01*
X210Y173D02*
X214Y173D01*
X1163Y173D02*
X1166Y173D01*
X1298Y173D02*
X1302Y173D01*
X0Y172D02*
X4Y172D01*
X76Y172D02*
X79Y172D01*
X210Y172D02*
X214Y172D01*
X1163Y172D02*
X1166Y172D01*
X1298Y172D02*
X1302Y172D01*
X0Y171D02*
X4Y171D01*
X76Y171D02*
X79Y171D01*
X210Y171D02*
X214Y171D01*
X1163Y171D02*
X1166Y171D01*
X1298Y171D02*
X1302Y171D01*
X0Y170D02*
X4Y170D01*
X76Y170D02*
X79Y170D01*
X210Y170D02*
X214Y170D01*
X1163Y170D02*
X1166Y170D01*
X1298Y170D02*
X1302Y170D01*
X0Y169D02*
X4Y169D01*
X76Y169D02*
X79Y169D01*
X210Y169D02*
X214Y169D01*
X1163Y169D02*
X1166Y169D01*
X1298Y169D02*
X1302Y169D01*
X0Y168D02*
X4Y168D01*
X76Y168D02*
X79Y168D01*
X210Y168D02*
X214Y168D01*
X1163Y168D02*
X1166Y168D01*
X1298Y168D02*
X1302Y168D01*
X0Y167D02*
X4Y167D01*
X76Y167D02*
X79Y167D01*
X210Y167D02*
X214Y167D01*
X1163Y167D02*
X1166Y167D01*
X1298Y167D02*
X1302Y167D01*
X0Y166D02*
X4Y166D01*
X76Y166D02*
X79Y166D01*
X210Y166D02*
X214Y166D01*
X1163Y166D02*
X1166Y166D01*
X1298Y166D02*
X1302Y166D01*
X0Y165D02*
X4Y165D01*
X76Y165D02*
X79Y165D01*
X210Y165D02*
X214Y165D01*
X1163Y165D02*
X1166Y165D01*
X1298Y165D02*
X1302Y165D01*
X0Y164D02*
X4Y164D01*
X76Y164D02*
X79Y164D01*
X210Y164D02*
X214Y164D01*
X1163Y164D02*
X1166Y164D01*
X1298Y164D02*
X1302Y164D01*
X0Y163D02*
X4Y163D01*
X76Y163D02*
X79Y163D01*
X210Y163D02*
X214Y163D01*
X1163Y163D02*
X1166Y163D01*
X1298Y163D02*
X1302Y163D01*
X0Y162D02*
X4Y162D01*
X76Y162D02*
X79Y162D01*
X210Y162D02*
X214Y162D01*
X1163Y162D02*
X1166Y162D01*
X1298Y162D02*
X1302Y162D01*
X0Y161D02*
X4Y161D01*
X76Y161D02*
X79Y161D01*
X210Y161D02*
X214Y161D01*
X1163Y161D02*
X1166Y161D01*
X1298Y161D02*
X1302Y161D01*
X0Y160D02*
X4Y160D01*
X76Y160D02*
X79Y160D01*
X210Y160D02*
X214Y160D01*
X1163Y160D02*
X1166Y160D01*
X1298Y160D02*
X1302Y160D01*
X0Y159D02*
X4Y159D01*
X76Y159D02*
X79Y159D01*
X210Y159D02*
X214Y159D01*
X1163Y159D02*
X1166Y159D01*
X1298Y159D02*
X1302Y159D01*
X0Y158D02*
X4Y158D01*
X76Y158D02*
X79Y158D01*
X210Y158D02*
X214Y158D01*
X1163Y158D02*
X1166Y158D01*
X1298Y158D02*
X1302Y158D01*
X0Y157D02*
X4Y157D01*
X76Y157D02*
X79Y157D01*
X210Y157D02*
X214Y157D01*
X1163Y157D02*
X1166Y157D01*
X1298Y157D02*
X1302Y157D01*
X0Y156D02*
X4Y156D01*
X76Y156D02*
X79Y156D01*
X210Y156D02*
X214Y156D01*
X1163Y156D02*
X1166Y156D01*
X1298Y156D02*
X1302Y156D01*
X0Y155D02*
X4Y155D01*
X76Y155D02*
X79Y155D01*
X210Y155D02*
X214Y155D01*
X1163Y155D02*
X1166Y155D01*
X1298Y155D02*
X1302Y155D01*
X0Y154D02*
X4Y154D01*
X76Y154D02*
X79Y154D01*
X210Y154D02*
X214Y154D01*
X1163Y154D02*
X1166Y154D01*
X1298Y154D02*
X1302Y154D01*
X0Y153D02*
X4Y153D01*
X76Y153D02*
X79Y153D01*
X210Y153D02*
X214Y153D01*
X1163Y153D02*
X1166Y153D01*
X1298Y153D02*
X1302Y153D01*
X0Y152D02*
X4Y152D01*
X76Y152D02*
X79Y152D01*
X210Y152D02*
X214Y152D01*
X1163Y152D02*
X1166Y152D01*
X1298Y152D02*
X1302Y152D01*
X0Y151D02*
X4Y151D01*
X76Y151D02*
X79Y151D01*
X210Y151D02*
X214Y151D01*
X1163Y151D02*
X1166Y151D01*
X1298Y151D02*
X1302Y151D01*
X0Y150D02*
X4Y150D01*
X76Y150D02*
X79Y150D01*
X210Y150D02*
X214Y150D01*
X1163Y150D02*
X1166Y150D01*
X1298Y150D02*
X1302Y150D01*
X0Y149D02*
X4Y149D01*
X76Y149D02*
X79Y149D01*
X210Y149D02*
X214Y149D01*
X1163Y149D02*
X1166Y149D01*
X1298Y149D02*
X1302Y149D01*
X0Y148D02*
X4Y148D01*
X76Y148D02*
X79Y148D01*
X210Y148D02*
X214Y148D01*
X1163Y148D02*
X1166Y148D01*
X1298Y148D02*
X1302Y148D01*
X0Y147D02*
X4Y147D01*
X76Y147D02*
X79Y147D01*
X210Y147D02*
X214Y147D01*
X1163Y147D02*
X1166Y147D01*
X1298Y147D02*
X1302Y147D01*
X0Y146D02*
X4Y146D01*
X76Y146D02*
X79Y146D01*
X210Y146D02*
X214Y146D01*
X1163Y146D02*
X1166Y146D01*
X1298Y146D02*
X1302Y146D01*
X0Y145D02*
X4Y145D01*
X76Y145D02*
X79Y145D01*
X210Y145D02*
X214Y145D01*
X1163Y145D02*
X1166Y145D01*
X1298Y145D02*
X1302Y145D01*
X0Y144D02*
X4Y144D01*
X76Y144D02*
X79Y144D01*
X210Y144D02*
X214Y144D01*
X1163Y144D02*
X1166Y144D01*
X1298Y144D02*
X1302Y144D01*
X0Y143D02*
X4Y143D01*
X76Y143D02*
X79Y143D01*
X210Y143D02*
X214Y143D01*
X1163Y143D02*
X1166Y143D01*
X1298Y143D02*
X1302Y143D01*
X0Y142D02*
X4Y142D01*
X76Y142D02*
X79Y142D01*
X210Y142D02*
X214Y142D01*
X1163Y142D02*
X1166Y142D01*
X1298Y142D02*
X1302Y142D01*
X0Y141D02*
X4Y141D01*
X76Y141D02*
X79Y141D01*
X210Y141D02*
X214Y141D01*
X1163Y141D02*
X1166Y141D01*
X1298Y141D02*
X1302Y141D01*
X0Y140D02*
X4Y140D01*
X76Y140D02*
X79Y140D01*
X210Y140D02*
X214Y140D01*
X1163Y140D02*
X1166Y140D01*
X1298Y140D02*
X1302Y140D01*
X0Y139D02*
X4Y139D01*
X76Y139D02*
X79Y139D01*
X210Y139D02*
X214Y139D01*
X1163Y139D02*
X1166Y139D01*
X1298Y139D02*
X1302Y139D01*
X0Y138D02*
X4Y138D01*
X76Y138D02*
X79Y138D01*
X210Y138D02*
X214Y138D01*
X1163Y138D02*
X1166Y138D01*
X1298Y138D02*
X1302Y138D01*
X0Y137D02*
X4Y137D01*
X76Y137D02*
X79Y137D01*
X210Y137D02*
X214Y137D01*
X1163Y137D02*
X1166Y137D01*
X1298Y137D02*
X1302Y137D01*
X0Y136D02*
X4Y136D01*
X76Y136D02*
X79Y136D01*
X210Y136D02*
X214Y136D01*
X1163Y136D02*
X1166Y136D01*
X1298Y136D02*
X1302Y136D01*
X0Y135D02*
X4Y135D01*
X76Y135D02*
X79Y135D01*
X210Y135D02*
X214Y135D01*
X1163Y135D02*
X1166Y135D01*
X1298Y135D02*
X1302Y135D01*
X0Y134D02*
X4Y134D01*
X76Y134D02*
X79Y134D01*
X210Y134D02*
X214Y134D01*
X1163Y134D02*
X1166Y134D01*
X1298Y134D02*
X1302Y134D01*
X0Y133D02*
X4Y133D01*
X76Y133D02*
X79Y133D01*
X210Y133D02*
X214Y133D01*
X1163Y133D02*
X1166Y133D01*
X1298Y133D02*
X1302Y133D01*
X0Y132D02*
X4Y132D01*
X76Y132D02*
X79Y132D01*
X210Y132D02*
X214Y132D01*
X1163Y132D02*
X1166Y132D01*
X1298Y132D02*
X1302Y132D01*
X0Y131D02*
X4Y131D01*
X76Y131D02*
X79Y131D01*
X210Y131D02*
X214Y131D01*
X1163Y131D02*
X1166Y131D01*
X1298Y131D02*
X1302Y131D01*
X0Y130D02*
X4Y130D01*
X76Y130D02*
X79Y130D01*
X210Y130D02*
X214Y130D01*
X1163Y130D02*
X1166Y130D01*
X1298Y130D02*
X1302Y130D01*
X0Y129D02*
X4Y129D01*
X76Y129D02*
X79Y129D01*
X210Y129D02*
X214Y129D01*
X1163Y129D02*
X1166Y129D01*
X1298Y129D02*
X1302Y129D01*
X0Y128D02*
X4Y128D01*
X76Y128D02*
X79Y128D01*
X210Y128D02*
X214Y128D01*
X1163Y128D02*
X1166Y128D01*
X1298Y128D02*
X1302Y128D01*
X0Y127D02*
X4Y127D01*
X76Y127D02*
X79Y127D01*
X210Y127D02*
X214Y127D01*
X1163Y127D02*
X1166Y127D01*
X1298Y127D02*
X1302Y127D01*
X0Y126D02*
X4Y126D01*
X76Y126D02*
X79Y126D01*
X210Y126D02*
X214Y126D01*
X1163Y126D02*
X1166Y126D01*
X1298Y126D02*
X1302Y126D01*
X0Y125D02*
X4Y125D01*
X76Y125D02*
X79Y125D01*
X210Y125D02*
X214Y125D01*
X1163Y125D02*
X1166Y125D01*
X1298Y125D02*
X1302Y125D01*
X0Y124D02*
X4Y124D01*
X76Y124D02*
X79Y124D01*
X210Y124D02*
X214Y124D01*
X1163Y124D02*
X1166Y124D01*
X1298Y124D02*
X1302Y124D01*
X0Y123D02*
X4Y123D01*
X76Y123D02*
X79Y123D01*
X210Y123D02*
X214Y123D01*
X1163Y123D02*
X1166Y123D01*
X1298Y123D02*
X1302Y123D01*
X0Y122D02*
X4Y122D01*
X76Y122D02*
X79Y122D01*
X210Y122D02*
X214Y122D01*
X1163Y122D02*
X1166Y122D01*
X1298Y122D02*
X1302Y122D01*
X0Y121D02*
X4Y121D01*
X76Y121D02*
X79Y121D01*
X210Y121D02*
X214Y121D01*
X1163Y121D02*
X1166Y121D01*
X1298Y121D02*
X1302Y121D01*
X0Y120D02*
X4Y120D01*
X76Y120D02*
X79Y120D01*
X210Y120D02*
X214Y120D01*
X1163Y120D02*
X1166Y120D01*
X1298Y120D02*
X1302Y120D01*
X0Y119D02*
X4Y119D01*
X76Y119D02*
X79Y119D01*
X210Y119D02*
X214Y119D01*
X1163Y119D02*
X1166Y119D01*
X1298Y119D02*
X1302Y119D01*
X0Y118D02*
X4Y118D01*
X76Y118D02*
X79Y118D01*
X210Y118D02*
X214Y118D01*
X1163Y118D02*
X1166Y118D01*
X1298Y118D02*
X1302Y118D01*
X0Y117D02*
X4Y117D01*
X76Y117D02*
X79Y117D01*
X210Y117D02*
X214Y117D01*
X1163Y117D02*
X1166Y117D01*
X1298Y117D02*
X1302Y117D01*
X0Y116D02*
X4Y116D01*
X76Y116D02*
X79Y116D01*
X210Y116D02*
X214Y116D01*
X1163Y116D02*
X1166Y116D01*
X1298Y116D02*
X1302Y116D01*
X0Y115D02*
X4Y115D01*
X76Y115D02*
X79Y115D01*
X210Y115D02*
X214Y115D01*
X1163Y115D02*
X1166Y115D01*
X1298Y115D02*
X1302Y115D01*
X0Y114D02*
X4Y114D01*
X76Y114D02*
X79Y114D01*
X210Y114D02*
X214Y114D01*
X1163Y114D02*
X1166Y114D01*
X1298Y114D02*
X1302Y114D01*
X0Y113D02*
X4Y113D01*
X76Y113D02*
X79Y113D01*
X210Y113D02*
X214Y113D01*
X1163Y113D02*
X1166Y113D01*
X1298Y113D02*
X1302Y113D01*
X0Y112D02*
X4Y112D01*
X76Y112D02*
X79Y112D01*
X210Y112D02*
X214Y112D01*
X1163Y112D02*
X1166Y112D01*
X1298Y112D02*
X1302Y112D01*
X0Y111D02*
X79Y111D01*
X210Y111D02*
X214Y111D01*
X1163Y111D02*
X1166Y111D01*
X1298Y111D02*
X1376Y111D01*
X0Y110D02*
X79Y110D01*
X210Y110D02*
X214Y110D01*
X1163Y110D02*
X1166Y110D01*
X1298Y110D02*
X1376Y110D01*
X0Y109D02*
X79Y109D01*
X210Y109D02*
X214Y109D01*
X1163Y109D02*
X1166Y109D01*
X1298Y109D02*
X1376Y109D01*
X0Y108D02*
X79Y108D01*
X210Y108D02*
X214Y108D01*
X1163Y108D02*
X1166Y108D01*
X1298Y108D02*
X1376Y108D01*
X0Y107D02*
X79Y107D01*
X210Y107D02*
X214Y107D01*
X1163Y107D02*
X1166Y107D01*
X1298Y107D02*
X1376Y107D01*
X0Y106D02*
X3Y106D01*
X210Y106D02*
X214Y106D01*
X1163Y106D02*
X1166Y106D01*
X1373Y106D02*
X1376Y106D01*
X0Y105D02*
X3Y105D01*
X210Y105D02*
X214Y105D01*
X1163Y105D02*
X1166Y105D01*
X1373Y105D02*
X1376Y105D01*
X0Y104D02*
X3Y104D01*
X210Y104D02*
X214Y104D01*
X1163Y104D02*
X1166Y104D01*
X1373Y104D02*
X1376Y104D01*
X0Y103D02*
X3Y103D01*
X210Y103D02*
X214Y103D01*
X1163Y103D02*
X1166Y103D01*
X1373Y103D02*
X1376Y103D01*
X0Y102D02*
X3Y102D01*
X210Y102D02*
X214Y102D01*
X1163Y102D02*
X1166Y102D01*
X1373Y102D02*
X1376Y102D01*
X0Y101D02*
X3Y101D01*
X210Y101D02*
X214Y101D01*
X1163Y101D02*
X1166Y101D01*
X1373Y101D02*
X1376Y101D01*
X0Y100D02*
X3Y100D01*
X210Y100D02*
X214Y100D01*
X1163Y100D02*
X1166Y100D01*
X1373Y100D02*
X1376Y100D01*
X0Y99D02*
X3Y99D01*
X210Y99D02*
X214Y99D01*
X1163Y99D02*
X1166Y99D01*
X1373Y99D02*
X1376Y99D01*
X0Y98D02*
X3Y98D01*
X210Y98D02*
X214Y98D01*
X1163Y98D02*
X1166Y98D01*
X1373Y98D02*
X1376Y98D01*
X0Y97D02*
X3Y97D01*
X210Y97D02*
X214Y97D01*
X1163Y97D02*
X1166Y97D01*
X1373Y97D02*
X1376Y97D01*
X0Y96D02*
X3Y96D01*
X210Y96D02*
X214Y96D01*
X1163Y96D02*
X1166Y96D01*
X1373Y96D02*
X1376Y96D01*
X0Y95D02*
X3Y95D01*
X210Y95D02*
X214Y95D01*
X1163Y95D02*
X1166Y95D01*
X1373Y95D02*
X1376Y95D01*
X0Y94D02*
X3Y94D01*
X210Y94D02*
X214Y94D01*
X1163Y94D02*
X1166Y94D01*
X1373Y94D02*
X1376Y94D01*
X0Y93D02*
X3Y93D01*
X210Y93D02*
X214Y93D01*
X1163Y93D02*
X1166Y93D01*
X1373Y93D02*
X1376Y93D01*
X0Y92D02*
X3Y92D01*
X210Y92D02*
X214Y92D01*
X1163Y92D02*
X1166Y92D01*
X1373Y92D02*
X1376Y92D01*
X0Y91D02*
X3Y91D01*
X210Y91D02*
X214Y91D01*
X1163Y91D02*
X1166Y91D01*
X1373Y91D02*
X1376Y91D01*
X0Y90D02*
X3Y90D01*
X210Y90D02*
X214Y90D01*
X1163Y90D02*
X1166Y90D01*
X1373Y90D02*
X1376Y90D01*
X0Y89D02*
X3Y89D01*
X210Y89D02*
X214Y89D01*
X1163Y89D02*
X1166Y89D01*
X1373Y89D02*
X1376Y89D01*
X0Y88D02*
X3Y88D01*
X210Y88D02*
X214Y88D01*
X1163Y88D02*
X1166Y88D01*
X1373Y88D02*
X1376Y88D01*
X0Y87D02*
X3Y87D01*
X210Y87D02*
X214Y87D01*
X1163Y87D02*
X1166Y87D01*
X1373Y87D02*
X1376Y87D01*
X0Y86D02*
X3Y86D01*
X210Y86D02*
X214Y86D01*
X1163Y86D02*
X1166Y86D01*
X1373Y86D02*
X1376Y86D01*
X0Y85D02*
X3Y85D01*
X210Y85D02*
X214Y85D01*
X1163Y85D02*
X1166Y85D01*
X1373Y85D02*
X1376Y85D01*
X0Y84D02*
X3Y84D01*
X210Y84D02*
X214Y84D01*
X1163Y84D02*
X1166Y84D01*
X1373Y84D02*
X1376Y84D01*
X0Y83D02*
X3Y83D01*
X210Y83D02*
X214Y83D01*
X1163Y83D02*
X1166Y83D01*
X1373Y83D02*
X1376Y83D01*
X0Y82D02*
X3Y82D01*
X210Y82D02*
X214Y82D01*
X1163Y82D02*
X1166Y82D01*
X1373Y82D02*
X1376Y82D01*
X0Y81D02*
X3Y81D01*
X210Y81D02*
X214Y81D01*
X1163Y81D02*
X1166Y81D01*
X1373Y81D02*
X1376Y81D01*
X0Y80D02*
X3Y80D01*
X210Y80D02*
X214Y80D01*
X1163Y80D02*
X1166Y80D01*
X1373Y80D02*
X1376Y80D01*
X0Y79D02*
X3Y79D01*
X210Y79D02*
X214Y79D01*
X1163Y79D02*
X1166Y79D01*
X1373Y79D02*
X1376Y79D01*
X0Y78D02*
X3Y78D01*
X210Y78D02*
X214Y78D01*
X1163Y78D02*
X1166Y78D01*
X1373Y78D02*
X1376Y78D01*
X0Y77D02*
X3Y77D01*
X210Y77D02*
X214Y77D01*
X1163Y77D02*
X1166Y77D01*
X1373Y77D02*
X1376Y77D01*
X0Y76D02*
X3Y76D01*
X210Y76D02*
X214Y76D01*
X1163Y76D02*
X1166Y76D01*
X1373Y76D02*
X1376Y76D01*
X0Y75D02*
X3Y75D01*
X210Y75D02*
X214Y75D01*
X1163Y75D02*
X1166Y75D01*
X1373Y75D02*
X1376Y75D01*
X0Y74D02*
X3Y74D01*
X210Y74D02*
X214Y74D01*
X1163Y74D02*
X1166Y74D01*
X1373Y74D02*
X1376Y74D01*
X0Y73D02*
X3Y73D01*
X210Y73D02*
X214Y73D01*
X1163Y73D02*
X1166Y73D01*
X1373Y73D02*
X1376Y73D01*
X0Y72D02*
X3Y72D01*
X210Y72D02*
X214Y72D01*
X1163Y72D02*
X1166Y72D01*
X1373Y72D02*
X1376Y72D01*
X0Y71D02*
X3Y71D01*
X210Y71D02*
X214Y71D01*
X1163Y71D02*
X1166Y71D01*
X1373Y71D02*
X1376Y71D01*
X0Y70D02*
X3Y70D01*
X210Y70D02*
X214Y70D01*
X1163Y70D02*
X1166Y70D01*
X1373Y70D02*
X1376Y70D01*
X0Y69D02*
X3Y69D01*
X210Y69D02*
X214Y69D01*
X1163Y69D02*
X1166Y69D01*
X1373Y69D02*
X1376Y69D01*
X0Y68D02*
X3Y68D01*
X210Y68D02*
X214Y68D01*
X1163Y68D02*
X1166Y68D01*
X1373Y68D02*
X1376Y68D01*
X0Y67D02*
X3Y67D01*
X210Y67D02*
X214Y67D01*
X1163Y67D02*
X1166Y67D01*
X1373Y67D02*
X1376Y67D01*
X0Y66D02*
X3Y66D01*
X210Y66D02*
X214Y66D01*
X1163Y66D02*
X1166Y66D01*
X1373Y66D02*
X1376Y66D01*
X0Y65D02*
X3Y65D01*
X210Y65D02*
X214Y65D01*
X1163Y65D02*
X1166Y65D01*
X1373Y65D02*
X1376Y65D01*
X0Y64D02*
X3Y64D01*
X210Y64D02*
X214Y64D01*
X1163Y64D02*
X1166Y64D01*
X1373Y64D02*
X1376Y64D01*
X0Y63D02*
X3Y63D01*
X210Y63D02*
X214Y63D01*
X1163Y63D02*
X1166Y63D01*
X1373Y63D02*
X1376Y63D01*
X0Y62D02*
X3Y62D01*
X210Y62D02*
X214Y62D01*
X1163Y62D02*
X1166Y62D01*
X1373Y62D02*
X1376Y62D01*
X0Y61D02*
X3Y61D01*
X210Y61D02*
X214Y61D01*
X1163Y61D02*
X1166Y61D01*
X1373Y61D02*
X1376Y61D01*
X0Y60D02*
X3Y60D01*
X210Y60D02*
X214Y60D01*
X1163Y60D02*
X1166Y60D01*
X1373Y60D02*
X1376Y60D01*
X0Y59D02*
X3Y59D01*
X210Y59D02*
X214Y59D01*
X1163Y59D02*
X1166Y59D01*
X1373Y59D02*
X1376Y59D01*
X0Y58D02*
X3Y58D01*
X210Y58D02*
X214Y58D01*
X1163Y58D02*
X1166Y58D01*
X1373Y58D02*
X1376Y58D01*
X0Y57D02*
X3Y57D01*
X210Y57D02*
X214Y57D01*
X1163Y57D02*
X1166Y57D01*
X1373Y57D02*
X1376Y57D01*
X0Y56D02*
X3Y56D01*
X210Y56D02*
X214Y56D01*
X1163Y56D02*
X1166Y56D01*
X1373Y56D02*
X1376Y56D01*
X0Y55D02*
X3Y55D01*
X210Y55D02*
X214Y55D01*
X1163Y55D02*
X1166Y55D01*
X1373Y55D02*
X1376Y55D01*
X0Y54D02*
X3Y54D01*
X210Y54D02*
X214Y54D01*
X1163Y54D02*
X1166Y54D01*
X1373Y54D02*
X1376Y54D01*
X0Y53D02*
X3Y53D01*
X210Y53D02*
X214Y53D01*
X1163Y53D02*
X1166Y53D01*
X1373Y53D02*
X1376Y53D01*
X0Y52D02*
X3Y52D01*
X210Y52D02*
X214Y52D01*
X1163Y52D02*
X1166Y52D01*
X1373Y52D02*
X1376Y52D01*
X0Y51D02*
X3Y51D01*
X210Y51D02*
X214Y51D01*
X1163Y51D02*
X1166Y51D01*
X1373Y51D02*
X1376Y51D01*
X0Y50D02*
X3Y50D01*
X210Y50D02*
X214Y50D01*
X1163Y50D02*
X1166Y50D01*
X1373Y50D02*
X1376Y50D01*
X0Y49D02*
X3Y49D01*
X210Y49D02*
X214Y49D01*
X1163Y49D02*
X1166Y49D01*
X1373Y49D02*
X1376Y49D01*
X0Y48D02*
X3Y48D01*
X210Y48D02*
X214Y48D01*
X1163Y48D02*
X1166Y48D01*
X1373Y48D02*
X1376Y48D01*
X0Y47D02*
X3Y47D01*
X210Y47D02*
X214Y47D01*
X1163Y47D02*
X1166Y47D01*
X1373Y47D02*
X1376Y47D01*
X0Y46D02*
X3Y46D01*
X210Y46D02*
X214Y46D01*
X1163Y46D02*
X1166Y46D01*
X1373Y46D02*
X1376Y46D01*
X0Y45D02*
X3Y45D01*
X210Y45D02*
X214Y45D01*
X1163Y45D02*
X1166Y45D01*
X1373Y45D02*
X1376Y45D01*
X0Y44D02*
X3Y44D01*
X210Y44D02*
X214Y44D01*
X1163Y44D02*
X1166Y44D01*
X1373Y44D02*
X1376Y44D01*
X0Y43D02*
X3Y43D01*
X210Y43D02*
X214Y43D01*
X1163Y43D02*
X1166Y43D01*
X1373Y43D02*
X1376Y43D01*
X0Y42D02*
X3Y42D01*
X210Y42D02*
X214Y42D01*
X1163Y42D02*
X1166Y42D01*
X1373Y42D02*
X1376Y42D01*
X0Y41D02*
X3Y41D01*
X210Y41D02*
X214Y41D01*
X1163Y41D02*
X1166Y41D01*
X1373Y41D02*
X1376Y41D01*
X0Y40D02*
X3Y40D01*
X210Y40D02*
X214Y40D01*
X1163Y40D02*
X1166Y40D01*
X1373Y40D02*
X1376Y40D01*
X0Y39D02*
X3Y39D01*
X210Y39D02*
X214Y39D01*
X1163Y39D02*
X1166Y39D01*
X1373Y39D02*
X1376Y39D01*
X0Y38D02*
X3Y38D01*
X210Y38D02*
X214Y38D01*
X1163Y38D02*
X1166Y38D01*
X1373Y38D02*
X1376Y38D01*
X0Y37D02*
X3Y37D01*
X210Y37D02*
X214Y37D01*
X1163Y37D02*
X1166Y37D01*
X1373Y37D02*
X1376Y37D01*
X0Y36D02*
X3Y36D01*
X210Y36D02*
X214Y36D01*
X1163Y36D02*
X1166Y36D01*
X1373Y36D02*
X1376Y36D01*
X0Y35D02*
X3Y35D01*
X210Y35D02*
X214Y35D01*
X1163Y35D02*
X1166Y35D01*
X1373Y35D02*
X1376Y35D01*
X0Y34D02*
X3Y34D01*
X210Y34D02*
X214Y34D01*
X1163Y34D02*
X1166Y34D01*
X1373Y34D02*
X1376Y34D01*
X0Y33D02*
X3Y33D01*
X210Y33D02*
X214Y33D01*
X1163Y33D02*
X1166Y33D01*
X1373Y33D02*
X1376Y33D01*
X0Y32D02*
X3Y32D01*
X210Y32D02*
X214Y32D01*
X1163Y32D02*
X1166Y32D01*
X1373Y32D02*
X1376Y32D01*
X0Y31D02*
X3Y31D01*
X210Y31D02*
X214Y31D01*
X1163Y31D02*
X1166Y31D01*
X1373Y31D02*
X1376Y31D01*
X0Y30D02*
X3Y30D01*
X210Y30D02*
X214Y30D01*
X1163Y30D02*
X1166Y30D01*
X1373Y30D02*
X1376Y30D01*
X0Y29D02*
X3Y29D01*
X210Y29D02*
X214Y29D01*
X1163Y29D02*
X1166Y29D01*
X1373Y29D02*
X1376Y29D01*
X0Y28D02*
X3Y28D01*
X210Y28D02*
X214Y28D01*
X1163Y28D02*
X1166Y28D01*
X1373Y28D02*
X1376Y28D01*
X0Y27D02*
X3Y27D01*
X210Y27D02*
X214Y27D01*
X1163Y27D02*
X1166Y27D01*
X1373Y27D02*
X1376Y27D01*
X0Y26D02*
X3Y26D01*
X210Y26D02*
X214Y26D01*
X1163Y26D02*
X1166Y26D01*
X1373Y26D02*
X1376Y26D01*
X0Y25D02*
X3Y25D01*
X210Y25D02*
X214Y25D01*
X1163Y25D02*
X1166Y25D01*
X1373Y25D02*
X1376Y25D01*
X0Y24D02*
X3Y24D01*
X210Y24D02*
X214Y24D01*
X1163Y24D02*
X1166Y24D01*
X1373Y24D02*
X1376Y24D01*
X0Y23D02*
X3Y23D01*
X210Y23D02*
X214Y23D01*
X1163Y23D02*
X1166Y23D01*
X1373Y23D02*
X1376Y23D01*
X0Y22D02*
X3Y22D01*
X210Y22D02*
X214Y22D01*
X1163Y22D02*
X1166Y22D01*
X1373Y22D02*
X1376Y22D01*
X0Y21D02*
X3Y21D01*
X210Y21D02*
X214Y21D01*
X1163Y21D02*
X1166Y21D01*
X1373Y21D02*
X1376Y21D01*
X0Y20D02*
X3Y20D01*
X210Y20D02*
X214Y20D01*
X1163Y20D02*
X1166Y20D01*
X1373Y20D02*
X1376Y20D01*
X0Y19D02*
X3Y19D01*
X210Y19D02*
X214Y19D01*
X1163Y19D02*
X1166Y19D01*
X1373Y19D02*
X1376Y19D01*
X0Y18D02*
X3Y18D01*
X210Y18D02*
X214Y18D01*
X1163Y18D02*
X1166Y18D01*
X1373Y18D02*
X1376Y18D01*
X0Y17D02*
X3Y17D01*
X210Y17D02*
X214Y17D01*
X1163Y17D02*
X1166Y17D01*
X1373Y17D02*
X1376Y17D01*
X0Y16D02*
X3Y16D01*
X210Y16D02*
X214Y16D01*
X1163Y16D02*
X1166Y16D01*
X1373Y16D02*
X1376Y16D01*
X0Y15D02*
X3Y15D01*
X210Y15D02*
X214Y15D01*
X1163Y15D02*
X1166Y15D01*
X1373Y15D02*
X1376Y15D01*
X0Y14D02*
X3Y14D01*
X210Y14D02*
X214Y14D01*
X1163Y14D02*
X1166Y14D01*
X1373Y14D02*
X1376Y14D01*
X0Y13D02*
X3Y13D01*
X210Y13D02*
X214Y13D01*
X1163Y13D02*
X1166Y13D01*
X1373Y13D02*
X1376Y13D01*
X0Y12D02*
X3Y12D01*
X210Y12D02*
X214Y12D01*
X1163Y12D02*
X1166Y12D01*
X1373Y12D02*
X1376Y12D01*
X0Y11D02*
X3Y11D01*
X210Y11D02*
X214Y11D01*
X1163Y11D02*
X1166Y11D01*
X1373Y11D02*
X1376Y11D01*
X0Y10D02*
X3Y10D01*
X210Y10D02*
X214Y10D01*
X1163Y10D02*
X1166Y10D01*
X1373Y10D02*
X1376Y10D01*
X0Y9D02*
X3Y9D01*
X210Y9D02*
X214Y9D01*
X1163Y9D02*
X1166Y9D01*
X1373Y9D02*
X1376Y9D01*
X0Y8D02*
X3Y8D01*
X210Y8D02*
X214Y8D01*
X1163Y8D02*
X1166Y8D01*
X1373Y8D02*
X1376Y8D01*
X0Y7D02*
X3Y7D01*
X210Y7D02*
X214Y7D01*
X1163Y7D02*
X1166Y7D01*
X1373Y7D02*
X1376Y7D01*
X0Y6D02*
X3Y6D01*
X210Y6D02*
X214Y6D01*
X1163Y6D02*
X1166Y6D01*
X1373Y6D02*
X1376Y6D01*
X0Y5D02*
X3Y5D01*
X210Y5D02*
X214Y5D01*
X1163Y5D02*
X1166Y5D01*
X1373Y5D02*
X1376Y5D01*
X0Y4D02*
X1376Y4D01*
X0Y3D02*
X1376Y3D01*
X0Y2D02*
X1376Y2D01*
X0Y1D02*
X1376Y1D01*
X0Y0D02*
X1376Y0D01*
D02*
G04 End of Silk1*
M02*