G04 MADE WITH FRITZING*
G04 WWW.FRITZING.ORG*
G04 DOUBLE SIDED*
G04 HOLES PLATED*
G04 CONTOUR ON CENTER OF CONTOUR VECTOR*
%ASAXBY*%
%FSLAX23Y23*%
%MOIN*%
%OFA0B0*%
%SFA1.0B1.0*%
%ADD10C,0.039370*%
%ADD11C,0.078000*%
%ADD12R,0.110236X0.049213*%
%ADD13C,0.016000*%
%ADD14C,0.024000*%
%LNCOPPER1*%
G90*
G70*
G54D10*
X140Y478D03*
X374Y445D03*
X1329Y1230D03*
X860Y757D03*
X585Y635D03*
X727Y635D03*
G54D11*
X992Y1261D03*
X892Y1261D03*
X792Y1261D03*
X692Y1261D03*
X592Y1261D03*
X492Y1261D03*
X392Y1261D03*
X992Y1261D03*
X892Y1261D03*
X792Y1261D03*
X692Y1261D03*
X592Y1261D03*
X492Y1261D03*
X392Y1261D03*
X392Y1361D03*
X492Y1361D03*
X592Y1361D03*
X692Y1361D03*
X792Y1361D03*
X892Y1361D03*
X992Y1361D03*
X992Y1261D03*
X892Y1261D03*
X792Y1261D03*
X692Y1261D03*
X592Y1261D03*
X492Y1261D03*
X392Y1261D03*
X992Y1261D03*
X892Y1261D03*
X792Y1261D03*
X692Y1261D03*
X592Y1261D03*
X492Y1261D03*
X392Y1261D03*
X392Y1361D03*
X492Y1361D03*
X592Y1361D03*
X692Y1361D03*
X792Y1361D03*
X892Y1361D03*
X992Y1361D03*
G54D12*
X821Y480D03*
X821Y421D03*
X821Y362D03*
X821Y303D03*
X821Y244D03*
X821Y185D03*
X821Y126D03*
X557Y480D03*
X557Y421D03*
X557Y362D03*
X557Y303D03*
X557Y244D03*
X557Y185D03*
X557Y126D03*
G54D13*
X729Y423D02*
X727Y622D01*
D02*
X585Y649D02*
X581Y1119D01*
D02*
X581Y1119D02*
X677Y1242D01*
D02*
X774Y422D02*
X729Y423D01*
D02*
X1093Y1159D02*
X1095Y1322D01*
D02*
X1031Y1069D02*
X1093Y1159D01*
D02*
X1095Y1322D02*
X1015Y1353D01*
G54D14*
D02*
X821Y143D02*
X821Y168D01*
G54D13*
D02*
X1030Y184D02*
X1031Y1069D01*
D02*
X869Y185D02*
X1030Y184D01*
D02*
X1252Y1027D02*
X1249Y1441D01*
D02*
X1210Y532D02*
X1252Y1027D01*
D02*
X1210Y247D02*
X1210Y532D01*
D02*
X1166Y61D02*
X1210Y247D01*
D02*
X594Y62D02*
X1166Y61D01*
D02*
X1249Y1441D02*
X947Y1440D01*
D02*
X947Y1440D02*
X906Y1382D01*
D02*
X567Y108D02*
X594Y62D01*
D02*
X1258Y539D02*
X1328Y1217D01*
D02*
X457Y23D02*
X1255Y24D01*
D02*
X1255Y24D02*
X1258Y539D01*
D02*
X459Y181D02*
X457Y23D01*
D02*
X510Y183D02*
X459Y181D01*
D02*
X388Y169D02*
X140Y169D01*
D02*
X140Y169D02*
X140Y464D01*
D02*
X390Y243D02*
X388Y169D01*
D02*
X510Y243D02*
X390Y243D01*
D02*
X430Y305D02*
X288Y412D01*
D02*
X591Y1441D02*
X592Y1386D01*
D02*
X163Y654D02*
X165Y1440D01*
D02*
X288Y412D02*
X163Y654D01*
D02*
X165Y1440D02*
X591Y1441D01*
D02*
X510Y304D02*
X430Y305D01*
D02*
X455Y365D02*
X510Y363D01*
D02*
X384Y436D02*
X455Y365D01*
D02*
X284Y1362D02*
X368Y1362D01*
D02*
X451Y1113D02*
X282Y1196D01*
D02*
X282Y1196D02*
X284Y1362D01*
D02*
X461Y421D02*
X451Y1113D01*
D02*
X510Y421D02*
X461Y421D01*
D02*
X497Y1161D02*
X493Y1237D01*
D02*
X504Y558D02*
X497Y1161D01*
D02*
X546Y497D02*
X504Y558D01*
D02*
X977Y608D02*
X977Y1164D01*
D02*
X977Y1164D02*
X989Y1237D01*
D02*
X979Y246D02*
X977Y608D01*
D02*
X869Y244D02*
X979Y246D01*
D02*
X927Y305D02*
X918Y1161D01*
D02*
X918Y1161D02*
X898Y1238D01*
D02*
X869Y304D02*
X927Y305D01*
D02*
X669Y694D02*
X823Y843D01*
D02*
X819Y1159D02*
X799Y1238D01*
D02*
X823Y843D02*
X819Y1159D01*
D02*
X672Y362D02*
X669Y694D01*
D02*
X774Y362D02*
X672Y362D01*
D02*
X862Y541D02*
X861Y744D01*
D02*
X832Y497D02*
X862Y541D01*
G04 End of Copper1*
M02*