<?xml version='1.0' encoding='UTF-8' standalone='no'?>
<!-- Created with Fritzing (http://www.fritzing.org/) -->
<svg xmlns="http://www.w3.org/2000/svg"  xmlns:svg="http://www.w3.org/2000/svg" version="1.2" x="0in" height="1.4685in" baseProfile="tiny" y="0in" viewBox="0 0 99.2124 105.732" width="1.37795in">
 <g partID="854494471">
  <g transform="matrix(-1, 0, 0, 1, 99.2112, 0)">
   <g id="silkscreen">
    <g style="display:inline">
     <path fill-opacity="1" stroke="black" stroke-opacity="1" d="m99.0695,20.9763l0,0L96.1557,20.9763,0.141615,20.9763M0.132633,-0.0257572,0.141615,69.9561L5.52637,69.9561l0,5.3862L0.141615,75.3425l0,17.291L5.52637,92.6329l0,5.38475L0.141615,98.0179l0,7.7138L99.0695,105.732,98.9337,0.0627545ZM18.6426,37.9831c2.2701,-6.37498e-05,4.1104,1.84023,4.11034,4.11034,5.99998e-05,2.27011,-1.84024,4.1104,-4.11034,4.11034,-2.2701,6.37498e-05,-4.1104,-1.84023,-4.11034,-4.11034,-5.99998e-05,-2.27011,1.84024,-4.1104,4.11034,-4.11034zm30.9638,0c2.26953,0.000747748,4.10893,1.84081,4.10887,4.11034,5.99998e-05,2.26953,-1.83934,4.10959,-4.10887,4.11034,-2.2701,6.37498e-05,-4.1104,-1.84023,-4.11034,-4.11034,-5.99998e-05,-2.27011,1.84024,-4.1104,4.11034,-4.11034zm30.9623,0c2.2701,-6.29998e-05,4.1104,1.84023,4.11034,4.11034,5.99998e-05,2.27011,-1.84024,4.1104,-4.11034,4.11034,-2.2701,6.29998e-05,-4.1104,-1.84023,-4.11034,-4.11034,-5.99998e-05,-2.27011,1.84024,-4.1104,4.11034,-4.11034zM15.3057,105.708l0,-19.5497c-0.459726,-0.630478,-0.707466,-1.39061,-0.707518,-2.17089,5.24999e-05,-0.78029,0.247792,-1.54042,0.707518,-2.17089L16.0131,63.3541L83.9038,63.3541L83.9038,81.9575c0.460551,0.630695,0.708816,1.3914,0.708988,2.17235,-0.0001725,0.780942,-0.248437,1.54165,-0.708988,2.17235l0,19.4062m9.69575,-35.7523l5.38622,0l0,5.38621l-5.38622,0zm0,22.6771l5.38622,0l0,5.38475l-5.38622,0z" fill="none" stroke-width="0.283464" id="rect62233-9" style="display:inline;stroke-miterlimit:4;stroke-dasharray:none;"/>
    </g>
   </g>
  </g>
 </g>
 <g partID="854494470">
  <g transform="matrix(-1, 0, 0, 1, 99.2112, 0)">
   <g id="board">
    <g style="display:inline">
     <path fill-opacity="1" stroke="black" stroke-opacity="1" d="M0.123624,0.114489,0.141618,69.9561L5.52784,69.9561l0,5.38621L0.141618,75.3425l0,17.291L5.52784,92.6329l0,5.38621L0.141618,98.0194l0,7.71237L99.0695,105.732L98.9285,0.205246ZM18.6426,37.9831c2.2701,-6.29998e-05,4.1104,1.84023,4.11034,4.11034,6.29998e-05,2.2701,-1.84023,4.1104,-4.11034,4.11034,-2.2701,6.29998e-05,-4.1104,-1.84023,-4.11034,-4.11034,-6.29998e-05,-2.2701,1.84023,-4.1104,4.11034,-4.11034zm30.9638,0c2.26953,0.000745498,4.10894,1.84081,4.10888,4.11034,6.29998e-05,2.26953,-1.83934,4.10959,-4.10888,4.11034,-2.2701,6.29998e-05,-4.1104,-1.84023,-4.11034,-4.11034,-6.29998e-05,-2.2701,1.84023,-4.1104,4.11034,-4.11034zm30.9623,0c2.2701,-6.29998e-05,4.1104,1.84023,4.11034,4.11034,5.99998e-05,2.27011,-1.84024,4.1104,-4.11034,4.11034,-2.2701,6.29998e-05,-4.1104,-1.84023,-4.11034,-4.11034,-5.99998e-05,-2.27011,1.84024,-4.1104,4.11034,-4.11034zm13.0327,31.9731l5.38475,0l0,5.38621L93.6013,75.3425ZM18.2265,80.3037c0.0190424,-0.000149999,0.0380849,-0.000149999,0.0571273,0,2.03444,0.000524998,3.68355,1.64963,3.68407,3.68407,0.000283499,2.03501,-1.64906,3.68502,-3.68407,3.68554,-2.03558,0.000277499,-3.68582,-1.64996,-3.68554,-3.68554,0.000284999,-2.0129,1.61574,-3.65314,3.62841,-3.68407zm62.6439,0.140625l0.0015,0c0.0190499,-0.000149999,0.0380999,-0.000149999,0.0571498,0,2.03501,0.000524998,3.68436,1.65053,3.68407,3.68554,0.000277499,2.03501,-1.64907,3.68501,-3.68407,3.68553,-2.03558,0.000277499,-3.68581,-1.64996,-3.68554,-3.68553,-0.000532499,-2.01291,1.61427,-3.65381,3.62694,-3.68554zm12.7309,12.189l5.38475,0l0,5.38621l-5.38475,0z" fill="none" stroke-width="0.5" id="boardoutline" style="display:inline;stroke-miterlimit:4;stroke-dasharray:none;"/>
    </g>
   </g>
  </g>
 </g>
 <g partID="854494471">
  <g transform="matrix(-1, 0, 0, 1, 99.2112, 0)">
   <g id="silkscreen">
    <g style="display:inline">
     <path fill-opacity="1" stroke="black" stroke-opacity="1" d="m99.0695,20.9763l0,0L96.1557,20.9763,0.141615,20.9763M0.132633,-0.0257572,0.141615,69.9561L5.52637,69.9561l0,5.3862L0.141615,75.3425l0,17.291L5.52637,92.6329l0,5.38475L0.141615,98.0179l0,7.7138L99.0695,105.732,98.9337,0.0627545ZM18.6426,37.9831c2.2701,-6.37498e-05,4.1104,1.84023,4.11034,4.11034,5.99998e-05,2.27011,-1.84024,4.1104,-4.11034,4.11034,-2.2701,6.37498e-05,-4.1104,-1.84023,-4.11034,-4.11034,-5.99998e-05,-2.27011,1.84024,-4.1104,4.11034,-4.11034zm30.9638,0c2.26953,0.000747748,4.10893,1.84081,4.10887,4.11034,5.99998e-05,2.26953,-1.83934,4.10959,-4.10887,4.11034,-2.2701,6.37498e-05,-4.1104,-1.84023,-4.11034,-4.11034,-5.99998e-05,-2.27011,1.84024,-4.1104,4.11034,-4.11034zm30.9623,0c2.2701,-6.29998e-05,4.1104,1.84023,4.11034,4.11034,5.99998e-05,2.27011,-1.84024,4.1104,-4.11034,4.11034,-2.2701,6.29998e-05,-4.1104,-1.84023,-4.11034,-4.11034,-5.99998e-05,-2.27011,1.84024,-4.1104,4.11034,-4.11034zM15.3057,105.708l0,-19.5497c-0.459726,-0.630478,-0.707466,-1.39061,-0.707518,-2.17089,5.24999e-05,-0.78029,0.247792,-1.54042,0.707518,-2.17089L16.0131,63.3541L83.9038,63.3541L83.9038,81.9575c0.460551,0.630695,0.708816,1.3914,0.708988,2.17235,-0.0001725,0.780942,-0.248437,1.54165,-0.708988,2.17235l0,19.4062m9.69575,-35.7523l5.38622,0l0,5.38621l-5.38622,0zm0,22.6771l5.38622,0l0,5.38475l-5.38622,0z" fill="none" stroke-width="0.283464" id="rect62233-9" style="display:inline;stroke-miterlimit:4;stroke-dasharray:none;"/>
    </g>
   </g>
  </g>
 </g>
 <g partID="854491751">
  <g transform="translate(0.0208,-0.05168)">
   <g transform="matrix(-1, 0, 0, 1, 99.2114, 0)">
    <g id="silkscreen">
     <g gorn="0.3.0.0.0.0.0.0.0.0.0.0.0.0.0.1" style="display:inline">
      <path fill-opacity="1" stroke="black" stroke-opacity="1" d="m99.0697,20.9764l0,0L96.1559,20.9764,0.141616,20.9764M0.132634,-0.0257572,0.141616,69.9563L5.52638,69.9563l0,5.38622L0.141616,75.3427l0,17.291L5.52638,92.6332l0,5.38476L0.141616,98.0182l0,7.71382L99.0697,105.732,98.9339,0.0627547ZM18.6426,37.9832c2.27011,-6.375e-05,4.11041,1.84024,4.11035,4.11035,6e-05,2.27011,-1.84024,4.11041,-4.11035,4.11035,-2.27011,6.375e-05,-4.11041,-1.84024,-4.11035,-4.11035,-6e-05,-2.27011,1.84024,-4.11041,4.11035,-4.11035zm30.9639,0c2.26954,0.000747749,4.10894,1.84081,4.10888,4.11035,6e-05,2.26954,-1.83934,4.1096,-4.10888,4.11035,-2.27011,6.375e-05,-4.11041,-1.84024,-4.11035,-4.11035,-6e-05,-2.27011,1.84024,-4.11041,4.11035,-4.11035zm30.9624,0c2.27011,-6.3e-05,4.11041,1.84024,4.11035,4.11035,6e-05,2.27011,-1.84024,4.11041,-4.11035,4.11035,-2.27011,6.3e-05,-4.11041,-1.84024,-4.11035,-4.11035,-6e-05,-2.27011,1.84024,-4.11041,4.11035,-4.11035zM15.3057,105.709l0,-19.5498c-0.459727,-0.63048,-0.707467,-1.39061,-0.70752,-2.1709,5.25e-05,-0.780292,0.247792,-1.54042,0.70752,-2.1709L16.0132,63.3543L83.9039,63.3543L83.9039,81.9577c0.460552,0.630697,0.708817,1.39141,0.70899,2.17236,-0.0001725,0.780944,-0.248437,1.54165,-0.70899,2.17235l0,19.4062m9.69577,-35.7524l5.38623,0l0,5.38623l-5.38623,0zm0,22.6772l5.38623,0l0,5.38476l-5.38623,0z" fill="none" stroke-width="0.283465" style="display:inline;stroke-miterlimit:4;stroke-dasharray:none;"/>
     </g>
    </g>
   </g>
  </g>
 </g>
 <g partID="854496111">
  <g transform="translate(7.0616,68.3051)">
   <g id="copper1">
    <circle r="0.992124" cx="3.01733" cy="3.01733" stroke="white" fill="white" stroke-width="1.57039" id="connector0pin"/>
   </g>
  </g>
 </g>
 <g partID="854496821">
  <g transform="translate(23.9464,70.6563)">
   <g id="copper1">
    <circle r="0.992124" cx="3.01733" cy="3.01733" stroke="white" fill="white" stroke-width="1.57039" id="connector0pin"/>
   </g>
  </g>
 </g>
 <g partID="854496951">
  <g transform="translate(92.668,14.1634)">
   <g id="copper1">
    <circle r="0.992124" cx="3.01733" cy="3.01733" stroke="white" fill="white" stroke-width="1.57039" id="connector0pin"/>
   </g>
  </g>
 </g>
 <g partID="854497611">
  <g transform="translate(58.936,48.1791)">
   <g id="copper1">
    <circle r="0.992124" cx="3.01733" cy="3.01733" stroke="white" fill="white" stroke-width="1.57039" id="connector0pin"/>
   </g>
  </g>
 </g>
 <g partID="854499051">
  <g transform="translate(39.0928,56.9665)">
   <g id="copper1">
    <circle r="0.992124" cx="3.01733" cy="3.01733" stroke="white" fill="white" stroke-width="1.57039" id="connector0pin"/>
   </g>
  </g>
 </g>
 <g partID="854499871">
  <g transform="translate(49.2976,56.9665)">
   <g id="copper1">
    <circle r="0.992124" cx="3.01733" cy="3.01733" stroke="white" fill="white" stroke-width="1.57039" id="connector0pin"/>
   </g>
  </g>
 </g>
 <g partID="854491750">
  <g transform="translate(0.0208,-0.05168)">
   <g transform="matrix(-1, 0, 0, 1, 99.2114, 0)">
    <g id="copper1">
     <g gorn="0.3.0.0.0.0.0.0.0.0.0.0.0.0.0.2">
      <g transform="matrix(1, 0, 0, 1, -6.58013, -3.21893)">
       <g>
        <g>
         <g>
          <g>
           <g>
            <g>
             <g>
              <g>
               <g>
                <g>
                 <g>
                  <g>
                   <g>
                    <g>
                     <rect fill-opacity="1" stroke="white" x="42.8675" stroke-opacity="1" height="3.25984" fill="white" gorn="0.3.0.0.0.0.0.0.0.0.0.0.0.0.0.2.0.0.0.0.0.0.0.0.0.0.0.0.0.0.0" stroke-width="1.00347" y="72.8091" id="connector8pin" style="stroke-miterlimit:4;stroke-dasharray:none;" width="7.65354"/>
                     <rect fill-opacity="1" stroke="white" x="42.8586" stroke-opacity="1" height="3.25984" fill="white" gorn="0.3.0.0.0.0.0.0.0.0.0.0.0.0.0.2.0.0.0.0.0.0.0.0.0.0.0.0.0.0.1" stroke-width="1.00347" y="77.0734" id="connector9pin" style="stroke-miterlimit:4;stroke-dasharray:none;" width="7.65354"/>
                     <rect fill-opacity="1" stroke="white" x="42.8586" stroke-opacity="1" height="3.25984" fill="white" gorn="0.3.0.0.0.0.0.0.0.0.0.0.0.0.0.2.0.0.0.0.0.0.0.0.0.0.0.0.0.0.2" stroke-width="1.00347" y="81.3253" id="connector10pin" style="stroke-miterlimit:4;stroke-dasharray:none;" width="7.65354"/>
                     <rect fill-opacity="1" stroke="white" x="42.8586" stroke-opacity="1" height="3.25984" fill="white" gorn="0.3.0.0.0.0.0.0.0.0.0.0.0.0.0.2.0.0.0.0.0.0.0.0.0.0.0.0.0.0.3" stroke-width="1.00347" y="85.5773" id="connector11pin" style="stroke-miterlimit:4;stroke-dasharray:none;" width="7.65354"/>
                     <rect fill-opacity="1" stroke="white" x="42.8586" stroke-opacity="1" height="3.25984" fill="white" gorn="0.3.0.0.0.0.0.0.0.0.0.0.0.0.0.2.0.0.0.0.0.0.0.0.0.0.0.0.0.0.4" stroke-width="1.00347" y="89.8293" id="connector12pin" style="stroke-miterlimit:4;stroke-dasharray:none;" width="7.65354"/>
                     <rect fill-opacity="1" stroke="white" x="42.8586" stroke-opacity="1" height="3.25984" fill="white" gorn="0.3.0.0.0.0.0.0.0.0.0.0.0.0.0.2.0.0.0.0.0.0.0.0.0.0.0.0.0.0.5" stroke-width="1.00347" y="94.0812" id="connector13pin" style="stroke-miterlimit:4;stroke-dasharray:none;" width="7.65353"/>
                     <rect fill-opacity="1" stroke="white" x="42.8586" stroke-opacity="1" height="3.25984" fill="white" gorn="0.3.0.0.0.0.0.0.0.0.0.0.0.0.0.2.0.0.0.0.0.0.0.0.0.0.0.0.0.0.6" stroke-width="1.00347" y="98.3332" id="connector14pin" style="stroke-miterlimit:4;stroke-dasharray:none;" width="7.65353"/>
                     <rect fill-opacity="1" stroke="white" x="61.8597" stroke-opacity="1" height="3.25984" fill="white" gorn="0.3.0.0.0.0.0.0.0.0.0.0.0.0.0.2.0.0.0.0.0.0.0.0.0.0.0.0.0.0.7" stroke-width="1.00347" y="72.8214" id="connector0pad" style="stroke-miterlimit:4;stroke-dasharray:none;" width="7.65353"/>
                     <rect fill-opacity="1" stroke="white" x="61.8597" stroke-opacity="1" height="3.25984" fill="white" gorn="0.3.0.0.0.0.0.0.0.0.0.0.0.0.0.2.0.0.0.0.0.0.0.0.0.0.0.0.0.0.8" stroke-width="1.00347" y="77.0734" id="connector1pad" style="stroke-miterlimit:4;stroke-dasharray:none;" width="7.65353"/>
                     <rect fill-opacity="1" stroke="white" x="61.8597" stroke-opacity="1" height="3.25984" fill="white" gorn="0.3.0.0.0.0.0.0.0.0.0.0.0.0.0.2.0.0.0.0.0.0.0.0.0.0.0.0.0.0.9" stroke-width="1.00347" y="81.3253" id="connector2pad" style="stroke-miterlimit:4;stroke-dasharray:none;" width="7.65353"/>
                     <rect fill-opacity="1" stroke="white" x="61.8597" stroke-opacity="1" height="3.25984" fill="white" gorn="0.3.0.0.0.0.0.0.0.0.0.0.0.0.0.2.0.0.0.0.0.0.0.0.0.0.0.0.0.0.10" stroke-width="1.00347" y="85.5773" id="connector3pad" style="stroke-miterlimit:4;stroke-dasharray:none;" width="7.65353"/>
                     <rect fill-opacity="1" stroke="white" x="61.8597" stroke-opacity="1" height="3.25984" fill="white" gorn="0.3.0.0.0.0.0.0.0.0.0.0.0.0.0.2.0.0.0.0.0.0.0.0.0.0.0.0.0.0.11" stroke-width="1.00347" y="89.8293" id="connector4pad" style="stroke-miterlimit:4;stroke-dasharray:none;" width="7.65353"/>
                     <rect fill-opacity="1" stroke="white" x="61.8597" stroke-opacity="1" height="3.25984" fill="white" gorn="0.3.0.0.0.0.0.0.0.0.0.0.0.0.0.2.0.0.0.0.0.0.0.0.0.0.0.0.0.0.12" stroke-width="1.00347" y="94.0812" id="connector5pad" style="stroke-miterlimit:4;stroke-dasharray:none;" width="7.65353"/>
                     <rect fill-opacity="1" stroke="white" x="61.8597" stroke-opacity="1" height="3.25984" fill="white" gorn="0.3.0.0.0.0.0.0.0.0.0.0.0.0.0.2.0.0.0.0.0.0.0.0.0.0.0.0.0.0.13" stroke-width="1.00347" y="98.3332" id="connector7pin" style="opacity:0.998;stroke-miterlimit:4;stroke-dasharray:none;" width="7.65353"/>
                    </g>
                   </g>
                  </g>
                 </g>
                </g>
               </g>
              </g>
             </g>
            </g>
           </g>
          </g>
         </g>
        </g>
       </g>
      </g>
     </g>
    </g>
   </g>
  </g>
 </g>
 <g partID="854483152">
  <g transform="translate(76.4888,2.67298)">
   <g transform="matrix(0,1,-1,0,0,0)">
    <g id="copper1" flipped="1">
     <g transform="matrix(-1, 0, 0, 1, 17.28, 0)">
      <g>
       <g>
        <g>
         <circle r="2.088" cx="5.04" cy="5.04" stroke="white" fill="white" stroke-width="2.16" id="connector0pin"/>
         <circle r="2.088" cx="5.04" cy="12.24" stroke="white" fill="white" stroke-width="2.16" id="connector1pin"/>
         <circle r="2.088" cx="5.04" cy="19.44" stroke="white" fill="white" stroke-width="2.16" id="connector2pin"/>
         <circle r="2.088" cx="5.04" cy="26.64" stroke="white" fill="white" stroke-width="2.16" id="connector3pin"/>
         <circle r="2.088" cx="5.04" cy="33.84" stroke="white" fill="white" stroke-width="2.16" id="connector4pin"/>
         <circle r="2.088" cx="5.04" cy="41.04" stroke="white" fill="white" stroke-width="2.16" id="connector5pin"/>
         <circle r="2.088" cx="5.04" cy="48.24" stroke="white" fill="white" stroke-width="2.16" id="connector6pin"/>
         <circle r="2.088" cx="5.04" cy="5.04" stroke="white" fill="white" stroke-width="2.16" id="connector0pin"/>
         <circle r="2.088" cx="5.04" cy="12.24" stroke="white" fill="white" stroke-width="2.16" id="connector1pin"/>
         <circle r="2.088" cx="5.04" cy="19.44" stroke="white" fill="white" stroke-width="2.16" id="connector2pin"/>
         <circle r="2.088" cx="5.04" cy="26.64" stroke="white" fill="white" stroke-width="2.16" id="connector3pin"/>
         <circle r="2.088" cx="5.04" cy="33.84" stroke="white" fill="white" stroke-width="2.16" id="connector4pin"/>
         <circle r="2.088" cx="5.04" cy="41.04" stroke="white" fill="white" stroke-width="2.16" id="connector5pin"/>
         <circle r="2.088" cx="5.04" cy="48.24" stroke="white" fill="white" stroke-width="2.16" id="connector6pin"/>
         <circle r="2.088" cx="12.24" cy="48.24" stroke="white" fill="white" stroke-width="2.16" id="connector7pin"/>
         <circle r="2.088" cx="12.24" cy="41.04" stroke="white" fill="white" stroke-width="2.16" id="connector8pin"/>
         <circle r="2.088" cx="12.24" cy="33.84" stroke="white" fill="white" stroke-width="2.16" id="connector9pin"/>
         <circle r="2.088" cx="12.24" cy="26.64" stroke="white" fill="white" stroke-width="2.16" id="connector10pin"/>
         <circle r="2.088" cx="12.24" cy="19.44" stroke="white" fill="white" stroke-width="2.16" id="connector11pin"/>
         <circle r="2.088" cx="12.24" cy="12.24" stroke="white" fill="white" stroke-width="2.16" id="connector12pin"/>
         <circle r="2.088" cx="12.24" cy="5.04" stroke="white" fill="white" stroke-width="2.16" id="connector13pin"/>
        </g>
        <g>
         <g id="copper0">
          <circle r="2.088" cx="5.04" cy="5.04" stroke="white" fill="white" stroke-width="2.16" id="connector0pin"/>
          <circle r="2.088" cx="5.04" cy="12.24" stroke="white" fill="white" stroke-width="2.16" id="connector1pin"/>
          <circle r="2.088" cx="5.04" cy="19.44" stroke="white" fill="white" stroke-width="2.16" id="connector2pin"/>
          <circle r="2.088" cx="5.04" cy="26.64" stroke="white" fill="white" stroke-width="2.16" id="connector3pin"/>
          <circle r="2.088" cx="5.04" cy="33.84" stroke="white" fill="white" stroke-width="2.16" id="connector4pin"/>
          <circle r="2.088" cx="5.04" cy="41.04" stroke="white" fill="white" stroke-width="2.16" id="connector5pin"/>
          <circle r="2.088" cx="5.04" cy="48.24" stroke="white" fill="white" stroke-width="2.16" id="connector6pin"/>
          <circle r="2.088" cx="5.04" cy="5.04" stroke="white" fill="white" stroke-width="2.16" id="connector0pin"/>
          <circle r="2.088" cx="5.04" cy="12.24" stroke="white" fill="white" stroke-width="2.16" id="connector1pin"/>
          <circle r="2.088" cx="5.04" cy="19.44" stroke="white" fill="white" stroke-width="2.16" id="connector2pin"/>
          <circle r="2.088" cx="5.04" cy="26.64" stroke="white" fill="white" stroke-width="2.16" id="connector3pin"/>
          <circle r="2.088" cx="5.04" cy="33.84" stroke="white" fill="white" stroke-width="2.16" id="connector4pin"/>
          <circle r="2.088" cx="5.04" cy="41.04" stroke="white" fill="white" stroke-width="2.16" id="connector5pin"/>
          <circle r="2.088" cx="5.04" cy="48.24" stroke="white" fill="white" stroke-width="2.16" id="connector6pin"/>
          <circle r="2.088" cx="12.24" cy="48.24" stroke="white" fill="white" stroke-width="2.16" id="connector7pin"/>
          <circle r="2.088" cx="12.24" cy="41.04" stroke="white" fill="white" stroke-width="2.16" id="connector8pin"/>
          <circle r="2.088" cx="12.24" cy="33.84" stroke="white" fill="white" stroke-width="2.16" id="connector9pin"/>
          <circle r="2.088" cx="12.24" cy="26.64" stroke="white" fill="white" stroke-width="2.16" id="connector10pin"/>
          <circle r="2.088" cx="12.24" cy="19.44" stroke="white" fill="white" stroke-width="2.16" id="connector11pin"/>
          <circle r="2.088" cx="12.24" cy="12.24" stroke="white" fill="white" stroke-width="2.16" id="connector12pin"/>
          <circle r="2.088" cx="12.24" cy="5.04" stroke="white" fill="white" stroke-width="2.16" id="connector13pin"/>
         </g>
        </g>
       </g>
      </g>
     </g>
    </g>
   </g>
  </g>
 </g>
</svg>
