G04 MADE WITH FRITZING*
G04 WWW.FRITZING.ORG*
G04 DOUBLE SIDED*
G04 HOLES PLATED*
G04 CONTOUR ON CENTER OF CONTOUR VECTOR*
%ASAXBY*%
%FSLAX23Y23*%
%MOIN*%
%OFA0B0*%
%SFA1.0B1.0*%
%ADD10C,0.049370*%
%ADD11C,0.088000*%
%ADD12R,0.120236X0.059213*%
%LNMASK1*%
G90*
G70*
G54D10*
X140Y478D03*
X374Y445D03*
X1329Y1230D03*
X860Y757D03*
X585Y635D03*
X727Y635D03*
G54D11*
X992Y1261D03*
X892Y1261D03*
X792Y1261D03*
X692Y1261D03*
X592Y1261D03*
X492Y1261D03*
X392Y1261D03*
X992Y1261D03*
X892Y1261D03*
X792Y1261D03*
X692Y1261D03*
X592Y1261D03*
X492Y1261D03*
X392Y1261D03*
X392Y1361D03*
X492Y1361D03*
X592Y1361D03*
X692Y1361D03*
X792Y1361D03*
X892Y1361D03*
X992Y1361D03*
X992Y1261D03*
X892Y1261D03*
X792Y1261D03*
X692Y1261D03*
X592Y1261D03*
X492Y1261D03*
X392Y1261D03*
X992Y1261D03*
X892Y1261D03*
X792Y1261D03*
X692Y1261D03*
X592Y1261D03*
X492Y1261D03*
X392Y1261D03*
X392Y1361D03*
X492Y1361D03*
X592Y1361D03*
X692Y1361D03*
X792Y1361D03*
X892Y1361D03*
X992Y1361D03*
G54D12*
X821Y480D03*
X821Y421D03*
X821Y362D03*
X821Y303D03*
X821Y244D03*
X821Y185D03*
X821Y126D03*
X557Y480D03*
X557Y421D03*
X557Y362D03*
X557Y303D03*
X557Y244D03*
X557Y185D03*
X557Y126D03*
G04 End of Mask1*
M02*