<?xml version="1.0" encoding="UTF-8" standalone="no"?>
<svg
   xmlns:dc="http://purl.org/dc/elements/1.1/"
   xmlns:cc="http://creativecommons.org/ns#"
   xmlns:rdf="http://www.w3.org/1999/02/22-rdf-syntax-ns#"
   xmlns:svg="http://www.w3.org/2000/svg"
   xmlns="http://www.w3.org/2000/svg"
   version="1.1"
   id="Layer_1"
   x="0px"
   y="0px"
   width="35mm"
   height="37.299999mm"
   viewBox="0 0 132.28355 140.97647"
   enable-background="new 0 0 30.24 30.24"
   xml:space="preserve"><metadata
   id="metadata31"><rdf:RDF><cc:Work
       rdf:about=""><dc:format>image/svg+xml</dc:format><dc:type
         rdf:resource="http://purl.org/dc/dcmitype/StillImage" /><dc:title></dc:title></cc:Work></rdf:RDF></metadata><defs
   id="defs29">
</defs>





<g
   id="layer1"
   transform="matrix(-1,0,0,1,132.28194,0)"><g
     id="board"
     style="display:inline;stroke:#000000;stroke-opacity:1"><path
       id="boardoutline"
       style="display:inline;fill:#005500;fill-opacity:1;stroke:#000000;stroke-width:0.377953;stroke-miterlimit:4;stroke-dasharray:none;stroke-opacity:1"
       d="M 0.12159346,0.2226863 0.18882482,93.275144 H 7.3704656 v 7.181636 H 0.18882482 v 23.05469 H 7.3704656 v 7.18164 H 0.18882482 v 10.28321 H 132.09312 L 132.03933,0.15806789 Z M 24.856794,50.644284 c 3.026814,-8.4e-5 5.480553,2.453655 5.480469,5.480469 8.4e-5,3.026814 -2.453655,5.480553 -5.480469,5.480469 -3.026814,8.4e-5 -5.480553,-2.453655 -5.480469,-5.480469 -8.4e-5,-3.026814 2.453655,-5.480553 5.480469,-5.480469 z m 41.285156,0 c 3.026052,9.94e-4 5.4786,2.454417 5.478516,5.480469 8.4e-5,3.026052 -2.452464,5.479475 -5.478516,5.480469 -3.026814,8.4e-5 -5.480553,-2.453655 -5.480469,-5.480469 -8.4e-5,-3.026814 2.453655,-5.480553 5.480469,-5.480469 z m 41.2832,0 c 3.02681,-8.4e-5 5.48055,2.453654 5.48047,5.480469 8e-5,3.026815 -2.45366,5.480553 -5.48047,5.480469 -3.02681,8.4e-5 -5.48055,-2.453654 -5.48047,-5.480469 -8e-5,-3.026815 2.45366,-5.480553 5.48047,-5.480469 z m 17.37695,42.63086 h 7.17969 v 7.181636 H 124.8021 Z M 24.302106,107.07201 c 0.02539,-2e-4 0.05078,-2e-4 0.07617,0 2.712592,7e-4 4.911405,2.19952 4.91211,4.91211 3.78e-4,2.71336 -2.198753,4.91337 -4.91211,4.91407 -2.714119,3.7e-4 -4.91444,-2.19995 -4.914062,-4.91407 3.8e-4,-2.68388 2.154327,-4.87087 4.83789,-4.91211 z m 83.525384,0.1875 h 0.002 c 0.0254,-2e-4 0.0508,-2e-4 0.0762,0 2.71336,7e-4 4.91249,2.20071 4.91211,4.91407 3.7e-4,2.71335 -2.19876,4.91336 -4.91211,4.91406 -2.71411,3.7e-4 -4.91443,-2.19995 -4.91406,-4.91406 -7.1e-4,-2.68389 2.15237,-4.87176 4.83593,-4.91407 z m 16.97461,16.25196 h 7.17969 v 7.18164 h -7.17969 z" /></g><g
     id="silkscreen"
     style="display:none"><path
       id="rect62233-9"
       style="display:none;fill:none;fill-opacity:1;stroke:#ffffff;stroke-width:0.377953;stroke-miterlimit:4;stroke-dasharray:none;stroke-opacity:1"
       d="M 0.1888206,27.968503 V 93.275145 H 7.368511 v 7.181635 H 0.1888206 v 23.05469 H 7.368511 v 7.17969 H 0.1888206 v 10.28515 H 132.09312 V 27.968503 Z M 24.856791,50.644286 c 3.02681,-8.5e-5 5.48055,2.453654 5.48047,5.480469 8e-5,3.026815 -2.45366,5.480554 -5.48047,5.480469 -3.02681,8.5e-5 -5.48055,-2.453654 -5.48047,-5.480469 -8e-5,-3.026815 2.45366,-5.480554 5.48047,-5.480469 z m 41.28516,0 c 3.02605,9.97e-4 5.47859,2.45442 5.47851,5.480469 8e-5,3.026049 -2.45246,5.479472 -5.47851,5.480469 -3.02681,8.5e-5 -5.48055,-2.453654 -5.48047,-5.480469 -8e-5,-3.026815 2.45366,-5.480554 5.48047,-5.480469 z m 41.283199,0 c 3.02681,-8.4e-5 5.48055,2.453654 5.48047,5.480469 8e-5,3.026815 -2.45366,5.480553 -5.48047,5.480469 -3.02681,8.4e-5 -5.48055,-2.453654 -5.48047,-5.480469 -8e-5,-3.026815 2.45366,-5.480553 5.48047,-5.480469 z M 20.407571,140.94506 v -26.0664 c -0.61297,-0.84064 -0.94329,-1.85415 -0.94336,-2.89453 7e-5,-1.04039 0.33039,-2.0539 0.94336,-2.89453 V 84.472411 H 111.87241 V 109.2771 c 0.61407,0.84093 0.94509,1.85521 0.94532,2.89648 -2.3e-4,1.04126 -0.33125,2.05554 -0.94532,2.89647 v 25.87501 m 12.92774,-47.669915 h 7.18164 v 7.181645 h -7.18164 z m 0,30.236325 h 7.18164 v 7.17969 h -7.18164 z" /></g><g
     id="copper1"><g
       id="copper0"
       transform="translate(-8.7735164,-4.2919059)"><rect
         style="fill:#ffbf00;fill-opacity:1;stroke:none;stroke-width:0.377953;stroke-miterlimit:4;stroke-dasharray:none;stroke-opacity:1"
         id="connectonpad1"
         width="10.204723"
         height="4.3464565"
         x="57.156738"
         y="97.078827" /><rect
         style="fill:#ffbf00;fill-opacity:1;stroke:none;stroke-width:0.377953;stroke-miterlimit:4;stroke-dasharray:none;stroke-opacity:1"
         id="connectonpad2"
         width="10.204722"
         height="4.3464565"
         x="57.144814"
         y="102.76454" /><rect
         style="fill:#ffbf00;fill-opacity:1;stroke:none;stroke-width:0.377953;stroke-miterlimit:4;stroke-dasharray:none;stroke-opacity:1"
         id="connectonpad3"
         width="10.204722"
         height="4.3464565"
         x="57.144814"
         y="108.43383" /><rect
         style="fill:#ffbf00;fill-opacity:1;stroke:none;stroke-width:0.377953;stroke-miterlimit:4;stroke-dasharray:none;stroke-opacity:1"
         id="connectonpad4"
         width="10.20472"
         height="4.3464565"
         x="57.144817"
         y="114.10312" /><rect
         style="fill:#ffbf00;fill-opacity:1;stroke:none;stroke-width:0.377953;stroke-miterlimit:4;stroke-dasharray:none;stroke-opacity:1"
         id="connectonpad5"
         width="10.204721"
         height="4.3464565"
         x="57.144817"
         y="119.77242" /><rect
         style="fill:#ffbf00;fill-opacity:1;stroke:none;stroke-width:0.377953;stroke-miterlimit:4;stroke-dasharray:none;stroke-opacity:1"
         id="connectonpad6"
         width="10.204719"
         height="4.3464565"
         x="57.144817"
         y="125.4417" /><rect
         style="fill:#ffbf00;fill-opacity:1;stroke:none;stroke-width:0.377953;stroke-miterlimit:4;stroke-dasharray:none;stroke-opacity:1"
         id="connectonpad7"
         width="10.204718"
         height="4.3464565"
         x="57.144821"
         y="131.11101" /><rect
         style="fill:#ffbf00;fill-opacity:1;stroke:none;stroke-width:0.377953;stroke-miterlimit:4;stroke-dasharray:none;stroke-opacity:1"
         id="connectonpad8"
         width="10.204717"
         height="4.3464565"
         x="82.479706"
         y="97.095253" /><rect
         style="fill:#ffbf00;fill-opacity:1;stroke:none;stroke-width:0.377953;stroke-miterlimit:4;stroke-dasharray:none;stroke-opacity:1"
         id="connectonpad9"
         width="10.204716"
         height="4.3464565"
         x="82.479706"
         y="102.76454" /><rect
         style="fill:#ffbf00;fill-opacity:1;stroke:none;stroke-width:0.377953;stroke-miterlimit:4;stroke-dasharray:none;stroke-opacity:1"
         id="connectonpad10"
         width="10.204715"
         height="4.3464565"
         x="82.479706"
         y="108.43383" /><rect
         style="fill:#ffbf00;fill-opacity:1;stroke:none;stroke-width:0.377953;stroke-miterlimit:4;stroke-dasharray:none;stroke-opacity:1"
         id="connectonpad11"
         width="10.204713"
         height="4.3464565"
         x="82.479706"
         y="114.10312" /><rect
         style="fill:#ffbf00;fill-opacity:1;stroke:none;stroke-width:0.377953;stroke-miterlimit:4;stroke-dasharray:none;stroke-opacity:1"
         id="connectonpad12"
         width="10.204714"
         height="4.3464565"
         x="82.479706"
         y="119.77242" /><rect
         style="fill:#ffbf00;fill-opacity:1;stroke:none;stroke-width:0.377953;stroke-miterlimit:4;stroke-dasharray:none;stroke-opacity:1"
         id="connectonpad13"
         width="10.204712"
         height="4.3464565"
         x="82.479706"
         y="125.4417" /><rect
         style="opacity:0.998;fill:#ffbf00;fill-opacity:1;stroke:none;stroke-width:0.377953;stroke-miterlimit:4;stroke-dasharray:none;stroke-opacity:1"
         id="connectonpad14"
         width="10.204711"
         height="4.3464565"
         x="82.479706"
         y="131.11101" /></g></g></g></svg>
