<?xml version="1.0" encoding="utf-8"?>
<!-- Generator: Adobe Illustrator 23.0.4, SVG Export Plug-In . SVG Version: 6.00 Build 0)  -->
<svg version="1.1" id="Layer_1" xmlns:svg="http://www.w3.org/2000/svg"
	 xmlns="http://www.w3.org/2000/svg" xmlns:xlink="http://www.w3.org/1999/xlink" x="0px" y="0px" viewBox="0 0 99.2 105.7"
	 style="enable-background:new 0 0 99.2 105.7;" xml:space="preserve">
<style type="text/css">
	.st0{fill:#162A00;stroke:#000000;stroke-width:0.5;}
</style>
<g>
	<g transform="matrix(-1, 0, 0, 1, 99.2112, 0)">
		<g id="board">
			<g>
				<path id="boardoutline" class="st0" d="M0.1,105.7l98.9,0L98.9,0.2L0.1,0.1L0.1,105.7 M18.6,38c2.3,0,4.1,1.8,4.1,4.1
					c0,2.3-1.8,4.1-4.1,4.1c-2.3,0-4.1-1.8-4.1-4.1C14.5,39.8,16.4,38,18.6,38z M49.6,38c2.3,0,4.1,1.8,4.1,4.1
					c0,2.3-1.8,4.1-4.1,4.1c-2.3,0-4.1-1.8-4.1-4.1C45.5,39.8,47.3,38,49.6,38z M80.6,38c2.3,0,4.1,1.8,4.1,4.1
					c0,2.3-1.8,4.1-4.1,4.1c-2.3,0-4.1-1.8-4.1-4.1C76.5,39.8,78.3,38,80.6,38z M18.2,80.3C18.2,80.3,18.3,80.3,18.2,80.3
					c2.1,0,3.7,1.6,3.7,3.7c0,2-1.6,3.7-3.7,3.7c-2,0-3.7-1.6-3.7-3.7C14.6,82,16.2,80.3,18.2,80.3z M80.9,80.4L80.9,80.4
					C80.9,80.4,80.9,80.4,80.9,80.4c2.1,0,3.7,1.7,3.7,3.7c0,2-1.6,3.7-3.7,3.7c-2,0-3.7-1.6-3.7-3.7C77.2,82.1,78.9,80.5,80.9,80.4
					L80.9,80.4z"/>
			</g>
		</g>
	</g>
</g>
<g>
	<g transform="translate(6.6968,68.0799)">
		<g id="copper1">
		</g>
	</g>
</g>
<g>
	<g transform="translate(24.4416,69.9507)">
	</g>
</g>
<g>
	<g transform="translate(92.3032,13.9382)">
	</g>
</g>
<g>
	<g transform="translate(56.756,47.8406)">
	</g>
</g>
<g>
	<g transform="translate(38.728,56.7413)">
	</g>
</g>
<g>
	<g transform="translate(48.9328,56.7413)">
	</g>
</g>
<g>
	<g transform="translate(76.124,2.44778)">
		<g transform="matrix(0,1,-1,0,0,0)">
			<g>
				<g transform="matrix(-1, 0, 0, 1, 17.28, 0)">
				</g>
			</g>
		</g>
	</g>
</g>
</svg>
